<?xml version="1.0" encoding="utf-8"?>
<!-- Generator: Adobe Illustrator 16.0.4, SVG Export Plug-In . SVG Version: 6.00 Build 0)  -->
<!DOCTYPE svg PUBLIC "-//W3C//DTD SVG 1.1//EN" "http://www.w3.org/Graphics/SVG/1.1/DTD/svg11.dtd">
<svg version="1.1" id="Layer_1" xmlns="http://www.w3.org/2000/svg" xmlns:xlink="http://www.w3.org/1999/xlink" x="0px" y="0px"
	 width="137.106px" height="50.784px" viewBox="0 0.394 137.106 50.784" enable-background="new 0 0.394 137.106 50.784"
	 xml:space="preserve">
<g>
	<path fill="#4A515B" d="M0,24.83l1.459-2.531l9.09-17.118l0.967-1.915c0.281-0.562,0.673-1.371,1.178-2.426
		c2.062,0.023,3.567,0.036,4.517,0.036c1.652,0,3.18-0.013,4.586-0.036l2.564,7.329l5.217,14.095l1.019,2.566
		c-2.029-0.024-3.26-0.035-3.694-0.035c-0.985,0-2.434,0.011-4.346,0.035c-0.515-1.935-1.257-4.207-2.229-6.82h-8.846
		c-1.018,2.062-2.071,4.335-3.159,6.82c-2.183-0.024-3.52-0.035-4.013-0.035C3.418,24.795,1.981,24.806,0,24.83 M13.606,12.895
		h5.458c-1.356-4.128-2.099-6.403-2.228-6.824c-0.772,1.72-1.428,3.129-1.966,4.229L13.606,12.895z"/>
	<path fill="#4A515B" d="M33.5,0.841c1.828,0.023,3.115,0.035,3.865,0.035c0.937,0,2.184-0.012,3.74-0.035l-0.522,7.469
		c-0.104,1.406-0.184,2.726-0.235,3.955c-0.051,1.23-0.078,2.08-0.078,2.548c0,0.893,0.065,1.635,0.193,2.232
		c0.129,0.598,0.363,1.104,0.703,1.521c0.339,0.415,0.81,0.729,1.412,0.94c0.604,0.211,1.232,0.315,1.889,0.315
		c0.562,0,1.088-0.076,1.58-0.229c0.387-0.126,0.731-0.3,1.036-0.523c0.269-0.209,0.503-0.454,0.702-0.732
		c0.247-0.334,0.463-0.753,0.65-1.255c0.188-0.475,0.327-1.088,0.421-1.842c0.105-0.768,0.246-2.511,0.423-5.231
		c0.152-2.314,0.27-4.437,0.353-6.361c0.07-1.87,0.134-2.804,0.192-2.804h4.183h3.568l-0.855,12.478
		c-0.011,0.235-0.017,0.429-0.017,0.581c-0.047,2.438-0.196,4.157-0.449,5.158c-0.251,1.002-0.67,1.871-1.255,2.609
		c-0.587,0.737-1.443,1.402-2.567,1.996c-1.125,0.591-2.401,1.01-3.832,1.255c-1.43,0.247-2.878,0.37-4.343,0.37
		c-1.312,0-2.578-0.095-3.796-0.281c-1.126-0.188-2.14-0.46-3.042-0.817c-0.902-0.356-1.688-0.775-2.354-1.256
		c-0.609-0.444-1.079-0.898-1.406-1.361c-0.328-0.463-0.586-1.017-0.773-1.661c-0.211-0.728-0.314-1.504-0.314-2.336
		c0-0.281,0.011-0.707,0.033-1.274c0.023-0.567,0.077-1.386,0.16-2.452l0.229-2.811c0.06-0.738,0.124-1.823,0.194-3.252L33.5,0.841z
		"/>
	<path fill="#4A515B" d="M65.762,24.83c0.581-5.695,0.931-11.963,1.047-18.806l-7.479,0.193l0.087-1.951
		c0.047-1.042,0.082-2.185,0.104-3.427c3.326,0.022,7.203,0.035,11.631,0.035l4.34-0.018h4.217l2.285-0.018l-0.107,1.722
		c-0.045,0.923-0.078,1.686-0.096,2.289c-0.019,0.604-0.027,1.06-0.027,1.366c-2.504-0.128-4.569-0.193-6.197-0.193h-1.229
		c-0.178,2.07-0.312,3.982-0.406,5.737c-0.131,2.513-0.229,4.955-0.301,7.322c-0.072,2.369-0.107,4.283-0.107,5.746
		c-1.92-0.023-3.161-0.035-3.723-0.035C69.298,24.795,67.951,24.806,65.762,24.83"/>
	<path fill="#4A515B" d="M97.783,0.383c1.875,0,3.68,0.252,5.414,0.756c1.731,0.504,3.25,1.31,4.551,2.417s2.272,2.38,2.918,3.822
		c0.645,1.441,0.967,3.099,0.967,4.974c0,1.969-0.354,3.775-1.064,5.422c-0.709,1.646-1.729,3.043-3.065,4.191
		c-1.334,1.147-2.93,1.989-4.779,2.521c-1.852,0.534-3.778,0.801-5.783,0.801c-1.979,0-3.877-0.262-5.692-0.782
		c-1.816-0.522-3.396-1.365-4.736-2.531c-1.342-1.166-2.293-2.463-2.856-3.893c-0.562-1.43-0.843-3.017-0.843-4.763
		c0-2.564,0.595-4.817,1.783-6.757c1.189-1.938,2.953-3.454,5.289-4.543C92.219,0.928,94.852,0.383,97.783,0.383 M97.466,5.674
		c-1.348,0-2.564,0.331-3.654,0.993s-1.928,1.582-2.514,2.759c-0.586,1.178-0.879,2.439-0.879,3.788c0,1.243,0.266,2.379,0.799,3.41
		c0.533,1.03,1.346,1.836,2.434,2.417c1.093,0.58,2.246,0.869,3.464,0.869c1.301,0,2.493-0.326,3.575-0.976
		c1.084-0.651,1.91-1.564,2.479-2.742c0.568-1.178,0.852-2.411,0.852-3.698c0-1.254-0.262-2.411-0.789-3.472
		c-0.526-1.061-1.301-1.883-2.319-2.469C99.893,5.968,98.744,5.674,97.466,5.674"/>
	<path fill="#4A515B" d="M25.73,50.352c-0.151-2.496-0.327-4.494-0.526-5.994c1.313,0.586,2.484,0.994,3.512,1.223
		s1.929,0.344,2.703,0.344c1.021,0,1.834-0.15,2.438-0.449c0.605-0.299,0.908-0.74,0.908-1.326c0-0.199-0.03-0.391-0.089-0.572
		c-0.059-0.18-0.169-0.385-0.334-0.613c-0.164-0.229-0.399-0.479-0.704-0.748l-3.311-2.881c-0.776-0.656-1.316-1.131-1.621-1.424
		c-0.623-0.598-1.107-1.154-1.454-1.67c-0.346-0.516-0.599-1.039-0.756-1.572c-0.159-0.533-0.238-1.1-0.238-1.697
		c0-0.713,0.125-1.414,0.378-2.099c0.251-0.687,0.63-1.327,1.134-1.926c0.504-0.598,1.172-1.111,2.004-1.546
		c0.831-0.434,1.724-0.729,2.67-0.888c0.95-0.158,1.928-0.237,2.937-0.237c1.979,0,4.135,0.229,6.467,0.687
		c0.035,0.809,0.076,1.549,0.123,2.223c0.046,0.674,0.159,1.854,0.334,3.541c-1.078-0.432-2.062-0.734-2.953-0.904
		c-0.89-0.169-1.658-0.253-2.302-0.253c-0.913,0-1.673,0.169-2.276,0.507c-0.603,0.342-0.904,0.764-0.904,1.268
		c0,0.232,0.046,0.463,0.141,0.686c0.094,0.223,0.271,0.482,0.527,0.781c0.258,0.299,0.598,0.627,1.02,0.984
		s1.083,0.889,1.986,1.592l1.266,1c0.375,0.307,0.779,0.676,1.212,1.109c0.434,0.434,0.81,0.859,1.125,1.279
		c0.316,0.424,0.561,0.811,0.729,1.162c0.17,0.352,0.296,0.705,0.378,1.062s0.123,0.74,0.123,1.15c0,1.055-0.252,2.059-0.756,3.014
		s-1.22,1.74-2.145,2.355c-0.926,0.615-1.941,1.045-3.049,1.291c-1.108,0.246-2.276,0.369-3.506,0.369
		C31.019,51.176,28.624,50.901,25.73,50.352"/>
	<path fill="#4A515B" d="M45.906,50.721l0.348-4.498l0.454-8.789l0.191-6.221c0.013-0.668,0.018-1.336,0.018-2.004
		c0-0.504-0.005-1.329-0.018-2.478c1.548,0.035,2.789,0.054,3.728,0.054c0.902,0,2.138-0.026,3.709-0.08
		c1.569-0.053,2.901-0.078,3.991-0.078c1.569,0,2.732,0.1,3.487,0.299c0.757,0.199,1.439,0.512,2.05,0.938
		c0.609,0.428,1.113,0.931,1.512,1.503c0.397,0.574,0.697,1.229,0.896,1.961c0.199,0.731,0.3,1.479,0.3,2.239
		c0,1.57-0.381,3.006-1.143,4.307s-1.833,2.271-3.216,2.918c-1.382,0.645-2.935,0.967-4.658,0.967c-0.631,0-1.364-0.07-2.195-0.211
		c-0.095-0.539-0.271-1.342-0.526-2.408c-0.259-1.066-0.47-1.857-0.633-2.371c0.515,0.104,1.054,0.158,1.615,0.158
		c1.185,0,2.065-0.285,2.646-0.855c0.58-0.566,0.869-1.262,0.869-2.082c0-0.396-0.064-0.752-0.193-1.062s-0.334-0.564-0.616-0.764
		c-0.28-0.199-0.591-0.328-0.931-0.389c-0.34-0.058-0.727-0.087-1.159-0.087c-0.423,0-0.861,0.012-1.318,0.035l-1.477,0.104
		c-0.152,2.262-0.268,4.775-0.349,7.539c-0.151,5.039-0.227,8.062-0.227,9.068v2.285l-3.5-0.035
		C49.071,50.684,47.851,50.696,45.906,50.721"/>
	<path fill="#4A515B" d="M68.876,50.721C69.55,41.313,69.887,34.073,69.887,29l-0.018-2.269c2.053,0.023,3.426,0.035,4.117,0.035
		c0.315,0,1.575-0.012,3.78-0.035c-0.213,2.636-0.383,5.13-0.512,7.486c-0.164,3.281-0.283,6.348-0.354,9.201
		c-0.069,2.852-0.104,5.285-0.104,7.301l-3.602-0.035C72.494,50.684,71.053,50.696,68.876,50.721"/>
	<path fill="#4A515B" d="M81.125,50.721l0.352-3.689l0.687-12.514l0.192-5.044v-2.741c1.82,0.023,3.427,0.035,4.822,0.035
		c0.998,0,2.4-0.012,4.207-0.035l7.502,13.643l1.035,2.004c0.133-1.969,0.268-4.729,0.406-8.279
		c0.137-3.552,0.207-6.007,0.207-7.367c1.438,0.023,2.592,0.035,3.457,0.035c0.397,0,1.547-0.012,3.44-0.035l-0.422,5.236
		l-0.791,14.553l-0.104,4.199c-1.523-0.023-2.947-0.035-4.273-0.035c-1.102,0-2.627,0.012-4.572,0.035
		c-0.606-1.148-1.059-1.98-1.352-2.496l-2.947-5.012c-0.971-1.641-1.867-3.211-2.686-4.711c-0.539-0.949-1.095-1.992-1.668-3.129
		l-0.379,8.332l-0.181,7.016c-1.451-0.023-2.557-0.035-3.315-0.035C84.096,50.684,82.891,50.696,81.125,50.721"/>
	<path fill="#4A515B" d="M110.668,50.721l0.352-3.689l0.687-12.514l0.192-5.044v-2.741c1.818,0.023,3.427,0.035,4.822,0.035
		c0.996,0,2.398-0.012,4.207-0.035l7.502,13.643l1.035,2.004c0.131-1.969,0.266-4.729,0.404-8.279
		c0.138-3.551,0.207-6.007,0.207-7.367c1.438,0.023,2.594,0.035,3.459,0.035c0.397,0,1.545-0.012,3.44-0.035l-0.422,5.236
		l-0.791,14.553l-0.104,4.199c-1.525-0.023-2.951-0.035-4.275-0.035c-1.102,0-2.625,0.012-4.57,0.035
		c-0.608-1.148-1.061-1.98-1.352-2.496l-2.949-5.012c-0.971-1.641-1.867-3.211-2.684-4.711c-0.539-0.949-1.097-1.992-1.67-3.129
		l-0.377,8.332l-0.181,7.016c-1.451-0.023-2.559-0.035-3.317-0.035C113.639,50.684,112.432,50.696,110.668,50.721"/>
</g>
<g>
	<g>
		<g>
			<defs>
				<path id="SVGID_1_" d="M108.209,1.449c0.265,0.218,0.539,0.455,0.822,0.718c1.431-0.282,2.91-0.431,4.424-0.431
					c12.582,0,22.781,10.2,22.781,22.781c0,0.258-0.006,0.514-0.014,0.771h0.872c0.008-0.256,0.012-0.514,0.012-0.771
					c0-13.062-10.589-23.652-23.651-23.652C111.651,0.865,109.895,1.067,108.209,1.449"/>
			</defs>
			<use xlink:href="#SVGID_1_"  overflow="visible" fill="#4A515B"/>
			<clipPath id="SVGID_2_">
				<use xlink:href="#SVGID_1_"  overflow="visible"/>
			</clipPath>
		</g>
	</g>
</g>
<g>
	<g>
		<g>
			<defs>
				<path id="SVGID_3_" d="M109.031,2.166c0.38,0.351,0.773,0.745,1.177,1.185c1.06-0.16,2.143-0.245,3.247-0.245
					c11.825,0,21.413,9.587,21.413,21.411c0,0.257-0.006,0.514-0.016,0.771h1.37c0.008-0.256,0.013-0.513,0.013-0.771
					c0-12.581-10.198-22.781-22.78-22.781C111.941,1.736,110.462,1.885,109.031,2.166"/>
			</defs>
			<use xlink:href="#SVGID_3_"  overflow="visible" fill="#363B42"/>
			<clipPath id="SVGID_4_">
				<use xlink:href="#SVGID_3_"  overflow="visible"/>
			</clipPath>
		</g>
	</g>
</g>
<g>
	<g>
		<g>
			<defs>
				<path id="SVGID_5_" d="M116.642,15.861c1.047,3.872-1.97,9.426-1.97,9.426h25.063l-0.263-0.771V-0.085l-34.286-0.372
					C105.188-0.457,113.009,2.437,116.642,15.861"/>
			</defs>
			<clipPath id="SVGID_6_">
				<use xlink:href="#SVGID_5_"  overflow="visible"/>
			</clipPath>
			<path clip-path="url(#SVGID_6_)" fill="#4A515B" d="M113.669,7.008c0,0.086-0.096,0.155-0.214,0.155
				c-0.117,0-0.213-0.069-0.213-0.155V4.756c0-0.086,0.096-0.156,0.213-0.156c0.118,0,0.214,0.07,0.214,0.156V7.008"/>
		</g>
	</g>
	<g>
		<g>
			<defs>
				<path id="SVGID_7_" d="M116.642,15.861c1.047,3.872-1.97,9.426-1.97,9.426h25.063l-0.263-0.771V-0.085l-34.286-0.372
					C105.188-0.457,113.009,2.437,116.642,15.861"/>
			</defs>
			<clipPath id="SVGID_8_">
				<use xlink:href="#SVGID_7_"  overflow="visible"/>
			</clipPath>
			<path clip-path="url(#SVGID_8_)" fill="#4A515B" d="M106.528,8.434c0.033,0.077-0.023,0.18-0.133,0.229
				c-0.106,0.047-0.223,0.021-0.258-0.058L105.22,6.55c-0.035-0.079,0.024-0.183,0.132-0.229c0.108-0.048,0.225-0.023,0.259,0.055
				L106.528,8.434"/>
		</g>
	</g>
	<g>
		<g>
			<defs>
				<path id="SVGID_9_" d="M116.642,15.861c1.047,3.872-1.97,9.426-1.97,9.426h25.063l-0.263-0.771V-0.085l-34.286-0.372
					C105.188-0.457,113.009,2.437,116.642,15.861"/>
			</defs>
			<clipPath id="SVGID_10_">
				<use xlink:href="#SVGID_9_"  overflow="visible"/>
			</clipPath>
			<path clip-path="url(#SVGID_10_)" fill="#4A515B" d="M100.586,12.641c0.062,0.058,0.052,0.175-0.028,0.263
				c-0.078,0.087-0.193,0.112-0.257,0.056l-1.675-1.507c-0.064-0.059-0.051-0.177,0.027-0.264s0.193-0.112,0.259-0.055
				L100.586,12.641z"/>
		</g>
	</g>
	<g>
		<g>
			<defs>
				<path id="SVGID_11_" d="M116.642,15.861c1.047,3.872-1.97,9.426-1.97,9.426h25.063l-0.263-0.771V-0.085l-34.286-0.372
					C105.188-0.457,113.009,2.437,116.642,15.861"/>
			</defs>
			<clipPath id="SVGID_12_">
				<use xlink:href="#SVGID_11_"  overflow="visible"/>
			</clipPath>
			<path clip-path="url(#SVGID_12_)" fill="#4A515B" d="M96.869,18.902c0.081,0.027,0.116,0.14,0.081,0.251
				c-0.036,0.112-0.133,0.183-0.214,0.155l-2.143-0.696c-0.082-0.026-0.118-0.139-0.081-0.251c0.036-0.111,0.131-0.182,0.213-0.154
				L96.869,18.902z"/>
		</g>
	</g>
	<g>
		<g>
			<defs>
				<path id="SVGID_13_" d="M116.642,15.861c1.047,3.872-1.97,9.426-1.97,9.426h25.063l-0.263-0.771V-0.085l-34.286-0.372
					C105.188-0.457,113.009,2.437,116.642,15.861"/>
			</defs>
			<clipPath id="SVGID_14_">
				<use xlink:href="#SVGID_13_"  overflow="visible"/>
			</clipPath>
			<path clip-path="url(#SVGID_14_)" fill="#4A515B" d="M96.017,26.135c0.086-0.009,0.165,0.078,0.178,0.196
				c0.014,0.116-0.047,0.219-0.133,0.228l-2.24,0.236c-0.084,0.008-0.164-0.08-0.177-0.197c-0.012-0.117,0.047-0.22,0.134-0.228
				L96.017,26.135z"/>
		</g>
	</g>
	<g>
		<g>
			<defs>
				<path id="SVGID_15_" d="M116.642,15.861c1.047,3.872-1.97,9.426-1.97,9.426h25.063l-0.263-0.771V-0.085l-34.286-0.372
					C105.188-0.457,113.009,2.437,116.642,15.861"/>
			</defs>
			<clipPath id="SVGID_16_">
				<use xlink:href="#SVGID_15_"  overflow="visible"/>
			</clipPath>
			<path clip-path="url(#SVGID_16_)" fill="#4A515B" d="M98.184,33.088c0.074-0.043,0.184,0.006,0.24,0.105
				c0.06,0.104,0.048,0.221-0.027,0.264l-1.95,1.127c-0.074,0.043-0.184-0.006-0.24-0.107c-0.061-0.104-0.048-0.221,0.026-0.262
				L98.184,33.088z"/>
		</g>
	</g>
	<g>
		<g>
			<defs>
				<path id="SVGID_17_" d="M116.642,15.861c1.047,3.872-1.97,9.426-1.97,9.426h25.063l-0.263-0.771V-0.085l-34.286-0.372
					C105.188-0.457,113.009,2.437,116.642,15.861"/>
			</defs>
			<clipPath id="SVGID_18_">
				<use xlink:href="#SVGID_17_"  overflow="visible"/>
			</clipPath>
			<path clip-path="url(#SVGID_18_)" fill="#4A515B" d="M128.512,33.457c-0.075-0.043-0.088-0.16-0.028-0.264
				c0.061-0.102,0.166-0.148,0.24-0.105l1.952,1.127c0.074,0.043,0.086,0.16,0.027,0.262c-0.06,0.102-0.167,0.15-0.242,0.107
				L128.512,33.457"/>
		</g>
	</g>
	<g>
		<g>
			<defs>
				<path id="SVGID_19_" d="M116.642,15.861c1.047,3.872-1.97,9.426-1.97,9.426h25.063l-0.263-0.771V-0.085l-34.286-0.372
					C105.188-0.457,113.009,2.437,116.642,15.861"/>
			</defs>
			<clipPath id="SVGID_20_">
				<use xlink:href="#SVGID_19_"  overflow="visible"/>
			</clipPath>
			<path clip-path="url(#SVGID_20_)" fill="#4A515B" d="M130.846,26.559c-0.086-0.009-0.145-0.111-0.133-0.229
				c0.013-0.117,0.092-0.205,0.177-0.195l2.239,0.235c0.086,0.008,0.146,0.11,0.133,0.228s-0.091,0.205-0.177,0.195L130.846,26.559"
				/>
		</g>
	</g>
	<g>
		<g>
			<defs>
				<path id="SVGID_21_" d="M116.642,15.861c1.047,3.872-1.97,9.426-1.97,9.426h25.063l-0.263-0.771V-0.085l-34.286-0.372
					C105.188-0.457,113.009,2.437,116.642,15.861"/>
			</defs>
			<clipPath id="SVGID_22_">
				<use xlink:href="#SVGID_21_"  overflow="visible"/>
			</clipPath>
			<path clip-path="url(#SVGID_22_)" fill="#4A515B" d="M130.174,19.308c-0.082,0.027-0.178-0.043-0.215-0.155
				c-0.036-0.111,0-0.225,0.082-0.251l2.144-0.695c0.082-0.027,0.176,0.043,0.212,0.153c0.037,0.113,0.001,0.226-0.081,0.251
				L130.174,19.308"/>
		</g>
	</g>
	<g>
		<g>
			<defs>
				<path id="SVGID_23_" d="M116.642,15.861c1.047,3.872-1.97,9.426-1.97,9.426h25.063l-0.263-0.771V-0.085l-34.286-0.372
					C105.188-0.457,113.009,2.437,116.642,15.861"/>
			</defs>
			<clipPath id="SVGID_24_">
				<use xlink:href="#SVGID_23_"  overflow="visible"/>
			</clipPath>
			<path clip-path="url(#SVGID_24_)" fill="#4A515B" d="M126.609,12.959c-0.062,0.058-0.18,0.032-0.258-0.056
				c-0.079-0.088-0.092-0.205-0.026-0.263l1.673-1.507c0.063-0.059,0.18-0.032,0.259,0.055c0.079,0.088,0.092,0.205,0.027,0.262
				L126.609,12.959"/>
		</g>
	</g>
	<g>
		<g>
			<defs>
				<path id="SVGID_25_" d="M116.642,15.861c1.047,3.872-1.97,9.426-1.97,9.426h25.063l-0.263-0.771V-0.085l-34.286-0.372
					C105.188-0.457,113.009,2.437,116.642,15.861"/>
			</defs>
			<clipPath id="SVGID_26_">
				<use xlink:href="#SVGID_25_"  overflow="visible"/>
			</clipPath>
			<path clip-path="url(#SVGID_26_)" fill="#4A515B" d="M120.771,8.607c-0.033,0.081-0.149,0.104-0.258,0.057
				c-0.106-0.05-0.168-0.151-0.133-0.229l0.917-2.06c0.034-0.078,0.151-0.103,0.258-0.055c0.107,0.049,0.167,0.15,0.132,0.229
				L120.771,8.607"/>
		</g>
	</g>
	<g>
		<g>
			<defs>
				<path id="SVGID_27_" d="M116.642,15.861c1.047,3.872-1.97,9.426-1.97,9.426h25.063l-0.263-0.771V-0.085l-34.286-0.372
					C105.188-0.457,113.009,2.437,116.642,15.861"/>
			</defs>
			<clipPath id="SVGID_28_">
				<use xlink:href="#SVGID_27_"  overflow="visible"/>
			</clipPath>
			<path clip-path="url(#SVGID_28_)" fill="#4A515B" d="M107.981,6.663c0.055,0.164-0.035,0.34-0.199,0.393
				c-0.165,0.053-0.342-0.036-0.395-0.2c-0.054-0.164,0.036-0.34,0.2-0.393C107.753,6.41,107.927,6.499,107.981,6.663"/>
		</g>
	</g>
	<g>
		<g>
			<defs>
				<path id="SVGID_29_" d="M116.642,15.861c1.047,3.872-1.97,9.426-1.97,9.426h25.063l-0.263-0.771V-0.085l-34.286-0.372
					C105.188-0.457,113.009,2.437,116.642,15.861"/>
			</defs>
			<clipPath id="SVGID_30_">
				<use xlink:href="#SVGID_29_"  overflow="visible"/>
			</clipPath>
			<path clip-path="url(#SVGID_30_)" fill="#4A515B" d="M104.388,8.191c0.087,0.148,0.035,0.34-0.114,0.426
				c-0.149,0.087-0.339,0.036-0.426-0.113c-0.087-0.148-0.035-0.34,0.113-0.427C104.111,7.991,104.303,8.041,104.388,8.191"/>
		</g>
	</g>
	<g>
		<g>
			<defs>
				<path id="SVGID_31_" d="M116.642,15.861c1.047,3.872-1.97,9.426-1.97,9.426h25.063l-0.263-0.771V-0.085l-34.286-0.372
					C105.188-0.457,113.009,2.437,116.642,15.861"/>
			</defs>
			<clipPath id="SVGID_32_">
				<use xlink:href="#SVGID_31_"  overflow="visible"/>
			</clipPath>
			<path clip-path="url(#SVGID_32_)" fill="#4A515B" d="M101.192,10.432c0.115,0.128,0.104,0.326-0.022,0.44
				c-0.128,0.115-0.325,0.104-0.441-0.023c-0.113-0.127-0.104-0.325,0.023-0.439C100.88,10.295,101.078,10.304,101.192,10.432"/>
		</g>
	</g>
	<g>
		<g>
			<defs>
				<path id="SVGID_33_" d="M116.642,15.861c1.047,3.872-1.97,9.426-1.97,9.426h25.063l-0.263-0.771V-0.085l-34.286-0.372
					C105.188-0.457,113.009,2.437,116.642,15.861"/>
			</defs>
			<clipPath id="SVGID_34_">
				<use xlink:href="#SVGID_33_"  overflow="visible"/>
			</clipPath>
			<path clip-path="url(#SVGID_34_)" fill="#4A515B" d="M98.533,13.29c0.14,0.102,0.171,0.298,0.068,0.436
				c-0.102,0.14-0.297,0.17-0.437,0.069c-0.141-0.102-0.17-0.296-0.069-0.436C98.198,13.219,98.391,13.189,98.533,13.29"/>
		</g>
	</g>
	<g>
		<g>
			<defs>
				<path id="SVGID_35_" d="M116.642,15.861c1.047,3.872-1.97,9.426-1.97,9.426h25.063l-0.263-0.771V-0.085l-34.286-0.372
					C105.188-0.457,113.009,2.437,116.642,15.861"/>
			</defs>
			<clipPath id="SVGID_36_">
				<use xlink:href="#SVGID_35_"  overflow="visible"/>
			</clipPath>
			<path clip-path="url(#SVGID_36_)" fill="#4A515B" d="M96.524,16.637c0.156,0.07,0.229,0.255,0.157,0.413
				c-0.069,0.158-0.255,0.228-0.411,0.158s-0.229-0.254-0.158-0.412C96.181,16.638,96.368,16.566,96.524,16.637"/>
		</g>
	</g>
	<g>
		<g>
			<defs>
				<path id="SVGID_37_" d="M116.642,15.861c1.047,3.872-1.97,9.426-1.97,9.426h25.063l-0.263-0.771V-0.085l-34.286-0.372
					C105.188-0.457,113.009,2.437,116.642,15.861"/>
			</defs>
			<clipPath id="SVGID_38_">
				<use xlink:href="#SVGID_37_"  overflow="visible"/>
			</clipPath>
			<path clip-path="url(#SVGID_38_)" fill="#4A515B" d="M95.256,20.33c0.169,0.035,0.277,0.201,0.241,0.37
				c-0.037,0.169-0.202,0.276-0.37,0.24s-0.276-0.201-0.24-0.37S95.088,20.295,95.256,20.33"/>
		</g>
	</g>
	<g>
		<g>
			<defs>
				<path id="SVGID_39_" d="M116.642,15.861c1.047,3.872-1.97,9.426-1.97,9.426h25.063l-0.263-0.771V-0.085l-34.286-0.372
					C105.188-0.457,113.009,2.437,116.642,15.861"/>
			</defs>
			<clipPath id="SVGID_40_">
				<use xlink:href="#SVGID_39_"  overflow="visible"/>
			</clipPath>
			<path clip-path="url(#SVGID_40_)" fill="#4A515B" d="M94.783,24.205c0.172,0,0.312,0.14,0.312,0.313
				c0,0.172-0.141,0.312-0.312,0.312s-0.312-0.141-0.312-0.312C94.47,24.344,94.611,24.205,94.783,24.205"/>
		</g>
	</g>
	<g>
		<g>
			<defs>
				<path id="SVGID_41_" d="M116.642,15.861c1.047,3.872-1.97,9.426-1.97,9.426h25.063l-0.263-0.771V-0.085l-34.286-0.372
					C105.188-0.457,113.009,2.437,116.642,15.861"/>
			</defs>
			<clipPath id="SVGID_42_">
				<use xlink:href="#SVGID_41_"  overflow="visible"/>
			</clipPath>
			<path clip-path="url(#SVGID_42_)" fill="#4A515B" d="M95.126,28.094c0.168-0.036,0.334,0.071,0.37,0.241
				c0.035,0.168-0.072,0.333-0.24,0.369c-0.169,0.034-0.334-0.071-0.37-0.24C94.848,28.295,94.959,28.131,95.126,28.094"/>
		</g>
	</g>
	<g>
		<g>
			<defs>
				<path id="SVGID_43_" d="M116.642,15.861c1.047,3.872-1.97,9.426-1.97,9.426h25.063l-0.263-0.771V-0.085l-34.286-0.372
					C105.188-0.457,113.009,2.437,116.642,15.861"/>
			</defs>
			<clipPath id="SVGID_44_">
				<use xlink:href="#SVGID_43_"  overflow="visible"/>
			</clipPath>
			<path clip-path="url(#SVGID_44_)" fill="#4A515B" d="M96.269,31.828c0.157-0.07,0.344,0,0.411,0.156
				c0.071,0.156,0,0.344-0.158,0.41c-0.154,0.07-0.341,0-0.41-0.156C96.041,32.08,96.113,31.895,96.269,31.828"/>
		</g>
	</g>
	<g>
		<g>
			<defs>
				<path id="SVGID_45_" d="M116.642,15.861c1.047,3.872-1.97,9.426-1.97,9.426h25.063l-0.263-0.771V-0.085l-34.286-0.372
					C105.188-0.457,113.009,2.437,116.642,15.861"/>
			</defs>
			<clipPath id="SVGID_46_">
				<use xlink:href="#SVGID_45_"  overflow="visible"/>
			</clipPath>
			<path clip-path="url(#SVGID_46_)" fill="#4A515B" d="M98.165,35.239c0.141-0.1,0.336-0.068,0.438,0.07
				c0.103,0.141,0.069,0.334-0.07,0.436s-0.334,0.07-0.436-0.068C97.994,35.537,98.024,35.342,98.165,35.239"/>
		</g>
	</g>
	<g>
		<g>
			<defs>
				<path id="SVGID_47_" d="M116.642,15.861c1.047,3.872-1.97,9.426-1.97,9.426h25.063l-0.263-0.771V-0.085l-34.286-0.372
					C105.188-0.457,113.009,2.437,116.642,15.861"/>
			</defs>
			<clipPath id="SVGID_48_">
				<use xlink:href="#SVGID_47_"  overflow="visible"/>
			</clipPath>
			<path clip-path="url(#SVGID_48_)" fill="#4A515B" d="M128.378,35.746c-0.139-0.104-0.17-0.299-0.067-0.438
				c0.103-0.141,0.295-0.172,0.435-0.07c0.141,0.104,0.171,0.297,0.069,0.438C128.712,35.815,128.516,35.846,128.378,35.746"/>
		</g>
	</g>
	<g>
		<g>
			<defs>
				<path id="SVGID_49_" d="M116.642,15.861c1.047,3.872-1.97,9.426-1.97,9.426h25.063l-0.263-0.771V-0.085l-34.286-0.372
					C105.188-0.457,113.009,2.437,116.642,15.861"/>
			</defs>
			<clipPath id="SVGID_50_">
				<use xlink:href="#SVGID_49_"  overflow="visible"/>
			</clipPath>
			<path clip-path="url(#SVGID_50_)" fill="#4A515B" d="M130.386,32.397c-0.158-0.068-0.229-0.256-0.159-0.412
				c0.072-0.16,0.254-0.229,0.412-0.156c0.157,0.066,0.229,0.252,0.158,0.41C130.726,32.395,130.544,32.469,130.386,32.397"/>
		</g>
	</g>
	<g>
		<g>
			<defs>
				<path id="SVGID_51_" d="M116.642,15.861c1.047,3.872-1.97,9.426-1.97,9.426h25.063l-0.263-0.771V-0.085l-34.286-0.372
					C105.188-0.457,113.009,2.437,116.642,15.861"/>
			</defs>
			<clipPath id="SVGID_52_">
				<use xlink:href="#SVGID_51_"  overflow="visible"/>
			</clipPath>
			<path clip-path="url(#SVGID_52_)" fill="#4A515B" d="M131.655,28.705c-0.168-0.035-0.276-0.201-0.239-0.369
				c0.035-0.17,0.2-0.277,0.369-0.24c0.168,0.035,0.274,0.201,0.239,0.37S131.823,28.741,131.655,28.705"/>
		</g>
	</g>
	<g>
		<g>
			<defs>
				<path id="SVGID_53_" d="M116.642,15.861c1.047,3.872-1.97,9.426-1.97,9.426h25.063l-0.263-0.771V-0.085l-34.286-0.372
					C105.188-0.457,113.009,2.437,116.642,15.861"/>
			</defs>
			<clipPath id="SVGID_54_">
				<use xlink:href="#SVGID_53_"  overflow="visible"/>
			</clipPath>
			<path clip-path="url(#SVGID_54_)" fill="#4A515B" d="M132.127,24.83c-0.172,0-0.312-0.142-0.312-0.313
				c0-0.173,0.141-0.312,0.312-0.312s0.312,0.139,0.312,0.312C132.439,24.691,132.298,24.83,132.127,24.83"/>
		</g>
	</g>
	<g>
		<g>
			<defs>
				<path id="SVGID_55_" d="M116.642,15.861c1.047,3.872-1.97,9.426-1.97,9.426h25.063l-0.263-0.771V-0.085l-34.286-0.372
					C105.188-0.457,113.009,2.437,116.642,15.861"/>
			</defs>
			<clipPath id="SVGID_56_">
				<use xlink:href="#SVGID_55_"  overflow="visible"/>
			</clipPath>
			<path clip-path="url(#SVGID_56_)" fill="#4A515B" d="M131.785,20.94c-0.169,0.035-0.335-0.073-0.369-0.24
				c-0.036-0.17,0.07-0.334,0.239-0.37c0.168-0.036,0.334,0.07,0.369,0.239C132.059,20.739,131.954,20.904,131.785,20.94"/>
		</g>
	</g>
	<g>
		<g>
			<defs>
				<path id="SVGID_57_" d="M116.642,15.861c1.047,3.872-1.97,9.426-1.97,9.426h25.063l-0.263-0.771V-0.085l-34.286-0.372
					C105.188-0.457,113.009,2.437,116.642,15.861"/>
			</defs>
			<clipPath id="SVGID_58_">
				<use xlink:href="#SVGID_57_"  overflow="visible"/>
			</clipPath>
			<path clip-path="url(#SVGID_58_)" fill="#4A515B" d="M130.64,17.209c-0.158,0.068-0.343-0.001-0.413-0.159
				c-0.069-0.159,0-0.341,0.159-0.411c0.156-0.071,0.341,0,0.411,0.158C130.869,16.955,130.797,17.138,130.64,17.209"/>
		</g>
	</g>
	<g>
		<g>
			<defs>
				<path id="SVGID_59_" d="M116.642,15.861c1.047,3.872-1.97,9.426-1.97,9.426h25.063l-0.263-0.771V-0.085l-34.286-0.372
					C105.188-0.457,113.009,2.437,116.642,15.861"/>
			</defs>
			<clipPath id="SVGID_60_">
				<use xlink:href="#SVGID_59_"  overflow="visible"/>
			</clipPath>
			<path clip-path="url(#SVGID_60_)" fill="#4A515B" d="M128.745,13.795c-0.14,0.1-0.335,0.069-0.436-0.069
				c-0.104-0.142-0.071-0.334,0.068-0.435c0.139-0.103,0.333-0.073,0.436,0.068C128.916,13.499,128.884,13.693,128.745,13.795"/>
		</g>
	</g>
	<g>
		<g>
			<defs>
				<path id="SVGID_61_" d="M116.642,15.861c1.047,3.872-1.97,9.426-1.97,9.426h25.063l-0.263-0.771V-0.085l-34.286-0.372
					C105.188-0.457,113.009,2.437,116.642,15.861"/>
			</defs>
			<clipPath id="SVGID_62_">
				<use xlink:href="#SVGID_61_"  overflow="visible"/>
			</clipPath>
			<path clip-path="url(#SVGID_62_)" fill="#4A515B" d="M126.18,10.849c-0.116,0.127-0.312,0.139-0.439,0.023
				c-0.129-0.117-0.14-0.312-0.023-0.439c0.114-0.129,0.312-0.139,0.44-0.023C126.287,10.525,126.297,10.722,126.18,10.849"/>
		</g>
	</g>
	<g>
		<g>
			<defs>
				<path id="SVGID_63_" d="M116.642,15.861c1.047,3.872-1.97,9.426-1.97,9.426h25.063l-0.263-0.771V-0.085l-34.286-0.372
					C105.188-0.457,113.009,2.437,116.642,15.861"/>
			</defs>
			<clipPath id="SVGID_64_">
				<use xlink:href="#SVGID_63_"  overflow="visible"/>
			</clipPath>
			<path clip-path="url(#SVGID_64_)" fill="#4A515B" d="M123.061,8.503c-0.087,0.147-0.277,0.201-0.427,0.112
				c-0.15-0.087-0.2-0.275-0.114-0.425c0.086-0.148,0.275-0.201,0.427-0.115C123.096,8.164,123.147,8.354,123.061,8.503"/>
		</g>
	</g>
	<g>
		<g>
			<defs>
				<path id="SVGID_65_" d="M116.642,15.861c1.047,3.872-1.97,9.426-1.97,9.426h25.063l-0.263-0.771V-0.085l-34.286-0.372
					C105.188-0.457,113.009,2.437,116.642,15.861"/>
			</defs>
			<clipPath id="SVGID_66_">
				<use xlink:href="#SVGID_65_"  overflow="visible"/>
			</clipPath>
			<path clip-path="url(#SVGID_66_)" fill="#4A515B" d="M119.522,6.855c-0.053,0.164-0.229,0.254-0.394,0.2
				c-0.166-0.054-0.254-0.228-0.2-0.392c0.053-0.164,0.229-0.254,0.394-0.2C119.487,6.515,119.576,6.691,119.522,6.855"/>
		</g>
	</g>
	<g>
		<g>
			<defs>
				<path id="SVGID_67_" d="M116.642,15.861c1.047,3.872-1.97,9.426-1.97,9.426h25.063l-0.263-0.771V-0.085l-34.286-0.372
					C105.188-0.457,113.009,2.437,116.642,15.861"/>
			</defs>
			<clipPath id="SVGID_68_">
				<use xlink:href="#SVGID_67_"  overflow="visible"/>
			</clipPath>
			<path clip-path="url(#SVGID_68_)" fill="#4A515B" d="M115.717,5.978c-0.02,0.171-0.172,0.298-0.343,0.278
				c-0.174-0.019-0.297-0.17-0.277-0.342c0.019-0.171,0.17-0.295,0.342-0.278C115.612,5.656,115.735,5.808,115.717,5.978"/>
		</g>
	</g>
	<g>
		<g>
			<defs>
				<path id="SVGID_69_" d="M116.642,15.861c1.047,3.872-1.97,9.426-1.97,9.426h25.063l-0.263-0.771V-0.085l-34.286-0.372
					C105.188-0.457,113.009,2.437,116.642,15.861"/>
			</defs>
			<clipPath id="SVGID_70_">
				<use xlink:href="#SVGID_69_"  overflow="visible"/>
			</clipPath>
			<path clip-path="url(#SVGID_70_)" fill="#4A515B" d="M110.188,7.67c0.021,0.104-0.074,0.212-0.218,0.242
				c-0.143,0.029-0.275-0.029-0.298-0.133l-0.577-2.715c-0.021-0.104,0.075-0.212,0.218-0.243c0.143-0.029,0.275,0.029,0.297,0.134
				L110.188,7.67"/>
		</g>
	</g>
	<g>
		<g>
			<defs>
				<path id="SVGID_71_" d="M116.642,15.861c1.047,3.872-1.97,9.426-1.97,9.426h25.063l-0.263-0.771V-0.085l-34.286-0.372
					C105.188-0.457,113.009,2.437,116.642,15.861"/>
			</defs>
			<clipPath id="SVGID_72_">
				<use xlink:href="#SVGID_71_"  overflow="visible"/>
			</clipPath>
			<path clip-path="url(#SVGID_72_)" fill="#4A515B" d="M103.706,10.436c0.062,0.086,0.017,0.225-0.101,0.311
				c-0.118,0.086-0.264,0.086-0.325,0l-1.634-2.246c-0.062-0.087-0.017-0.226,0.102-0.311c0.117-0.086,0.264-0.087,0.326,0
				L103.706,10.436"/>
		</g>
	</g>
	<g>
		<g>
			<defs>
				<path id="SVGID_73_" d="M116.642,15.861c1.047,3.872-1.97,9.426-1.97,9.426h25.063l-0.263-0.771V-0.085l-34.286-0.372
					C105.188-0.457,113.009,2.437,116.642,15.861"/>
			</defs>
			<clipPath id="SVGID_74_">
				<use xlink:href="#SVGID_73_"  overflow="visible"/>
			</clipPath>
			<path clip-path="url(#SVGID_74_)" fill="#4A515B" d="M98.908,15.6c0.093,0.054,0.105,0.198,0.034,0.324
				c-0.071,0.125-0.205,0.185-0.298,0.132l-2.403-1.389c-0.095-0.054-0.106-0.197-0.035-0.324c0.073-0.125,0.206-0.184,0.298-0.132
				L98.908,15.6z"/>
		</g>
	</g>
	<g>
		<g>
			<defs>
				<path id="SVGID_75_" d="M116.642,15.861c1.047,3.872-1.97,9.426-1.97,9.426h25.063l-0.263-0.771V-0.085l-34.286-0.372
					C105.188-0.457,113.009,2.437,116.642,15.861"/>
			</defs>
			<clipPath id="SVGID_76_">
				<use xlink:href="#SVGID_75_"  overflow="visible"/>
			</clipPath>
			<path clip-path="url(#SVGID_76_)" fill="#4A515B" d="M96.626,22.269c0.104,0.012,0.179,0.137,0.163,0.281
				c-0.016,0.146-0.112,0.253-0.217,0.242l-2.764-0.29c-0.104-0.013-0.178-0.138-0.163-0.282c0.017-0.146,0.113-0.253,0.22-0.241
				L96.626,22.269z"/>
		</g>
	</g>
	<g>
		<g>
			<defs>
				<path id="SVGID_77_" d="M116.642,15.861c1.047,3.872-1.97,9.426-1.97,9.426h25.063l-0.263-0.771V-0.085l-34.286-0.372
					C105.188-0.457,113.009,2.437,116.642,15.861"/>
			</defs>
			<clipPath id="SVGID_78_">
				<use xlink:href="#SVGID_77_"  overflow="visible"/>
			</clipPath>
			<path clip-path="url(#SVGID_78_)" fill="#4A515B" d="M97.254,29.291c0.101-0.031,0.219,0.053,0.264,0.19
				c0.045,0.139,0,0.277-0.101,0.31l-2.643,0.858c-0.1,0.031-0.218-0.053-0.263-0.19c-0.045-0.139,0-0.277,0.102-0.311
				L97.254,29.291z"/>
		</g>
	</g>
	<g>
		<g>
			<defs>
				<path id="SVGID_79_" d="M116.642,15.861c1.047,3.872-1.97,9.426-1.97,9.426h25.063l-0.263-0.771V-0.085l-34.286-0.372
					C105.188-0.457,113.009,2.437,116.642,15.861"/>
			</defs>
			<clipPath id="SVGID_80_">
				<use xlink:href="#SVGID_79_"  overflow="visible"/>
			</clipPath>
			<path clip-path="url(#SVGID_80_)" fill="#4A515B" d="M100.682,35.448c0.079-0.068,0.222-0.041,0.318,0.068
				c0.097,0.107,0.113,0.252,0.034,0.322l-2.063,1.859c-0.079,0.07-0.221,0.039-0.317-0.068c-0.099-0.107-0.113-0.254-0.034-0.322
				L100.682,35.448z"/>
		</g>
	</g>
	<g>
		<g>
			<defs>
				<path id="SVGID_81_" d="M116.642,15.861c1.047,3.872-1.97,9.426-1.97,9.426h25.063l-0.263-0.771V-0.085l-34.286-0.372
					C105.188-0.457,113.009,2.437,116.642,15.861"/>
			</defs>
			<clipPath id="SVGID_82_">
				<use xlink:href="#SVGID_81_"  overflow="visible"/>
			</clipPath>
			<path clip-path="url(#SVGID_82_)" fill="#4A515B" d="M125.876,35.842c-0.079-0.072-0.064-0.217,0.032-0.324
				c0.098-0.107,0.239-0.141,0.316-0.068l2.065,1.859c0.078,0.07,0.062,0.215-0.034,0.324c-0.098,0.105-0.24,0.137-0.317,0.064
				L125.876,35.842"/>
		</g>
	</g>
	<g>
		<g>
			<defs>
				<path id="SVGID_83_" d="M116.642,15.861c1.047,3.872-1.97,9.426-1.97,9.426h25.063l-0.263-0.771V-0.085l-34.286-0.372
					C105.188-0.457,113.009,2.437,116.642,15.861"/>
			</defs>
			<clipPath id="SVGID_84_">
				<use xlink:href="#SVGID_83_"  overflow="visible"/>
			</clipPath>
			<path clip-path="url(#SVGID_84_)" fill="#4A515B" d="M129.493,29.793c-0.102-0.034-0.146-0.171-0.102-0.312
				c0.045-0.138,0.162-0.225,0.264-0.188l2.641,0.855c0.101,0.032,0.146,0.171,0.102,0.311c-0.045,0.139-0.161,0.225-0.264,0.189
				L129.493,29.793"/>
		</g>
	</g>
	<g>
		<g>
			<defs>
				<path id="SVGID_85_" d="M116.642,15.861c1.047,3.872-1.97,9.426-1.97,9.426h25.063l-0.263-0.771V-0.085l-34.286-0.372
					C105.188-0.457,113.009,2.437,116.642,15.861"/>
			</defs>
			<clipPath id="SVGID_86_">
				<use xlink:href="#SVGID_85_"  overflow="visible"/>
			</clipPath>
			<path clip-path="url(#SVGID_86_)" fill="#4A515B" d="M130.34,22.794c-0.106,0.01-0.203-0.097-0.219-0.241
				c-0.018-0.146,0.057-0.273,0.162-0.282l2.763-0.292c0.104-0.009,0.201,0.097,0.217,0.243c0.017,0.145-0.058,0.272-0.162,0.281
				L130.34,22.794"/>
		</g>
	</g>
	<g>
		<g>
			<defs>
				<path id="SVGID_87_" d="M116.642,15.861c1.047,3.872-1.97,9.426-1.97,9.426h25.063l-0.263-0.771V-0.085l-34.286-0.372
					C105.188-0.457,113.009,2.437,116.642,15.861"/>
			</defs>
			<clipPath id="SVGID_88_">
				<use xlink:href="#SVGID_87_"  overflow="visible"/>
			</clipPath>
			<path clip-path="url(#SVGID_88_)" fill="#4A515B" d="M128.264,16.057c-0.093,0.052-0.225-0.006-0.298-0.132
				s-0.059-0.272,0.034-0.324l2.405-1.391c0.091-0.051,0.224,0.006,0.298,0.133c0.07,0.127,0.057,0.271-0.035,0.324L128.264,16.057"
				/>
		</g>
	</g>
	<g>
		<g>
			<defs>
				<path id="SVGID_89_" d="M116.642,15.861c1.047,3.872-1.97,9.426-1.97,9.426h25.063l-0.263-0.771V-0.085l-34.286-0.372
					C105.188-0.457,113.009,2.437,116.642,15.861"/>
			</defs>
			<clipPath id="SVGID_90_">
				<use xlink:href="#SVGID_89_"  overflow="visible"/>
			</clipPath>
			<path clip-path="url(#SVGID_90_)" fill="#4A515B" d="M123.631,10.745c-0.062,0.086-0.208,0.087-0.325,0.001
				c-0.119-0.084-0.164-0.225-0.101-0.31l1.632-2.249c0.062-0.084,0.207-0.086,0.325,0c0.117,0.086,0.163,0.226,0.1,0.312
				L123.631,10.745"/>
		</g>
	</g>
	<g>
		<g>
			<defs>
				<path id="SVGID_91_" d="M116.642,15.861c1.047,3.872-1.97,9.426-1.97,9.426h25.063l-0.263-0.771V-0.085l-34.286-0.372
					C105.188-0.457,113.009,2.437,116.642,15.861"/>
			</defs>
			<clipPath id="SVGID_92_">
				<use xlink:href="#SVGID_91_"  overflow="visible"/>
			</clipPath>
			<path clip-path="url(#SVGID_92_)" fill="#4A515B" d="M117.237,7.778c-0.023,0.104-0.155,0.163-0.298,0.134
				c-0.144-0.029-0.241-0.139-0.218-0.241l0.575-2.716c0.023-0.104,0.155-0.163,0.298-0.135c0.145,0.031,0.242,0.142,0.218,0.243
				L117.237,7.778"/>
		</g>
	</g>
	<g>
		<g>
			<defs>
				<path id="SVGID_93_" d="M116.642,15.861c1.047,3.872-1.97,9.426-1.97,9.426h25.063l-0.263-0.771V-0.085l-34.286-0.372
					C105.188-0.457,113.009,2.437,116.642,15.861"/>
			</defs>
			<clipPath id="SVGID_94_">
				<use xlink:href="#SVGID_93_"  overflow="visible"/>
			</clipPath>
			<path clip-path="url(#SVGID_94_)" fill="#4A515B" d="M102.695,34.606c0,0.662-0.244,1.025-0.675,1.025
				c-0.379,0-0.637-0.355-0.642-0.998c0-0.65,0.279-1.008,0.674-1.008C102.463,33.625,102.695,33.989,102.695,34.606
				 M101.641,34.639c0,0.504,0.154,0.791,0.396,0.791c0.269,0,0.396-0.314,0.396-0.809c0-0.48-0.122-0.793-0.393-0.793
				C101.808,33.828,101.641,34.108,101.641,34.639"/>
		</g>
	</g>
	<g>
		<g>
			<defs>
				<path id="SVGID_95_" d="M116.642,15.861c1.047,3.872-1.97,9.426-1.97,9.426h25.063l-0.263-0.771V-0.085l-34.286-0.372
					C105.188-0.457,113.009,2.437,116.642,15.861"/>
			</defs>
			<clipPath id="SVGID_96_">
				<use xlink:href="#SVGID_95_"  overflow="visible"/>
			</clipPath>
			<path clip-path="url(#SVGID_96_)" fill="#4A515B" d="M98.09,29.664v-0.16l0.206-0.201c0.495-0.473,0.721-0.723,0.723-1.014
				c0-0.198-0.096-0.382-0.385-0.382c-0.177,0-0.323,0.091-0.413,0.164l-0.083-0.185c0.135-0.114,0.324-0.196,0.55-0.196
				c0.418,0,0.596,0.286,0.596,0.563c0,0.357-0.262,0.646-0.67,1.042l-0.155,0.143v0.007h0.872v0.219H98.09L98.09,29.664z"/>
		</g>
	</g>
	<g>
		<g>
			<defs>
				<path id="SVGID_97_" d="M116.642,15.861c1.047,3.872-1.97,9.426-1.97,9.426h25.063l-0.263-0.771V-0.085l-34.286-0.372
					C105.188-0.457,113.009,2.437,116.642,15.861"/>
			</defs>
			<clipPath id="SVGID_98_">
				<use xlink:href="#SVGID_97_"  overflow="visible"/>
			</clipPath>
			<path clip-path="url(#SVGID_98_)" fill="#4A515B" d="M100.913,28.673c0,0.66-0.243,1.023-0.674,1.023
				c-0.381,0-0.637-0.355-0.645-0.998c0-0.649,0.281-1.01,0.676-1.01C100.679,27.688,100.913,28.054,100.913,28.673 M99.858,28.703
				c0,0.504,0.155,0.791,0.396,0.791c0.269,0,0.396-0.314,0.396-0.811c0-0.478-0.121-0.792-0.394-0.792
				C100.025,27.891,99.858,28.174,99.858,28.703"/>
		</g>
	</g>
	<g>
		<g>
			<defs>
				<path id="SVGID_99_" d="M116.642,15.861c1.047,3.872-1.97,9.426-1.97,9.426h25.063l-0.263-0.771V-0.085l-34.286-0.372
					C105.188-0.457,113.009,2.437,116.642,15.861"/>
			</defs>
			<clipPath id="SVGID_100_">
				<use xlink:href="#SVGID_99_"  overflow="visible"/>
			</clipPath>
			<path clip-path="url(#SVGID_100_)" fill="#4A515B" d="M97.969,24.01V23.48h-0.901v-0.172l0.866-1.24h0.283v1.207h0.271v0.206
				h-0.271v0.529L97.969,24.01L97.969,24.01z M97.969,23.274v-0.647c0-0.103,0.004-0.202,0.009-0.306h-0.009
				c-0.06,0.113-0.106,0.198-0.16,0.287l-0.475,0.66v0.005L97.969,23.274L97.969,23.274z"/>
		</g>
	</g>
	<g>
		<g>
			<defs>
				<path id="SVGID_101_" d="M116.642,15.861c1.047,3.872-1.97,9.426-1.97,9.426h25.063l-0.263-0.771V-0.085l-34.286-0.372
					C105.188-0.457,113.009,2.437,116.642,15.861"/>
			</defs>
			<clipPath id="SVGID_102_">
				<use xlink:href="#SVGID_101_"  overflow="visible"/>
			</clipPath>
			<path clip-path="url(#SVGID_102_)" fill="#4A515B" d="M99.98,23.017c0,0.661-0.245,1.025-0.675,1.025
				c-0.379,0-0.637-0.355-0.644-0.998c0-0.65,0.281-1.009,0.676-1.009C99.748,22.036,99.98,22.399,99.98,23.017 M98.927,23.049
				c0,0.504,0.155,0.792,0.395,0.792c0.269,0,0.396-0.313,0.396-0.811c0-0.478-0.123-0.792-0.395-0.792
				C99.093,22.238,98.927,22.519,98.927,23.049"/>
		</g>
	</g>
	<g>
		<g>
			<defs>
				<path id="SVGID_103_" d="M116.642,15.861c1.047,3.872-1.97,9.426-1.97,9.426h25.063l-0.263-0.771V-0.085l-34.286-0.372
					C105.188-0.457,113.009,2.437,116.642,15.861"/>
			</defs>
			<clipPath id="SVGID_104_">
				<use xlink:href="#SVGID_103_"  overflow="visible"/>
			</clipPath>
			<path clip-path="url(#SVGID_104_)" fill="#4A515B" d="M100.102,16.31c-0.054-0.003-0.122,0-0.195,0.012
				c-0.413,0.069-0.632,0.371-0.677,0.69h0.01c0.093-0.123,0.254-0.224,0.469-0.224c0.344,0,0.586,0.248,0.586,0.626
				c0,0.354-0.242,0.685-0.646,0.685c-0.414,0-0.687-0.323-0.687-0.828c0-0.382,0.138-0.683,0.328-0.875
				c0.161-0.158,0.377-0.256,0.621-0.287c0.078-0.012,0.144-0.014,0.19-0.014L100.102,16.31L100.102,16.31z M99.651,17.895
				c0.226,0,0.377-0.188,0.377-0.466c0-0.279-0.157-0.446-0.399-0.446c-0.158,0-0.305,0.1-0.377,0.24
				c-0.018,0.029-0.03,0.068-0.03,0.115c0.007,0.319,0.153,0.556,0.428,0.556L99.651,17.895L99.651,17.895z"/>
		</g>
	</g>
	<g>
		<g>
			<defs>
				<path id="SVGID_105_" d="M116.642,15.861c1.047,3.872-1.97,9.426-1.97,9.426h25.063l-0.263-0.771V-0.085l-34.286-0.372
					C105.188-0.457,113.009,2.437,116.642,15.861"/>
			</defs>
			<clipPath id="SVGID_106_">
				<use xlink:href="#SVGID_105_"  overflow="visible"/>
			</clipPath>
			<path clip-path="url(#SVGID_106_)" fill="#4A515B" d="M101.817,17.074c0,0.66-0.244,1.024-0.675,1.024
				c-0.38,0-0.637-0.354-0.642-0.997c0-0.651,0.28-1.009,0.675-1.009C101.584,16.093,101.817,16.457,101.817,17.074 M100.762,17.104
				c0,0.505,0.156,0.792,0.396,0.792c0.27,0,0.396-0.313,0.396-0.809c0-0.479-0.123-0.792-0.395-0.792
				C100.929,16.295,100.762,16.575,100.762,17.104"/>
		</g>
	</g>
	<g>
		<g>
			<defs>
				<path id="SVGID_107_" d="M116.642,15.861c1.047,3.872-1.97,9.426-1.97,9.426h25.063l-0.263-0.771V-0.085l-34.286-0.372
					C105.188-0.457,113.009,2.437,116.642,15.861"/>
			</defs>
			<clipPath id="SVGID_108_">
				<use xlink:href="#SVGID_107_"  overflow="visible"/>
			</clipPath>
			<path clip-path="url(#SVGID_108_)" fill="#4A515B" d="M103.492,12.459c-0.216-0.103-0.309-0.269-0.309-0.437
				c0-0.308,0.26-0.517,0.602-0.517c0.376,0,0.563,0.235,0.563,0.478c0,0.164-0.08,0.341-0.319,0.454v0.009
				c0.241,0.096,0.391,0.267,0.391,0.502c0,0.338-0.288,0.564-0.659,0.564c-0.406,0-0.649-0.242-0.649-0.525
				c0-0.246,0.146-0.419,0.385-0.52L103.492,12.459z M104.155,12.976c0-0.237-0.165-0.35-0.428-0.425
				c-0.227,0.065-0.35,0.216-0.35,0.4c-0.009,0.197,0.141,0.37,0.389,0.37C104.003,13.322,104.155,13.173,104.155,12.976
				 M103.431,12.006c0,0.193,0.146,0.298,0.37,0.357c0.168-0.057,0.296-0.176,0.296-0.353c0-0.155-0.093-0.315-0.328-0.315
				C103.551,11.695,103.431,11.838,103.431,12.006"/>
		</g>
	</g>
	<g>
		<g>
			<defs>
				<path id="SVGID_109_" d="M116.642,15.861c1.047,3.872-1.97,9.426-1.97,9.426h25.063l-0.263-0.771V-0.085l-34.286-0.372
					C105.188-0.457,113.009,2.437,116.642,15.861"/>
			</defs>
			<clipPath id="SVGID_110_">
				<use xlink:href="#SVGID_109_"  overflow="visible"/>
			</clipPath>
			<path clip-path="url(#SVGID_110_)" fill="#4A515B" d="M105.957,12.489c0,0.659-0.244,1.023-0.675,1.023
				c-0.378,0-0.637-0.355-0.643-0.998c0-0.65,0.279-1.009,0.674-1.009C105.723,11.507,105.957,11.871,105.957,12.489
				 M104.904,12.519c0,0.504,0.152,0.791,0.393,0.791c0.271,0,0.396-0.312,0.396-0.809c0-0.479-0.121-0.792-0.394-0.792
				C105.07,11.709,104.904,11.99,104.904,12.519"/>
		</g>
	</g>
	<g>
		<g>
			<defs>
				<path id="SVGID_111_" d="M116.642,15.861c1.047,3.872-1.97,9.426-1.97,9.426h25.063l-0.263-0.771V-0.085l-34.286-0.372
					C105.188-0.457,113.009,2.437,116.642,15.861"/>
			</defs>
			<clipPath id="SVGID_112_">
				<use xlink:href="#SVGID_111_"  overflow="visible"/>
			</clipPath>
			<polygon clip-path="url(#SVGID_112_)" fill="#4A515B" points="108.478,9.094 108.473,9.094 108.135,9.275 108.085,9.075 
				108.509,8.848 108.731,8.848 108.731,10.791 108.478,10.791 			"/>
		</g>
	</g>
	<g>
		<g>
			<defs>
				<path id="SVGID_113_" d="M116.642,15.861c1.047,3.872-1.97,9.426-1.97,9.426h25.063l-0.263-0.771V-0.085l-34.286-0.372
					C105.188-0.457,113.009,2.437,116.642,15.861"/>
			</defs>
			<clipPath id="SVGID_114_">
				<use xlink:href="#SVGID_113_"  overflow="visible"/>
			</clipPath>
			<path clip-path="url(#SVGID_114_)" fill="#4A515B" d="M110.73,9.799c0,0.66-0.245,1.023-0.675,1.023
				c-0.379,0-0.636-0.354-0.642-0.997c0-0.651,0.278-1.01,0.674-1.01C110.498,8.815,110.73,9.179,110.73,9.799 M109.677,9.828
				c0,0.504,0.154,0.791,0.396,0.791c0.269,0,0.396-0.314,0.396-0.81c0-0.478-0.124-0.792-0.395-0.792
				C109.844,9.017,109.677,9.3,109.677,9.828"/>
		</g>
	</g>
	<g>
		<g>
			<defs>
				<path id="SVGID_115_" d="M116.642,15.861c1.047,3.872-1.97,9.426-1.97,9.426h25.063l-0.263-0.771V-0.085l-34.286-0.372
					C105.188-0.457,113.009,2.437,116.642,15.861"/>
			</defs>
			<clipPath id="SVGID_116_">
				<use xlink:href="#SVGID_115_"  overflow="visible"/>
			</clipPath>
			<path clip-path="url(#SVGID_116_)" fill="#4A515B" d="M112.262,9.799c0,0.66-0.245,1.023-0.675,1.023
				c-0.379,0-0.636-0.354-0.643-0.997c0-0.651,0.28-1.01,0.676-1.01C112.03,8.815,112.262,9.179,112.262,9.799 M111.21,9.828
				c0,0.504,0.154,0.791,0.395,0.791c0.27,0,0.396-0.314,0.396-0.81c0-0.478-0.122-0.792-0.395-0.792
				C111.377,9.017,111.21,9.3,111.21,9.828"/>
		</g>
	</g>
	<g>
		<g>
			<defs>
				<path id="SVGID_117_" d="M116.642,15.861c1.047,3.872-1.97,9.426-1.97,9.426h25.063l-0.263-0.771V-0.085l-34.286-0.372
					C105.188-0.457,113.009,2.437,116.642,15.861"/>
			</defs>
			<clipPath id="SVGID_118_">
				<use xlink:href="#SVGID_117_"  overflow="visible"/>
			</clipPath>
			<polygon clip-path="url(#SVGID_118_)" fill="#4A515B" points="114.927,9.094 114.923,9.094 114.586,9.275 114.535,9.075 
				114.959,8.848 115.181,8.848 115.181,10.791 114.927,10.791 			"/>
		</g>
	</g>
	<g>
		<g>
			<defs>
				<path id="SVGID_119_" d="M116.642,15.861c1.047,3.872-1.97,9.426-1.97,9.426h25.063l-0.263-0.771V-0.085l-34.286-0.372
					C105.188-0.457,113.009,2.437,116.642,15.861"/>
			</defs>
			<clipPath id="SVGID_120_">
				<use xlink:href="#SVGID_119_"  overflow="visible"/>
			</clipPath>
			<path clip-path="url(#SVGID_120_)" fill="#4A515B" d="M115.89,10.79v-0.161l0.205-0.2c0.496-0.472,0.721-0.723,0.725-1.016
				c0-0.197-0.097-0.38-0.386-0.38c-0.177,0-0.322,0.091-0.413,0.164l-0.083-0.185c0.136-0.113,0.324-0.198,0.551-0.198
				c0.418,0,0.594,0.288,0.594,0.565c0,0.357-0.26,0.647-0.668,1.043l-0.156,0.143v0.006h0.872v0.218L115.89,10.79"/>
		</g>
	</g>
	<g>
		<g>
			<defs>
				<path id="SVGID_121_" d="M116.642,15.861c1.047,3.872-1.97,9.426-1.97,9.426h25.063l-0.263-0.771V-0.085l-34.286-0.372
					C105.188-0.457,113.009,2.437,116.642,15.861"/>
			</defs>
			<clipPath id="SVGID_122_">
				<use xlink:href="#SVGID_121_"  overflow="visible"/>
			</clipPath>
			<path clip-path="url(#SVGID_122_)" fill="#4A515B" d="M118.713,9.799c0,0.661-0.243,1.023-0.673,1.023
				c-0.381,0-0.637-0.354-0.645-0.997c0-0.651,0.281-1.01,0.677-1.01C118.479,8.815,118.713,9.179,118.713,9.799 M117.659,9.828
				c0,0.504,0.154,0.791,0.395,0.791c0.27,0,0.397-0.313,0.397-0.81c0-0.478-0.123-0.791-0.396-0.791
				C117.826,9.019,117.659,9.3,117.659,9.828"/>
		</g>
	</g>
	<g>
		<g>
			<defs>
				<path id="SVGID_123_" d="M116.642,15.861c1.047,3.872-1.97,9.426-1.97,9.426h25.063l-0.263-0.771V-0.085l-34.286-0.372
					C105.188-0.457,113.009,2.437,116.642,15.861"/>
			</defs>
			<clipPath id="SVGID_124_">
				<use xlink:href="#SVGID_123_"  overflow="visible"/>
			</clipPath>
			<polygon clip-path="url(#SVGID_124_)" fill="#4A515B" points="120.76,11.785 120.756,11.785 120.418,11.967 120.367,11.766 
				120.791,11.54 121.014,11.54 121.014,13.48 120.76,13.48 			"/>
		</g>
	</g>
	<g>
		<g>
			<defs>
				<path id="SVGID_125_" d="M116.642,15.861c1.047,3.872-1.97,9.426-1.97,9.426h25.063l-0.263-0.771V-0.085l-34.286-0.372
					C105.188-0.457,113.009,2.437,116.642,15.861"/>
			</defs>
			<clipPath id="SVGID_126_">
				<use xlink:href="#SVGID_125_"  overflow="visible"/>
			</clipPath>
			<path clip-path="url(#SVGID_126_)" fill="#4A515B" d="M122.537,13.48v-0.528h-0.902v-0.173l0.866-1.239h0.284v1.207h0.271v0.205
				h-0.271v0.528H122.537 M122.537,12.746v-0.648c0-0.102,0.003-0.202,0.008-0.304h-0.008c-0.062,0.111-0.108,0.196-0.162,0.286
				l-0.476,0.659v0.007H122.537"/>
		</g>
	</g>
	<g>
		<g>
			<defs>
				<path id="SVGID_127_" d="M116.642,15.861c1.047,3.872-1.97,9.426-1.97,9.426h25.063l-0.263-0.771V-0.085l-34.286-0.372
					C105.188-0.457,113.009,2.437,116.642,15.861"/>
			</defs>
			<clipPath id="SVGID_128_">
				<use xlink:href="#SVGID_127_"  overflow="visible"/>
			</clipPath>
			<path clip-path="url(#SVGID_128_)" fill="#4A515B" d="M124.547,12.489c0,0.659-0.245,1.023-0.675,1.023
				c-0.38,0-0.637-0.355-0.645-0.998c0-0.65,0.282-1.009,0.677-1.009C124.312,11.507,124.547,11.871,124.547,12.489 M123.492,12.519
				c0,0.504,0.154,0.791,0.395,0.791c0.27,0,0.396-0.312,0.396-0.809c0-0.479-0.122-0.792-0.396-0.792
				C123.659,11.709,123.492,11.99,123.492,12.519"/>
		</g>
	</g>
	<g>
		<g>
			<defs>
				<path id="SVGID_129_" d="M116.642,15.861c1.047,3.872-1.97,9.426-1.97,9.426h25.063l-0.263-0.771V-0.085l-34.286-0.372
					C105.188-0.457,113.009,2.437,116.642,15.861"/>
			</defs>
			<clipPath id="SVGID_130_">
				<use xlink:href="#SVGID_129_"  overflow="visible"/>
			</clipPath>
			<polygon clip-path="url(#SVGID_130_)" fill="#4A515B" points="123.749,16.37 123.744,16.37 123.407,16.552 123.353,16.352 
				123.779,16.126 124.004,16.126 124.004,18.066 123.749,18.066 			"/>
		</g>
	</g>
	<g>
		<g>
			<defs>
				<path id="SVGID_131_" d="M116.642,15.861c1.047,3.872-1.97,9.426-1.97,9.426h25.063l-0.263-0.771V-0.085l-34.286-0.372
					C105.188-0.457,113.009,2.437,116.642,15.861"/>
			</defs>
			<clipPath id="SVGID_132_">
				<use xlink:href="#SVGID_131_"  overflow="visible"/>
			</clipPath>
			<path clip-path="url(#SVGID_132_)" fill="#4A515B" d="M125.818,16.31c-0.054-0.003-0.121,0-0.196,0.012
				c-0.411,0.069-0.63,0.371-0.675,0.69h0.009c0.093-0.123,0.255-0.224,0.469-0.224c0.344,0,0.585,0.248,0.585,0.626
				c0,0.354-0.241,0.685-0.645,0.685c-0.414,0-0.688-0.323-0.688-0.828c0-0.382,0.138-0.683,0.329-0.875
				c0.161-0.158,0.376-0.256,0.62-0.287c0.077-0.012,0.144-0.014,0.19-0.014L125.818,16.31 M125.369,17.895
				c0.223,0,0.376-0.188,0.376-0.466c0-0.279-0.158-0.446-0.4-0.446c-0.159,0-0.305,0.1-0.376,0.24
				c-0.018,0.029-0.03,0.068-0.03,0.115c0.008,0.319,0.152,0.556,0.428,0.556L125.369,17.895"/>
		</g>
	</g>
	<g>
		<g>
			<defs>
				<path id="SVGID_133_" d="M116.642,15.861c1.047,3.872-1.97,9.426-1.97,9.426h25.063l-0.263-0.771V-0.085l-34.286-0.372
					C105.188-0.457,113.009,2.437,116.642,15.861"/>
			</defs>
			<clipPath id="SVGID_134_">
				<use xlink:href="#SVGID_133_"  overflow="visible"/>
			</clipPath>
			<path clip-path="url(#SVGID_134_)" fill="#4A515B" d="M127.535,17.074c0,0.66-0.245,1.024-0.677,1.024
				c-0.379,0-0.636-0.354-0.643-0.997c0-0.651,0.281-1.009,0.676-1.009C127.302,16.093,127.535,16.457,127.535,17.074
				 M126.479,17.104c0,0.505,0.156,0.792,0.396,0.792c0.269,0,0.396-0.313,0.396-0.809c0-0.479-0.122-0.792-0.395-0.792
				C126.646,16.295,126.479,16.575,126.479,17.104"/>
		</g>
	</g>
	<g>
		<g>
			<defs>
				<path id="SVGID_135_" d="M116.642,15.861c1.047,3.872-1.97,9.426-1.97,9.426h25.063l-0.263-0.771V-0.085l-34.286-0.372
					C105.188-0.457,113.009,2.437,116.642,15.861"/>
			</defs>
			<clipPath id="SVGID_136_">
				<use xlink:href="#SVGID_135_"  overflow="visible"/>
			</clipPath>
			<polygon clip-path="url(#SVGID_136_)" fill="#4A515B" points="125.885,22.312 125.881,22.312 125.542,22.496 125.491,22.296 
				125.916,22.068 126.138,22.068 126.138,24.01 125.885,24.01 			"/>
		</g>
	</g>
	<g>
		<g>
			<defs>
				<path id="SVGID_137_" d="M116.642,15.861c1.047,3.872-1.97,9.426-1.97,9.426h25.063l-0.263-0.771V-0.085l-34.286-0.372
					C105.188-0.457,113.009,2.437,116.642,15.861"/>
			</defs>
			<clipPath id="SVGID_138_">
				<use xlink:href="#SVGID_137_"  overflow="visible"/>
			</clipPath>
			<path clip-path="url(#SVGID_138_)" fill="#4A515B" d="M127.207,22.988c-0.216-0.102-0.31-0.269-0.31-0.436
				c0-0.308,0.261-0.517,0.601-0.517c0.378,0,0.564,0.235,0.564,0.478c0,0.164-0.081,0.341-0.318,0.454v0.009
				c0.242,0.095,0.391,0.266,0.391,0.501c0,0.337-0.289,0.565-0.659,0.565c-0.405,0-0.65-0.242-0.65-0.526
				c0-0.246,0.146-0.418,0.385-0.52L127.207,22.988 M127.869,23.506c0-0.236-0.164-0.35-0.428-0.424
				c-0.228,0.064-0.35,0.216-0.35,0.399c-0.009,0.198,0.14,0.371,0.389,0.371C127.716,23.851,127.869,23.703,127.869,23.506
				 M127.145,22.536c0,0.193,0.146,0.298,0.371,0.357c0.167-0.057,0.296-0.177,0.296-0.353c0-0.155-0.093-0.316-0.329-0.316
				C127.264,22.224,127.145,22.367,127.145,22.536"/>
		</g>
	</g>
	<g>
		<g>
			<defs>
				<path id="SVGID_139_" d="M116.642,15.861c1.047,3.872-1.97,9.426-1.97,9.426h25.063l-0.263-0.771V-0.085l-34.286-0.372
					C105.188-0.457,113.009,2.437,116.642,15.861"/>
			</defs>
			<clipPath id="SVGID_140_">
				<use xlink:href="#SVGID_139_"  overflow="visible"/>
			</clipPath>
			<path clip-path="url(#SVGID_140_)" fill="#4A515B" d="M129.67,23.017c0,0.661-0.245,1.025-0.675,1.025
				c-0.379,0-0.637-0.355-0.643-0.998c0-0.65,0.281-1.009,0.676-1.009C129.436,22.036,129.67,22.399,129.67,23.017 M128.616,23.049
				c0,0.504,0.154,0.792,0.395,0.792c0.27,0,0.397-0.313,0.397-0.811c0-0.478-0.123-0.792-0.396-0.792
				C128.783,22.238,128.616,22.519,128.616,23.049"/>
		</g>
	</g>
	<g>
		<g>
			<defs>
				<path id="SVGID_141_" d="M116.642,15.861c1.047,3.872-1.97,9.426-1.97,9.426h25.063l-0.263-0.771V-0.085l-34.286-0.372
					C105.188-0.457,113.009,2.437,116.642,15.861"/>
			</defs>
			<clipPath id="SVGID_142_">
				<use xlink:href="#SVGID_141_"  overflow="visible"/>
			</clipPath>
			<path clip-path="url(#SVGID_142_)" fill="#4A515B" d="M124.879,29.664v-0.16l0.205-0.201c0.496-0.473,0.72-0.723,0.723-1.014
				c0-0.198-0.095-0.382-0.386-0.382c-0.176,0-0.322,0.091-0.411,0.164l-0.084-0.185c0.135-0.114,0.326-0.196,0.55-0.196
				c0.417,0,0.596,0.286,0.596,0.563c0,0.357-0.262,0.646-0.671,1.042l-0.154,0.143v0.007h0.872v0.219H124.879"/>
		</g>
	</g>
	<g>
		<g>
			<defs>
				<path id="SVGID_143_" d="M116.642,15.861c1.047,3.872-1.97,9.426-1.97,9.426h25.063l-0.263-0.771V-0.085l-34.286-0.372
					C105.188-0.457,113.009,2.437,116.642,15.861"/>
			</defs>
			<clipPath id="SVGID_144_">
				<use xlink:href="#SVGID_143_"  overflow="visible"/>
			</clipPath>
			<path clip-path="url(#SVGID_144_)" fill="#4A515B" d="M127.701,28.673c0,0.66-0.246,1.023-0.677,1.023
				c-0.379,0-0.637-0.355-0.642-0.998c0-0.649,0.28-1.01,0.676-1.01C127.467,27.688,127.701,28.054,127.701,28.673 M126.645,28.703
				c0,0.504,0.156,0.791,0.396,0.791c0.269,0,0.396-0.314,0.396-0.811c0-0.478-0.123-0.792-0.394-0.792
				C126.813,27.891,126.645,28.174,126.645,28.703"/>
		</g>
	</g>
	<g>
		<g>
			<defs>
				<path id="SVGID_145_" d="M116.642,15.861c1.047,3.872-1.97,9.426-1.97,9.426h25.063l-0.263-0.771V-0.085l-34.286-0.372
					C105.188-0.457,113.009,2.437,116.642,15.861"/>
			</defs>
			<clipPath id="SVGID_146_">
				<use xlink:href="#SVGID_145_"  overflow="visible"/>
			</clipPath>
			<path clip-path="url(#SVGID_146_)" fill="#4A515B" d="M129.231,28.673c0,0.66-0.243,1.023-0.675,1.023
				c-0.379,0-0.636-0.355-0.642-0.998c0-0.649,0.281-1.01,0.675-1.01C128.999,27.688,129.231,28.054,129.231,28.673 M128.177,28.703
				c0,0.504,0.154,0.791,0.396,0.791c0.269,0,0.396-0.314,0.396-0.811c0-0.478-0.123-0.792-0.395-0.792
				C128.344,27.891,128.177,28.174,128.177,28.703"/>
		</g>
	</g>
	<g>
		<g>
			<defs>
				<path id="SVGID_147_" d="M116.642,15.861c1.047,3.872-1.97,9.426-1.97,9.426h25.063l-0.263-0.771V-0.085l-34.286-0.372
					C105.188-0.457,113.009,2.437,116.642,15.861"/>
			</defs>
			<clipPath id="SVGID_148_">
				<use xlink:href="#SVGID_147_"  overflow="visible"/>
			</clipPath>
			<path clip-path="url(#SVGID_148_)" fill="#4A515B" d="M121.186,35.598v-0.16l0.206-0.201c0.496-0.471,0.722-0.723,0.724-1.014
				c0-0.199-0.096-0.381-0.386-0.381c-0.177,0-0.322,0.09-0.412,0.164l-0.082-0.184c0.134-0.115,0.323-0.197,0.549-0.197
				c0.419,0,0.594,0.285,0.594,0.564c0,0.357-0.26,0.646-0.669,1.041l-0.155,0.143v0.006h0.872v0.219H121.186z"/>
		</g>
	</g>
	<g>
		<g>
			<defs>
				<path id="SVGID_149_" d="M116.642,15.861c1.047,3.872-1.97,9.426-1.97,9.426h25.063l-0.263-0.771V-0.085l-34.286-0.372
					C105.188-0.457,113.009,2.437,116.642,15.861"/>
			</defs>
			<clipPath id="SVGID_150_">
				<use xlink:href="#SVGID_149_"  overflow="visible"/>
			</clipPath>
			<path clip-path="url(#SVGID_150_)" fill="#4A515B" d="M122.719,35.598v-0.16l0.205-0.201c0.496-0.471,0.721-0.723,0.724-1.014
				c0-0.199-0.097-0.381-0.386-0.381c-0.176,0-0.322,0.09-0.412,0.164l-0.084-0.184c0.137-0.115,0.325-0.197,0.551-0.197
				c0.418,0,0.595,0.285,0.595,0.564c0,0.357-0.262,0.646-0.669,1.041l-0.155,0.143v0.006h0.871v0.219H122.719z"/>
		</g>
	</g>
	<g>
		<g>
			<defs>
				<path id="SVGID_151_" d="M116.642,15.861c1.047,3.872-1.97,9.426-1.97,9.426h25.063l-0.263-0.771V-0.085l-34.286-0.372
					C105.188-0.457,113.009,2.437,116.642,15.861"/>
			</defs>
			<clipPath id="SVGID_152_">
				<use xlink:href="#SVGID_151_"  overflow="visible"/>
			</clipPath>
			<path clip-path="url(#SVGID_152_)" fill="#4A515B" d="M125.543,34.608c0,0.66-0.245,1.023-0.675,1.023
				c-0.38,0-0.638-0.355-0.645-0.998c0-0.65,0.281-1.008,0.676-1.008C125.308,33.625,125.543,33.989,125.543,34.608 M124.488,34.639
				c0,0.504,0.154,0.791,0.396,0.791c0.268,0,0.396-0.314,0.396-0.809c0-0.48-0.122-0.793-0.395-0.793
				C124.655,33.828,124.488,34.108,124.488,34.639"/>
		</g>
	</g>
	<g>
		<g>
			<defs>
				<path id="SVGID_153_" d="M116.642,15.861c1.047,3.872-1.97,9.426-1.97,9.426h25.063l-0.263-0.771V-0.085l-34.286-0.372
					C105.188-0.457,113.009,2.437,116.642,15.861"/>
			</defs>
			<clipPath id="SVGID_154_">
				<use xlink:href="#SVGID_153_"  overflow="visible"/>
			</clipPath>
			<path clip-path="url(#SVGID_154_)" fill="#4A515B" d="M113.455,4.599c-0.117,0-0.212,0.07-0.212,0.156v2.252
				c0,0.086,0.095,0.155,0.212,0.155c0.119,0,0.215-0.069,0.215-0.155V4.756C113.67,4.67,113.574,4.599,113.455,4.599"/>
		</g>
	</g>
	<g>
		<g>
			<defs>
				<path id="SVGID_155_" d="M116.642,15.861c1.047,3.872-1.97,9.426-1.97,9.426h25.063l-0.263-0.771V-0.085l-34.286-0.372
					C105.188-0.457,113.009,2.437,116.642,15.861"/>
			</defs>
			<clipPath id="SVGID_156_">
				<use xlink:href="#SVGID_155_"  overflow="visible"/>
			</clipPath>
			<path clip-path="url(#SVGID_156_)" fill="#4A515B" d="M105.465,6.298c-0.035,0-0.074,0.008-0.111,0.024
				c-0.105,0.048-0.167,0.149-0.132,0.229l0.917,2.058c0.022,0.054,0.08,0.081,0.146,0.081c0.036,0,0.073-0.008,0.11-0.023
				c0.108-0.05,0.167-0.152,0.133-0.229l-0.916-2.059C105.589,6.325,105.531,6.298,105.465,6.298"/>
		</g>
	</g>
	<g>
		<g>
			<defs>
				<path id="SVGID_157_" d="M116.642,15.861c1.047,3.872-1.97,9.426-1.97,9.426h25.063l-0.263-0.771V-0.085l-34.286-0.372
					C105.188-0.457,113.009,2.437,116.642,15.861"/>
			</defs>
			<clipPath id="SVGID_158_">
				<use xlink:href="#SVGID_157_"  overflow="visible"/>
			</clipPath>
			<path clip-path="url(#SVGID_158_)" fill="#4A515B" d="M128.666,33.071c-0.064,0-0.137,0.049-0.182,0.123
				c-0.06,0.104-0.047,0.221,0.028,0.264l1.949,1.127c0.02,0.01,0.039,0.016,0.062,0.016c0.063,0,0.137-0.045,0.182-0.123
				c0.059-0.102,0.047-0.219-0.027-0.262l-1.952-1.127C128.708,33.074,128.686,33.071,128.666,33.071"/>
		</g>
	</g>
	<g>
		<g>
			<defs>
				<path id="SVGID_159_" d="M116.642,15.861c1.047,3.872-1.97,9.426-1.97,9.426h25.063l-0.263-0.771V-0.085l-34.286-0.372
					C105.188-0.457,113.009,2.437,116.642,15.861"/>
			</defs>
			<clipPath id="SVGID_160_">
				<use xlink:href="#SVGID_159_"  overflow="visible"/>
			</clipPath>
			<path clip-path="url(#SVGID_160_)" fill="#4A515B" d="M130.88,26.135c-0.081,0-0.153,0.085-0.165,0.196
				c-0.012,0.117,0.047,0.22,0.133,0.229l2.239,0.236c0.004,0,0.008,0,0.012,0c0.081,0,0.153-0.086,0.165-0.197
				c0.013-0.117-0.047-0.22-0.133-0.228l-2.239-0.235C130.886,26.135,130.883,26.135,130.88,26.135"/>
		</g>
	</g>
	<g>
		<g>
			<defs>
				<path id="SVGID_161_" d="M116.642,15.861c1.047,3.872-1.97,9.426-1.97,9.426h25.063l-0.263-0.771V-0.085l-34.286-0.372
					C105.188-0.457,113.009,2.437,116.642,15.861"/>
			</defs>
			<clipPath id="SVGID_162_">
				<use xlink:href="#SVGID_161_"  overflow="visible"/>
			</clipPath>
			<path clip-path="url(#SVGID_162_)" fill="#4A515B" d="M128.084,11.103c-0.032,0-0.062,0.01-0.086,0.031l-1.674,1.507
				c-0.063,0.059-0.052,0.175,0.026,0.263c0.051,0.057,0.115,0.086,0.173,0.086c0.032,0,0.062-0.01,0.086-0.03l1.675-1.506
				c0.063-0.06,0.051-0.176-0.027-0.265C128.207,11.135,128.141,11.103,128.084,11.103"/>
		</g>
	</g>
	<g>
		<g>
			<defs>
				<path id="SVGID_163_" d="M116.642,15.861c1.047,3.872-1.97,9.426-1.97,9.426h25.063l-0.263-0.771V-0.085l-34.286-0.372
					C105.188-0.457,113.009,2.437,116.642,15.861"/>
			</defs>
			<clipPath id="SVGID_164_">
				<use xlink:href="#SVGID_163_"  overflow="visible"/>
			</clipPath>
			<path clip-path="url(#SVGID_164_)" fill="#4A515B" d="M121.445,6.298c-0.067,0-0.125,0.027-0.147,0.079l-0.917,2.059
				c-0.035,0.078,0.025,0.179,0.133,0.229c0.037,0.016,0.076,0.023,0.111,0.023c0.066,0,0.124-0.027,0.146-0.081l0.916-2.058
				c0.036-0.078-0.023-0.18-0.131-0.229C121.517,6.304,121.479,6.298,121.445,6.298"/>
		</g>
	</g>
	<g>
		<g>
			<defs>
				<path id="SVGID_165_" d="M116.642,15.861c1.047,3.872-1.97,9.426-1.97,9.426h25.063l-0.263-0.771V-0.085l-34.286-0.372
					C105.188-0.457,113.009,2.437,116.642,15.861"/>
			</defs>
			<clipPath id="SVGID_166_">
				<use xlink:href="#SVGID_165_"  overflow="visible"/>
			</clipPath>
			<path clip-path="url(#SVGID_166_)" fill="#4A515B" d="M107.684,6.446c-0.03,0-0.063,0.004-0.097,0.017
				c-0.164,0.053-0.253,0.229-0.2,0.393c0.043,0.132,0.165,0.215,0.297,0.215c0.032,0,0.064-0.004,0.098-0.015
				c0.164-0.053,0.255-0.229,0.199-0.393C107.938,6.531,107.817,6.446,107.684,6.446"/>
		</g>
	</g>
	<g>
		<g>
			<defs>
				<path id="SVGID_167_" d="M116.642,15.861c1.047,3.872-1.97,9.426-1.97,9.426h25.063l-0.263-0.771V-0.085l-34.286-0.372
					C105.188-0.457,113.009,2.437,116.642,15.861"/>
			</defs>
			<clipPath id="SVGID_168_">
				<use xlink:href="#SVGID_167_"  overflow="visible"/>
			</clipPath>
			<path clip-path="url(#SVGID_168_)" fill="#4A515B" d="M104.119,8.036c-0.053,0-0.106,0.013-0.156,0.041
				c-0.148,0.087-0.2,0.277-0.113,0.427c0.06,0.1,0.163,0.156,0.271,0.156c0.054,0,0.105-0.014,0.155-0.043
				c0.149-0.086,0.201-0.276,0.114-0.426C104.332,8.092,104.226,8.036,104.119,8.036"/>
		</g>
	</g>
	<g>
		<g>
			<defs>
				<path id="SVGID_169_" d="M116.642,15.861c1.047,3.872-1.97,9.426-1.97,9.426h25.063l-0.263-0.771V-0.085l-34.286-0.372
					C105.188-0.457,113.009,2.437,116.642,15.861"/>
			</defs>
			<clipPath id="SVGID_170_">
				<use xlink:href="#SVGID_169_"  overflow="visible"/>
			</clipPath>
			<path clip-path="url(#SVGID_170_)" fill="#4A515B" d="M128.559,35.18c-0.096,0-0.188,0.047-0.25,0.131
				c-0.103,0.139-0.07,0.334,0.067,0.436c0.056,0.041,0.119,0.061,0.183,0.061c0.098,0,0.191-0.045,0.254-0.129
				c0.102-0.141,0.07-0.336-0.069-0.438C128.688,35.199,128.625,35.18,128.559,35.18"/>
		</g>
	</g>
	<g>
		<g>
			<defs>
				<path id="SVGID_171_" d="M116.642,15.861c1.047,3.872-1.97,9.426-1.97,9.426h25.063l-0.263-0.771V-0.085l-34.286-0.372
					C105.188-0.457,113.009,2.437,116.642,15.861"/>
			</defs>
			<clipPath id="SVGID_172_">
				<use xlink:href="#SVGID_171_"  overflow="visible"/>
			</clipPath>
			<path clip-path="url(#SVGID_172_)" fill="#4A515B" d="M130.511,31.801c-0.119,0-0.23,0.068-0.284,0.186
				c-0.069,0.154,0,0.342,0.158,0.412c0.041,0.018,0.084,0.027,0.127,0.027c0.118,0,0.232-0.07,0.284-0.188
				c0.071-0.158-0.001-0.344-0.158-0.41C130.596,31.809,130.554,31.801,130.511,31.801"/>
		</g>
	</g>
	<g>
		<g>
			<defs>
				<path id="SVGID_173_" d="M116.642,15.861c1.047,3.872-1.97,9.426-1.97,9.426h25.063l-0.263-0.771V-0.085l-34.286-0.372
					C105.188-0.457,113.009,2.437,116.642,15.861"/>
			</defs>
			<clipPath id="SVGID_174_">
				<use xlink:href="#SVGID_173_"  overflow="visible"/>
			</clipPath>
			<path clip-path="url(#SVGID_174_)" fill="#4A515B" d="M131.716,28.088c-0.143,0-0.271,0.101-0.301,0.248
				c-0.038,0.168,0.069,0.334,0.238,0.369c0.021,0.006,0.044,0.008,0.064,0.008c0.145,0,0.273-0.101,0.305-0.247
				c0.036-0.169-0.071-0.335-0.239-0.37C131.76,28.091,131.74,28.088,131.716,28.088"/>
		</g>
	</g>
	<g>
		<g>
			<defs>
				<path id="SVGID_175_" d="M116.642,15.861c1.047,3.872-1.97,9.426-1.97,9.426h25.063l-0.263-0.771V-0.085l-34.286-0.372
					C105.188-0.457,113.009,2.437,116.642,15.861"/>
			</defs>
			<clipPath id="SVGID_176_">
				<use xlink:href="#SVGID_175_"  overflow="visible"/>
			</clipPath>
			<path clip-path="url(#SVGID_176_)" fill="#4A515B" d="M132.128,24.206L132.128,24.206h-0.002c-0.172,0-0.312,0.138-0.312,0.312
				c-0.001,0.173,0.141,0.312,0.312,0.313c0.172-0.001,0.312-0.142,0.312-0.313C132.439,24.344,132.3,24.206,132.128,24.206"/>
		</g>
	</g>
	<g>
		<g>
			<defs>
				<path id="SVGID_177_" d="M116.642,15.861c1.047,3.872-1.97,9.426-1.97,9.426h25.063l-0.263-0.771V-0.085l-34.286-0.372
					C105.188-0.457,113.009,2.437,116.642,15.861"/>
			</defs>
			<clipPath id="SVGID_178_">
				<use xlink:href="#SVGID_177_"  overflow="visible"/>
			</clipPath>
			<path clip-path="url(#SVGID_178_)" fill="#4A515B" d="M131.719,20.324c-0.021,0-0.043,0.003-0.065,0.008
				c-0.168,0.034-0.275,0.198-0.238,0.37c0.029,0.146,0.16,0.246,0.305,0.246c0.021,0,0.043-0.002,0.064-0.007
				c0.169-0.035,0.274-0.201,0.238-0.37C131.993,20.424,131.864,20.324,131.719,20.324"/>
		</g>
	</g>
	<g>
		<g>
			<defs>
				<path id="SVGID_179_" d="M116.642,15.861c1.047,3.872-1.97,9.426-1.97,9.426h25.063l-0.263-0.771V-0.085l-34.286-0.372
					C105.188-0.457,113.009,2.437,116.642,15.861"/>
			</defs>
			<clipPath id="SVGID_180_">
				<use xlink:href="#SVGID_179_"  overflow="visible"/>
			</clipPath>
			<path clip-path="url(#SVGID_180_)" fill="#4A515B" d="M130.513,16.609c-0.042,0-0.086,0.01-0.127,0.028
				c-0.159,0.069-0.229,0.252-0.159,0.411c0.053,0.117,0.166,0.186,0.286,0.186c0.042,0,0.085-0.008,0.127-0.026
				c0.156-0.069,0.229-0.254,0.157-0.412C130.747,16.678,130.632,16.609,130.513,16.609"/>
		</g>
	</g>
	<g>
		<g>
			<defs>
				<path id="SVGID_181_" d="M116.642,15.861c1.047,3.872-1.97,9.426-1.97,9.426h25.063l-0.263-0.771V-0.085l-34.286-0.372
					C105.188-0.457,113.009,2.437,116.642,15.861"/>
			</defs>
			<clipPath id="SVGID_182_">
				<use xlink:href="#SVGID_181_"  overflow="visible"/>
			</clipPath>
			<path clip-path="url(#SVGID_182_)" fill="#4A515B" d="M128.56,13.23c-0.062,0-0.127,0.02-0.183,0.061
				c-0.14,0.101-0.172,0.293-0.068,0.435c0.061,0.083,0.154,0.128,0.251,0.128c0.064,0,0.128-0.02,0.185-0.059
				c0.14-0.102,0.171-0.295,0.068-0.436C128.753,13.275,128.658,13.23,128.56,13.23"/>
		</g>
	</g>
	<g>
		<g>
			<defs>
				<path id="SVGID_183_" d="M116.642,15.861c1.047,3.872-1.97,9.426-1.97,9.426h25.063l-0.263-0.771V-0.085l-34.286-0.372
					C105.188-0.457,113.009,2.437,116.642,15.861"/>
			</defs>
			<clipPath id="SVGID_184_">
				<use xlink:href="#SVGID_183_"  overflow="visible"/>
			</clipPath>
			<path clip-path="url(#SVGID_184_)" fill="#4A515B" d="M125.949,10.33c-0.085,0-0.17,0.034-0.231,0.104
				c-0.115,0.128-0.104,0.322,0.023,0.439c0.058,0.055,0.134,0.081,0.208,0.081c0.086,0,0.171-0.036,0.231-0.104
				c0.115-0.127,0.105-0.324-0.022-0.439C126.097,10.355,126.022,10.33,125.949,10.33"/>
		</g>
	</g>
	<g>
		<g>
			<defs>
				<path id="SVGID_185_" d="M116.642,15.861c1.047,3.872-1.97,9.426-1.97,9.426h25.063l-0.263-0.771V-0.085l-34.286-0.372
					C105.188-0.457,113.009,2.437,116.642,15.861"/>
			</defs>
			<clipPath id="SVGID_186_">
				<use xlink:href="#SVGID_185_"  overflow="visible"/>
			</clipPath>
			<path clip-path="url(#SVGID_186_)" fill="#4A515B" d="M122.791,8.036c-0.107,0-0.212,0.056-0.271,0.155
				c-0.086,0.148-0.037,0.338,0.114,0.425c0.049,0.029,0.104,0.044,0.155,0.044c0.105,0,0.213-0.058,0.271-0.156
				c0.087-0.148,0.035-0.339-0.113-0.427C122.896,8.049,122.843,8.036,122.791,8.036"/>
		</g>
	</g>
	<g>
		<g>
			<defs>
				<path id="SVGID_187_" d="M116.642,15.861c1.047,3.872-1.97,9.426-1.97,9.426h25.063l-0.263-0.771V-0.085l-34.286-0.372
					C105.188-0.457,113.009,2.437,116.642,15.861"/>
			</defs>
			<clipPath id="SVGID_188_">
				<use xlink:href="#SVGID_187_"  overflow="visible"/>
			</clipPath>
			<path clip-path="url(#SVGID_188_)" fill="#4A515B" d="M119.223,6.446c-0.132,0-0.252,0.084-0.295,0.217
				c-0.054,0.164,0.034,0.337,0.2,0.392c0.032,0.011,0.062,0.016,0.096,0.016c0.132,0,0.254-0.084,0.298-0.215
				c0.054-0.164-0.035-0.34-0.2-0.393C119.29,6.452,119.257,6.446,119.223,6.446"/>
		</g>
	</g>
	<g>
		<g>
			<defs>
				<path id="SVGID_189_" d="M116.642,15.861c1.047,3.872-1.97,9.426-1.97,9.426h25.063l-0.263-0.771V-0.085l-34.286-0.372
					C105.188-0.457,113.009,2.437,116.642,15.861"/>
			</defs>
			<clipPath id="SVGID_190_">
				<use xlink:href="#SVGID_189_"  overflow="visible"/>
			</clipPath>
			<path clip-path="url(#SVGID_190_)" fill="#4A515B" d="M115.407,5.635c-0.159,0-0.293,0.12-0.311,0.28
				c-0.02,0.172,0.104,0.322,0.277,0.342c0.012,0.001,0.021,0.001,0.034,0.001c0.155,0,0.291-0.12,0.309-0.28
				c0.019-0.171-0.104-0.323-0.277-0.342C115.427,5.635,115.418,5.635,115.407,5.635"/>
		</g>
	</g>
	<g>
		<g>
			<defs>
				<path id="SVGID_191_" d="M116.642,15.861c1.047,3.872-1.97,9.426-1.97,9.426h25.063l-0.263-0.771V-0.085l-34.286-0.372
					C105.188-0.457,113.009,2.437,116.642,15.861"/>
			</defs>
			<clipPath id="SVGID_192_">
				<use xlink:href="#SVGID_191_"  overflow="visible"/>
			</clipPath>
			<path clip-path="url(#SVGID_192_)" fill="#4A515B" d="M109.386,4.812c-0.023,0-0.049,0.002-0.073,0.008
				c-0.144,0.031-0.239,0.139-0.219,0.243l0.578,2.715c0.018,0.085,0.111,0.142,0.223,0.142c0.024,0,0.051-0.004,0.074-0.008
				c0.144-0.031,0.24-0.139,0.218-0.242l-0.576-2.716C109.592,4.867,109.499,4.812,109.386,4.812"/>
		</g>
	</g>
	<g>
		<g>
			<defs>
				<path id="SVGID_193_" d="M116.642,15.861c1.047,3.872-1.97,9.426-1.97,9.426h25.063l-0.263-0.771V-0.085l-34.286-0.372
					C105.188-0.457,113.009,2.437,116.642,15.861"/>
			</defs>
			<clipPath id="SVGID_194_">
				<use xlink:href="#SVGID_193_"  overflow="visible"/>
			</clipPath>
			<path clip-path="url(#SVGID_194_)" fill="#4A515B" d="M101.93,8.126c-0.059,0-0.125,0.021-0.184,0.064
				c-0.037,0.026-0.066,0.06-0.089,0.092c0.199,0.054,0.4,0.108,0.601,0.163l-0.186-0.255C102.043,8.146,101.99,8.126,101.93,8.126"
				/>
		</g>
	</g>
	<g>
		<g>
			<defs>
				<path id="SVGID_195_" d="M116.642,15.861c1.047,3.872-1.97,9.426-1.97,9.426h25.063l-0.263-0.771V-0.085l-34.286-0.372
					C105.188-0.457,113.009,2.437,116.642,15.861"/>
			</defs>
			<clipPath id="SVGID_196_">
				<use xlink:href="#SVGID_195_"  overflow="visible"/>
			</clipPath>
			<path clip-path="url(#SVGID_196_)" fill="#4A515B" d="M126.12,35.41c-0.07,0-0.149,0.035-0.212,0.105
				c-0.098,0.109-0.111,0.252-0.032,0.324l2.062,1.857c0.028,0.025,0.065,0.037,0.106,0.037c0.07,0,0.148-0.037,0.212-0.105
				c0.097-0.109,0.112-0.252,0.034-0.324l-2.065-1.857C126.197,35.424,126.16,35.41,126.12,35.41"/>
		</g>
	</g>
	<g>
		<g>
			<defs>
				<path id="SVGID_197_" d="M116.642,15.861c1.047,3.872-1.97,9.426-1.97,9.426h25.063l-0.263-0.771V-0.085l-34.286-0.372
					C105.188-0.457,113.009,2.437,116.642,15.861"/>
			</defs>
			<clipPath id="SVGID_198_">
				<use xlink:href="#SVGID_197_"  overflow="visible"/>
			</clipPath>
			<path clip-path="url(#SVGID_198_)" fill="#4A515B" d="M129.609,29.282c-0.089,0-0.181,0.082-0.218,0.199
				c-0.045,0.14,0,0.275,0.102,0.31l2.642,0.857c0.014,0.005,0.029,0.008,0.044,0.008c0.089,0,0.181-0.081,0.219-0.197
				c0.046-0.14-0.001-0.277-0.102-0.312l-2.641-0.856C129.64,29.287,129.625,29.282,129.609,29.282"/>
		</g>
	</g>
	<g>
		<g>
			<defs>
				<path id="SVGID_199_" d="M116.642,15.861c1.047,3.872-1.97,9.426-1.97,9.426h25.063l-0.263-0.771V-0.085l-34.286-0.372
					C105.188-0.457,113.009,2.437,116.642,15.861"/>
			</defs>
			<clipPath id="SVGID_200_">
				<use xlink:href="#SVGID_199_"  overflow="visible"/>
			</clipPath>
			<polygon clip-path="url(#SVGID_200_)" fill="#4A515B" points="108.731,8.848 108.509,8.848 108.085,9.075 108.135,9.275 
				108.473,9.094 108.478,9.094 108.478,10.79 108.731,10.79 			"/>
		</g>
	</g>
	<g>
		<g>
			<defs>
				<path id="SVGID_201_" d="M116.642,15.861c1.047,3.872-1.97,9.426-1.97,9.426h25.063l-0.263-0.771V-0.085l-34.286-0.372
					C105.188-0.457,113.009,2.437,116.642,15.861"/>
			</defs>
			<clipPath id="SVGID_202_">
				<use xlink:href="#SVGID_201_"  overflow="visible"/>
			</clipPath>
			<path clip-path="url(#SVGID_202_)" fill="#4A515B" d="M110.072,10.62c-0.24,0-0.396-0.287-0.396-0.791
				c0-0.528,0.167-0.812,0.396-0.812c0.271,0,0.396,0.315,0.396,0.792C110.469,10.305,110.34,10.62,110.072,10.62 M110.089,8.815
				c-0.396,0-0.674,0.358-0.674,1.01c0.006,0.642,0.263,0.997,0.642,0.997c0.431,0,0.675-0.363,0.675-1.023
				C110.73,9.18,110.498,8.815,110.089,8.815"/>
		</g>
	</g>
	<g>
		<g>
			<defs>
				<path id="SVGID_203_" d="M116.642,15.861c1.047,3.872-1.97,9.426-1.97,9.426h25.063l-0.263-0.771V-0.085l-34.286-0.372
					C105.188-0.457,113.009,2.437,116.642,15.861"/>
			</defs>
			<clipPath id="SVGID_204_">
				<use xlink:href="#SVGID_203_"  overflow="visible"/>
			</clipPath>
			<path clip-path="url(#SVGID_204_)" fill="#4A515B" d="M111.604,10.62c-0.239,0-0.395-0.287-0.395-0.791
				c0-0.528,0.166-0.812,0.396-0.812c0.272,0,0.396,0.315,0.396,0.792C112.002,10.305,111.873,10.62,111.604,10.62 M111.623,8.815
				c-0.396,0-0.676,0.358-0.676,1.01c0.007,0.642,0.264,0.997,0.642,0.997c0.431,0,0.675-0.363,0.675-1.023
				C112.262,9.18,112.031,8.815,111.623,8.815"/>
		</g>
	</g>
	<g>
		<g>
			<defs>
				<path id="SVGID_205_" d="M116.642,15.861c1.047,3.872-1.97,9.426-1.97,9.426h25.063l-0.263-0.771V-0.085l-34.286-0.372
					C105.188-0.457,113.009,2.437,116.642,15.861"/>
			</defs>
			<clipPath id="SVGID_206_">
				<use xlink:href="#SVGID_205_"  overflow="visible"/>
			</clipPath>
			<polygon clip-path="url(#SVGID_206_)" fill="#4A515B" points="115.181,8.848 114.959,8.848 114.535,9.075 114.586,9.275 
				114.923,9.094 114.927,9.094 114.927,10.79 115.181,10.79 			"/>
		</g>
	</g>
	<g>
		<g>
			<defs>
				<path id="SVGID_207_" d="M116.642,15.861c1.047,3.872-1.97,9.426-1.97,9.426h25.063l-0.263-0.771V-0.085l-34.286-0.372
					C105.188-0.457,113.009,2.437,116.642,15.861"/>
			</defs>
			<clipPath id="SVGID_208_">
				<use xlink:href="#SVGID_207_"  overflow="visible"/>
			</clipPath>
			<path clip-path="url(#SVGID_208_)" fill="#4A515B" d="M116.489,8.815c-0.227,0-0.415,0.083-0.551,0.198l0.083,0.185
				c0.091-0.073,0.236-0.165,0.413-0.165c0.289,0,0.385,0.183,0.385,0.381c-0.003,0.292-0.228,0.544-0.724,1.016l-0.205,0.2v0.161
				h1.239v-0.219h-0.872v-0.005l0.156-0.144c0.407-0.395,0.668-0.685,0.668-1.042C117.083,9.101,116.907,8.815,116.489,8.815"/>
		</g>
	</g>
	<g>
		<g>
			<defs>
				<path id="SVGID_209_" d="M116.642,15.861c1.047,3.872-1.97,9.426-1.97,9.426h25.063l-0.263-0.771V-0.085l-34.286-0.372
					C105.188-0.457,113.009,2.437,116.642,15.861"/>
			</defs>
			<clipPath id="SVGID_210_">
				<use xlink:href="#SVGID_209_"  overflow="visible"/>
			</clipPath>
			<path clip-path="url(#SVGID_210_)" fill="#4A515B" d="M118.053,10.62c-0.239,0-0.395-0.287-0.395-0.791
				c0-0.528,0.167-0.81,0.396-0.81c0.272,0,0.396,0.313,0.396,0.791C118.451,10.306,118.322,10.62,118.053,10.62 M118.072,8.815
				c-0.395,0-0.676,0.358-0.676,1.01c0.008,0.642,0.264,0.997,0.644,0.997c0.431,0,0.674-0.362,0.674-1.022
				C118.714,9.18,118.48,8.815,118.072,8.815"/>
		</g>
	</g>
	<g>
		<g>
			<defs>
				<path id="SVGID_211_" d="M116.642,15.861c1.047,3.872-1.97,9.426-1.97,9.426h25.063l-0.263-0.771V-0.085l-34.286-0.372
					C105.188-0.457,113.009,2.437,116.642,15.861"/>
			</defs>
			<clipPath id="SVGID_212_">
				<use xlink:href="#SVGID_211_"  overflow="visible"/>
			</clipPath>
			<polygon clip-path="url(#SVGID_212_)" fill="#4A515B" points="121.014,11.54 120.791,11.54 120.367,11.766 120.418,11.967 
				120.756,11.785 120.76,11.785 120.76,13.48 121.014,13.48 			"/>
		</g>
	</g>
	<g>
		<g>
			<defs>
				<path id="SVGID_213_" d="M116.642,15.861c1.047,3.872-1.97,9.426-1.97,9.426h25.063l-0.263-0.771V-0.085l-34.286-0.372
					C105.188-0.457,113.009,2.437,116.642,15.861"/>
			</defs>
			<clipPath id="SVGID_214_">
				<use xlink:href="#SVGID_213_"  overflow="visible"/>
			</clipPath>
			<path clip-path="url(#SVGID_214_)" fill="#4A515B" d="M121.9,12.746v-0.007l0.476-0.659c0.053-0.091,0.102-0.174,0.161-0.287
				h0.009c-0.006,0.102-0.009,0.203-0.009,0.305v0.648H121.9 M122.785,11.54h-0.283l-0.867,1.238v0.172h0.902v0.529h0.248V12.95
				h0.271v-0.204h-0.271V11.54"/>
		</g>
	</g>
	<g>
		<g>
			<defs>
				<path id="SVGID_215_" d="M116.642,15.861c1.047,3.872-1.97,9.426-1.97,9.426h25.063l-0.263-0.771V-0.085l-34.286-0.372
					C105.188-0.457,113.009,2.437,116.642,15.861"/>
			</defs>
			<clipPath id="SVGID_216_">
				<use xlink:href="#SVGID_215_"  overflow="visible"/>
			</clipPath>
			<path clip-path="url(#SVGID_216_)" fill="#4A515B" d="M123.886,13.309c-0.239,0-0.395-0.286-0.395-0.791
				c0-0.529,0.167-0.811,0.396-0.811c0.272,0,0.396,0.314,0.396,0.792C124.284,12.997,124.155,13.309,123.886,13.309
				 M123.905,11.507c-0.395,0-0.677,0.357-0.677,1.009c0.008,0.642,0.265,0.998,0.644,0.998c0.431,0,0.676-0.364,0.676-1.023
				C124.548,11.871,124.312,11.507,123.905,11.507"/>
		</g>
	</g>
	<g>
		<g>
			<defs>
				<path id="SVGID_217_" d="M116.642,15.861c1.047,3.872-1.97,9.426-1.97,9.426h25.063l-0.263-0.771V-0.085l-34.286-0.372
					C105.188-0.457,113.009,2.437,116.642,15.861"/>
			</defs>
			<clipPath id="SVGID_218_">
				<use xlink:href="#SVGID_217_"  overflow="visible"/>
			</clipPath>
			<polygon clip-path="url(#SVGID_218_)" fill="#4A515B" points="124.004,16.126 123.779,16.126 123.353,16.352 123.406,16.552 
				123.744,16.37 123.749,16.37 123.749,18.065 124.004,18.065 			"/>
		</g>
	</g>
	<g>
		<g>
			<defs>
				<path id="SVGID_219_" d="M116.642,15.861c1.047,3.872-1.97,9.426-1.97,9.426h25.063l-0.263-0.771V-0.085l-34.286-0.372
					C105.188-0.457,113.009,2.437,116.642,15.861"/>
			</defs>
			<clipPath id="SVGID_220_">
				<use xlink:href="#SVGID_219_"  overflow="visible"/>
			</clipPath>
			<path clip-path="url(#SVGID_220_)" fill="#4A515B" d="M125.365,17.894c-0.274,0-0.42-0.234-0.428-0.555
				c0-0.048,0.014-0.086,0.03-0.116c0.071-0.142,0.217-0.24,0.376-0.24c0.242,0,0.4,0.167,0.4,0.445s-0.153,0.465-0.376,0.465
				L125.365,17.894 M125.818,16.095c-0.048,0-0.113,0.002-0.19,0.015c-0.244,0.03-0.458,0.128-0.62,0.286
				c-0.191,0.192-0.329,0.494-0.329,0.875c0,0.505,0.272,0.827,0.688,0.827c0.402,0,0.645-0.328,0.645-0.684
				c0-0.379-0.241-0.626-0.585-0.626c-0.214,0-0.376,0.102-0.469,0.224h-0.009c0.045-0.32,0.264-0.621,0.675-0.69
				c0.058-0.009,0.11-0.013,0.157-0.013c0.014,0,0.026,0,0.04,0.001v-0.215"/>
		</g>
	</g>
	<g>
		<g>
			<defs>
				<path id="SVGID_221_" d="M116.642,15.861c1.047,3.872-1.97,9.426-1.97,9.426h25.063l-0.263-0.771V-0.085l-34.286-0.372
					C105.188-0.457,113.009,2.437,116.642,15.861"/>
			</defs>
			<clipPath id="SVGID_222_">
				<use xlink:href="#SVGID_221_"  overflow="visible"/>
			</clipPath>
			<path clip-path="url(#SVGID_222_)" fill="#4A515B" d="M126.875,17.894c-0.238,0-0.396-0.287-0.396-0.792
				c0-0.529,0.167-0.809,0.396-0.809c0.271,0,0.395,0.313,0.395,0.792C127.27,17.581,127.141,17.894,126.875,17.894 M126.891,16.093
				c-0.395,0-0.676,0.357-0.676,1.009c0.007,0.643,0.264,0.997,0.643,0.997c0.432,0,0.677-0.364,0.677-1.023
				C127.535,16.458,127.302,16.093,126.891,16.093"/>
		</g>
	</g>
	<g>
		<g>
			<defs>
				<path id="SVGID_223_" d="M116.642,15.861c1.047,3.872-1.97,9.426-1.97,9.426h25.063l-0.263-0.771V-0.085l-34.286-0.372
					C105.188-0.457,113.009,2.437,116.642,15.861"/>
			</defs>
			<clipPath id="SVGID_224_">
				<use xlink:href="#SVGID_223_"  overflow="visible"/>
			</clipPath>
			<polygon clip-path="url(#SVGID_224_)" fill="#4A515B" points="126.138,22.068 125.916,22.068 125.491,22.295 125.542,22.496 
				125.88,22.312 125.885,22.312 125.885,24.01 126.138,24.01 			"/>
		</g>
	</g>
	<g>
		<g>
			<defs>
				<path id="SVGID_225_" d="M116.642,15.861c1.047,3.872-1.97,9.426-1.97,9.426h25.063l-0.263-0.771V-0.085l-34.286-0.372
					C105.188-0.457,113.009,2.437,116.642,15.861"/>
			</defs>
			<clipPath id="SVGID_226_">
				<use xlink:href="#SVGID_225_"  overflow="visible"/>
			</clipPath>
			<path clip-path="url(#SVGID_226_)" fill="#4A515B" d="M127.48,23.851c-0.249,0-0.396-0.173-0.389-0.371
				c0-0.184,0.123-0.334,0.35-0.399c0.264,0.074,0.428,0.188,0.428,0.424C127.869,23.703,127.716,23.851,127.48,23.851
				 M127.516,22.892c-0.225-0.06-0.371-0.164-0.371-0.357c0-0.168,0.119-0.311,0.338-0.311c0.236,0,0.329,0.162,0.329,0.315
				C127.812,22.717,127.683,22.837,127.516,22.892 M127.498,22.036c-0.34,0-0.601,0.209-0.601,0.517c0,0.167,0.094,0.334,0.31,0.436
				l0.002,0.01c-0.238,0.102-0.385,0.273-0.385,0.52c0,0.284,0.244,0.526,0.65,0.526c0.37,0,0.659-0.229,0.659-0.565
				c0-0.234-0.147-0.406-0.391-0.501v-0.009c0.237-0.113,0.318-0.291,0.318-0.454C128.062,22.271,127.876,22.036,127.498,22.036"/>
		</g>
	</g>
	<g>
		<g>
			<defs>
				<path id="SVGID_227_" d="M116.642,15.861c1.047,3.872-1.97,9.426-1.97,9.426h25.063l-0.263-0.771V-0.085l-34.286-0.372
					C105.188-0.457,113.009,2.437,116.642,15.861"/>
			</defs>
			<clipPath id="SVGID_228_">
				<use xlink:href="#SVGID_227_"  overflow="visible"/>
			</clipPath>
			<path clip-path="url(#SVGID_228_)" fill="#4A515B" d="M129.01,23.84c-0.239,0-0.395-0.287-0.395-0.792
				c0-0.528,0.167-0.811,0.396-0.811c0.271,0,0.396,0.314,0.396,0.792C129.408,23.525,129.279,23.84,129.01,23.84 M129.028,22.036
				c-0.395,0-0.676,0.358-0.676,1.009c0.006,0.643,0.264,0.998,0.643,0.998c0.43,0,0.675-0.364,0.675-1.023
				C129.671,22.4,129.437,22.036,129.028,22.036"/>
		</g>
	</g>
	<g>
		<g>
			<defs>
				<path id="SVGID_229_" d="M116.642,15.861c1.047,3.872-1.97,9.426-1.97,9.426h25.063l-0.263-0.771V-0.085l-34.286-0.372
					C105.188-0.457,113.009,2.437,116.642,15.861"/>
			</defs>
			<clipPath id="SVGID_230_">
				<use xlink:href="#SVGID_229_"  overflow="visible"/>
			</clipPath>
			<path clip-path="url(#SVGID_230_)" fill="#4A515B" d="M125.474,27.69c-0.224,0-0.415,0.082-0.55,0.197l0.084,0.184
				c0.089-0.073,0.236-0.164,0.412-0.164c0.29,0,0.386,0.184,0.386,0.382c-0.003,0.291-0.228,0.543-0.724,1.014l-0.205,0.201v0.16
				h1.238v-0.219h-0.871V29.44l0.154-0.145c0.408-0.395,0.669-0.685,0.669-1.041C126.07,27.975,125.891,27.69,125.474,27.69"/>
		</g>
	</g>
	<g>
		<g>
			<defs>
				<path id="SVGID_231_" d="M116.642,15.861c1.047,3.872-1.97,9.426-1.97,9.426h25.063l-0.263-0.771V-0.085l-34.286-0.372
					C105.188-0.457,113.009,2.437,116.642,15.861"/>
			</defs>
			<clipPath id="SVGID_232_">
				<use xlink:href="#SVGID_231_"  overflow="visible"/>
			</clipPath>
			<path clip-path="url(#SVGID_232_)" fill="#4A515B" d="M127.041,29.494c-0.238,0-0.396-0.287-0.396-0.791
				c0-0.53,0.168-0.812,0.397-0.812c0.271,0,0.395,0.314,0.395,0.792C127.437,29.179,127.308,29.494,127.041,29.494 M127.057,27.69
				c-0.396,0-0.676,0.357-0.676,1.009c0.006,0.643,0.264,0.997,0.643,0.997c0.431,0,0.675-0.363,0.675-1.022
				C127.701,28.055,127.467,27.69,127.057,27.69"/>
		</g>
	</g>
	<g>
		<g>
			<defs>
				<path id="SVGID_233_" d="M116.642,15.861c1.047,3.872-1.97,9.426-1.97,9.426h25.063l-0.263-0.771V-0.085l-34.286-0.372
					C105.188-0.457,113.009,2.437,116.642,15.861"/>
			</defs>
			<clipPath id="SVGID_234_">
				<use xlink:href="#SVGID_233_"  overflow="visible"/>
			</clipPath>
			<path clip-path="url(#SVGID_234_)" fill="#4A515B" d="M128.574,29.494c-0.24,0-0.396-0.287-0.396-0.791
				c0-0.53,0.167-0.812,0.396-0.812c0.271,0,0.395,0.314,0.395,0.792C128.969,29.179,128.841,29.494,128.574,29.494 M128.591,27.69
				c-0.395,0-0.676,0.357-0.676,1.009c0.007,0.643,0.264,0.997,0.643,0.997c0.432,0,0.676-0.363,0.676-1.022
				C129.233,28.055,129.001,27.69,128.591,27.69"/>
		</g>
	</g>
	<g>
		<g>
			<defs>
				<path id="SVGID_235_" d="M116.642,15.861c1.047,3.872-1.97,9.426-1.97,9.426h25.063l-0.263-0.771V-0.085l-34.286-0.372
					C105.188-0.457,113.009,2.437,116.642,15.861"/>
			</defs>
			<clipPath id="SVGID_236_">
				<use xlink:href="#SVGID_235_"  overflow="visible"/>
			</clipPath>
			<path clip-path="url(#SVGID_236_)" fill="#4A515B" d="M125.298,33.789c0.06,0.477,0.106,0.957,0.141,1.439
				c0.068-0.162,0.104-0.371,0.104-0.623C125.543,34.233,125.459,33.953,125.298,33.789"/>
		</g>
	</g>
</g>
<g>
	<g>
		<g>
			<defs>
				<path id="SVGID_237_" d="M116.642,15.861c1.047,3.872-1.97,9.426-1.97,9.426h25.063l-0.263-0.771V-0.085l-34.286-0.372
					C105.188-0.457,113.009,2.437,116.642,15.861"/>
			</defs>
			<clipPath id="SVGID_238_">
				<use xlink:href="#SVGID_237_"  overflow="visible"/>
			</clipPath>
			<g clip-path="url(#SVGID_238_)">
				<g>
					<g>
						<defs>
							<path id="SVGID_239_" d="M121.548,40.254c0,0.414-0.284,0.746-0.634,0.746h-14.917c-0.351,0-0.633-0.332-0.633-0.746v-1.992
								c0-0.412,0.282-0.746,0.633-0.746h14.917c0.35,0,0.634,0.334,0.634,0.746V40.254z"/>
						</defs>
						<clipPath id="SVGID_240_">
							<use xlink:href="#SVGID_239_"  overflow="visible"/>
						</clipPath>
						
							<linearGradient id="SVGID_241_" gradientUnits="userSpaceOnUse" x1="29.4041" y1="316.636" x2="30.2043" y2="316.636" gradientTransform="matrix(0 4.358 -4.358 0 1493.3628 -90.6102)">
							<stop  offset="0" style="stop-color:#1B1A1B"/>
							<stop  offset="0.004" style="stop-color:#1B1B1B"/>
							<stop  offset="0.3689" style="stop-color:#595656"/>
							<stop  offset="0.6676" style="stop-color:#908D8E"/>
							<stop  offset="0.8856" style="stop-color:#B9B7B7"/>
							<stop  offset="1" style="stop-color:#CCCBCB"/>
						</linearGradient>
						<rect x="105.364" y="37.514" clip-path="url(#SVGID_240_)" fill="url(#SVGID_241_)" width="16.184" height="3.486"/>
					</g>
				</g>
				<g>
					<defs>
						<path id="SVGID_242_" d="M116.642,15.861c1.047,3.872-1.97,9.426-1.97,9.426h25.063l-0.263-0.771V-0.085l-34.286-0.372
							C105.188-0.457,113.009,2.437,116.642,15.861"/>
					</defs>
					<clipPath id="SVGID_243_">
						<use xlink:href="#SVGID_242_"  overflow="visible"/>
					</clipPath>
					<g clip-path="url(#SVGID_243_)">
						<g>
							<g>
								<defs>
									<path id="SVGID_244_" d="M116.642,15.861c1.047,3.872-1.97,9.426-1.97,9.426h25.063l-0.263-0.771V-0.085l-34.286-0.372
										C105.188-0.457,113.009,2.437,116.642,15.861"/>
								</defs>
								<clipPath id="SVGID_245_">
									<use xlink:href="#SVGID_244_"  overflow="visible"/>
								</clipPath>
								<path clip-path="url(#SVGID_245_)" fill="#010101" d="M120.915,40.711h-14.92c-0.222,0-0.402-0.205-0.402-0.457v-1.992
									c0-0.252,0.182-0.457,0.402-0.457h14.92c0.222,0,0.4,0.205,0.4,0.457v1.992C121.315,40.506,121.135,40.711,120.915,40.711"
									/>
							</g>
						</g>
						<g>
							<defs>
								<path id="SVGID_246_" d="M116.642,15.861c1.047,3.872-1.97,9.426-1.97,9.426h25.063l-0.263-0.771V-0.085l-34.286-0.372
									C105.188-0.457,113.009,2.437,116.642,15.861"/>
							</defs>
							<clipPath id="SVGID_247_">
								<use xlink:href="#SVGID_246_"  overflow="visible"/>
							</clipPath>
							<g clip-path="url(#SVGID_247_)">
								<g>
									<g>
										<defs>
											<path id="SVGID_248_" d="M116.642,15.861c1.047,3.872-1.97,9.426-1.97,9.426h25.063l-0.263-0.771V-0.085l-34.286-0.372
												C105.188-0.457,113.009,2.437,116.642,15.861"/>
										</defs>
										<clipPath id="SVGID_249_">
											<use xlink:href="#SVGID_248_"  overflow="visible"/>
										</clipPath>
										<g clip-path="url(#SVGID_249_)">
											<g>
												<g>
													<defs>
														<path id="SVGID_250_" d="M108.225,40.198c0,0.168-0.144,0.307-0.321,0.307h-1.347c-0.178,0-0.321-0.139-0.321-0.307
															v-1.881c0-0.168,0.145-0.305,0.321-0.305h1.347c0.179,0,0.321,0.137,0.321,0.305V40.198z"/>
													</defs>
													<clipPath id="SVGID_251_">
														<use xlink:href="#SVGID_250_"  overflow="visible"/>
													</clipPath>
													
														<linearGradient id="SVGID_252_" gradientUnits="userSpaceOnUse" x1="-367.1848" y1="544.2961" x2="-366.3845" y2="544.2961" gradientTransform="matrix(0 -3.1127 3.1127 0 -1586.9998 -1102.4873)">
														<stop  offset="0" style="stop-color:#1B1A1B"/>
														<stop  offset="0.0495" style="stop-color:#1B1A1B"/>
														<stop  offset="0.0533" style="stop-color:#1E1E1F"/>
														<stop  offset="0.0776" style="stop-color:#303131"/>
														<stop  offset="0.1021" style="stop-color:#3D3E3E"/>
														<stop  offset="0.1266" style="stop-color:#464747"/>
														<stop  offset="0.1512" style="stop-color:#4C4D4D"/>
														<stop  offset="0.1758" style="stop-color:#4E4F4F"/>
														<stop  offset="0.2515" style="stop-color:#646463"/>
														<stop  offset="0.3527" style="stop-color:#7E7D7D"/>
														<stop  offset="0.4374" style="stop-color:#8F8F8F"/>
														<stop  offset="0.4945" style="stop-color:#979696"/>
														<stop  offset="0.5551" style="stop-color:#8A8A8A"/>
														<stop  offset="0.6676" style="stop-color:#6D6D6C"/>
														<stop  offset="0.7802" style="stop-color:#4E4F4F"/>
														<stop  offset="0.8094" style="stop-color:#464747"/>
														<stop  offset="0.8655" style="stop-color:#343535"/>
														<stop  offset="0.9286" style="stop-color:#1B1A1B"/>
														<stop  offset="1" style="stop-color:#1B1A1B"/>
													</linearGradient>
													<rect x="106.236" y="38.012" clip-path="url(#SVGID_251_)" fill="url(#SVGID_252_)" width="1.989" height="2.492"/>
												</g>
											</g>
											<g>
												<defs>
													<path id="SVGID_253_" d="M116.642,15.861c1.047,3.872-1.97,9.426-1.97,9.426h25.063l-0.263-0.771V-0.085l-34.286-0.372
														C105.188-0.457,113.009,2.437,116.642,15.861"/>
												</defs>
												<clipPath id="SVGID_254_">
													<use xlink:href="#SVGID_253_"  overflow="visible"/>
												</clipPath>
												<g clip-path="url(#SVGID_254_)">
													<g>
														<g>
															<defs>
																<path id="SVGID_255_" d="M116.642,15.861c1.047,3.872-1.97,9.426-1.97,9.426h25.063l-0.263-0.771V-0.085
																	l-34.286-0.372C105.188-0.457,113.009,2.437,116.642,15.861"/>
															</defs>
															<clipPath id="SVGID_256_">
																<use xlink:href="#SVGID_255_"  overflow="visible"/>
															</clipPath>
															<g clip-path="url(#SVGID_256_)">
																<g>
																	<g>
																		<defs>
																			<path id="SVGID_257_" d="M107.888,39.235c0,0.66-0.244,1.025-0.675,1.025c-0.379,0-0.636-0.355-0.642-0.998
																				c0-0.65,0.279-1.008,0.675-1.008C107.656,38.256,107.888,38.619,107.888,39.235 M106.836,39.266
																				c0,0.504,0.154,0.791,0.394,0.791c0.27,0,0.397-0.312,0.397-0.809c0-0.479-0.122-0.791-0.396-0.791
																				C107.003,38.457,106.836,38.737,106.836,39.266"/>
																		</defs>
																		<clipPath id="SVGID_258_">
																			<use xlink:href="#SVGID_257_"  overflow="visible"/>
																		</clipPath>
																		
																			<linearGradient id="SVGID_259_" gradientUnits="userSpaceOnUse" x1="-422.9065" y1="576.3567" x2="-422.1067" y2="576.3567" gradientTransform="matrix(0 -2.5084 2.5084 0 -1338.5038 -1020.6173)">
																			<stop  offset="0" style="stop-color:#979696"/>
																			<stop  offset="0.0714" style="stop-color:#979696"/>
																			<stop  offset="0.223" style="stop-color:#A7A6A6"/>
																			<stop  offset="0.478" style="stop-color:#CCCBCB"/>
																			<stop  offset="0.7559" style="stop-color:#BAB9BA"/>
																			<stop  offset="0.9505" style="stop-color:#B4B2B4"/>
																			<stop  offset="1" style="stop-color:#B4B2B4"/>
																		</linearGradient>
																		
																			<rect x="106.573" y="38.256" clip-path="url(#SVGID_258_)" fill="url(#SVGID_259_)" width="1.315" height="2.006"/>
																	</g>
																</g>
																<g>
																	<defs>
																		<path id="SVGID_260_" d="M116.642,15.861c1.047,3.872-1.97,9.426-1.97,9.426h25.063l-0.263-0.771V-0.085
																			l-34.286-0.372C105.188-0.457,113.009,2.437,116.642,15.861"/>
																	</defs>
																	<clipPath id="SVGID_261_">
																		<use xlink:href="#SVGID_260_"  overflow="visible"/>
																	</clipPath>
																	<g clip-path="url(#SVGID_261_)">
																		<g>
																			<g>
																				<defs>
																					<path id="SVGID_262_" d="M116.642,15.861c1.047,3.872-1.97,9.426-1.97,9.426h25.063l-0.263-0.771V-0.085
																						l-34.286-0.372C105.188-0.457,113.009,2.437,116.642,15.861"/>
																				</defs>
																				<clipPath id="SVGID_263_">
																					<use xlink:href="#SVGID_262_"  overflow="visible"/>
																				</clipPath>
																				<g clip-path="url(#SVGID_263_)">
																					<g>
																						<g>
																							<defs>
																								<path id="SVGID_264_" d="M110.716,40.198c0,0.168-0.145,0.307-0.324,0.307h-1.344
																									c-0.179,0-0.324-0.139-0.324-0.307v-1.881c0-0.168,0.146-0.305,0.324-0.305h1.344
																									c0.181,0,0.324,0.137,0.324,0.305V40.198z"/>
																							</defs>
																							<clipPath id="SVGID_265_">
																								<use xlink:href="#SVGID_264_"  overflow="visible"/>
																							</clipPath>
																							
																								<linearGradient id="SVGID_266_" gradientUnits="userSpaceOnUse" x1="-367.1848" y1="544.1018" x2="-366.3845" y2="544.1018" gradientTransform="matrix(0 -3.1127 3.1127 0 -1583.906 -1102.4873)">
																								<stop  offset="0" style="stop-color:#1B1A1B"/>
																								<stop  offset="0.0495" style="stop-color:#1B1A1B"/>
																								<stop  offset="0.0533" style="stop-color:#1E1E1F"/>
																								<stop  offset="0.0776" style="stop-color:#303131"/>
																								<stop  offset="0.1021" style="stop-color:#3D3E3E"/>
																								<stop  offset="0.1266" style="stop-color:#464747"/>
																								<stop  offset="0.1512" style="stop-color:#4C4D4D"/>
																								<stop  offset="0.1758" style="stop-color:#4E4F4F"/>
																								<stop  offset="0.2515" style="stop-color:#646463"/>
																								<stop  offset="0.3527" style="stop-color:#7E7D7D"/>
																								<stop  offset="0.4374" style="stop-color:#8F8F8F"/>
																								<stop  offset="0.4945" style="stop-color:#979696"/>
																								<stop  offset="0.5551" style="stop-color:#8A8A8A"/>
																								<stop  offset="0.6676" style="stop-color:#6D6D6C"/>
																								<stop  offset="0.7802" style="stop-color:#4E4F4F"/>
																								<stop  offset="0.8094" style="stop-color:#464747"/>
																								<stop  offset="0.8655" style="stop-color:#343535"/>
																								<stop  offset="0.9286" style="stop-color:#1B1A1B"/>
																								<stop  offset="1" style="stop-color:#1B1A1B"/>
																							</linearGradient>
																							
																								<rect x="108.723" y="38.012" clip-path="url(#SVGID_265_)" fill="url(#SVGID_266_)" width="1.992" height="2.492"/>
																						</g>
																					</g>
																					<g>
																						<defs>
																							<path id="SVGID_267_" d="M116.642,15.861c1.047,3.872-1.97,9.426-1.97,9.426h25.063l-0.263-0.771V-0.085
																								l-34.286-0.372C105.188-0.457,113.009,2.437,116.642,15.861"/>
																						</defs>
																						<clipPath id="SVGID_268_">
																							<use xlink:href="#SVGID_267_"  overflow="visible"/>
																						</clipPath>
																						<g clip-path="url(#SVGID_268_)">
																							<g>
																								<g>
																									<defs>
																										<path id="SVGID_269_" d="M116.642,15.861c1.047,3.872-1.97,9.426-1.97,9.426h25.063l-0.263-0.771V-0.085
																											l-34.286-0.372C105.188-0.457,113.009,2.437,116.642,15.861"/>
																									</defs>
																									<clipPath id="SVGID_270_">
																										<use xlink:href="#SVGID_269_"  overflow="visible"/>
																									</clipPath>
																									<g clip-path="url(#SVGID_270_)">
																										<g>
																											<g>
																												
																													<linearGradient id="SVGID_271_" gradientUnits="userSpaceOnUse" x1="-422.9065" y1="576.1018" x2="-422.1067" y2="576.1018" gradientTransform="matrix(0 -2.5084 2.5084 0 -1335.3729 -1020.6173)">
																													<stop  offset="0" style="stop-color:#979696"/>
																													<stop  offset="0.0714" style="stop-color:#979696"/>
																													<stop  offset="0.223" style="stop-color:#A7A6A6"/>
																													<stop  offset="0.478" style="stop-color:#CCCBCB"/>
																													<stop  offset="0.7559" style="stop-color:#BAB9BA"/>
																													<stop  offset="0.9505" style="stop-color:#B4B2B4"/>
																													<stop  offset="1" style="stop-color:#B4B2B4"/>
																												</linearGradient>
																												<rect x="109.061" y="38.256" fill="url(#SVGID_271_)" width="1.317" height="2.006"/>
																											</g>
																										</g>
																										<g>
																											<defs>
																												<path id="SVGID_272_" d="M116.642,15.861c1.047,3.872-1.97,9.426-1.97,9.426h25.063l-0.263-0.771
																													V-0.085l-34.286-0.372C105.188-0.457,113.009,2.437,116.642,15.861"/>
																											</defs>
																											<clipPath id="SVGID_273_">
																												<use xlink:href="#SVGID_272_"  overflow="visible"/>
																											</clipPath>
																											<g clip-path="url(#SVGID_273_)">
																												<g>
																													<defs>
																														<path id="SVGID_274_" d="M116.642,15.861c1.047,3.872-1.97,9.426-1.97,9.426h25.063l-0.263-0.771
																															V-0.085l-34.286-0.372C105.188-0.457,113.009,2.437,116.642,15.861"/>
																													</defs>
																													<clipPath id="SVGID_275_">
																														<use xlink:href="#SVGID_274_"  overflow="visible"/>
																													</clipPath>
																												</g>
																											</g>
																										</g>
																									</g>
																								</g>
																							</g>
																						</g>
																					</g>
																				</g>
																			</g>
																		</g>
																	</g>
																	<polygon clip-path="url(#SVGID_261_)" fill="none" points="120.291,38.289 120.291,38.461 119.447,40.227 
																		119.175,40.227 120.016,38.512 120.016,38.506 119.067,38.506 119.067,38.289 																	"/>
																</g>
															</g>
														</g>
													</g>
												</g>
											</g>
										</g>
									</g>
								</g>
							</g>
						</g>
					</g>
				</g>
			</g>
		</g>
	</g>
</g>
<path fill="none" d="M110.38,39.235c0,0.66-0.245,1.025-0.675,1.025c-0.38,0-0.638-0.355-0.644-0.998
	c0-0.65,0.281-1.008,0.676-1.008C110.145,38.256,110.38,38.619,110.38,39.235 M109.325,39.266c0,0.504,0.155,0.791,0.395,0.791
	c0.27,0,0.396-0.312,0.396-0.809c0-0.479-0.122-0.791-0.396-0.791C109.492,38.457,109.325,38.737,109.325,39.266"/>
</svg>
