<?xml version="1.0" encoding="utf-8"?>
<!-- Generator: Adobe Illustrator 16.0.4, SVG Export Plug-In . SVG Version: 6.00 Build 0)  -->
<!DOCTYPE svg PUBLIC "-//W3C//DTD SVG 1.1//EN" "http://www.w3.org/Graphics/SVG/1.1/DTD/svg11.dtd">
<svg version="1.1" id="Layer_1" xmlns="http://www.w3.org/2000/svg" xmlns:xlink="http://www.w3.org/1999/xlink" x="0px" y="0px"
	 width="200px" height="75.01px" viewBox="0 0 200 75.01" enable-background="new 0 0 200 75.01" xml:space="preserve">
<g>
	<g>
		<path fill="#00A1DF" d="M14.234,36.422c-1.894,0-3.373,0.775-4.435,2.328c-1.062,1.552-1.592,3.692-1.592,6.419
			c0,5.671,2.157,8.506,6.47,8.506c1.304,0,2.566-0.181,3.791-0.544c1.222-0.362,2.451-0.8,3.688-1.31v6.732
			c-2.458,1.088-5.241,1.632-8.345,1.632c-4.448,0-7.858-1.29-10.229-3.87c-2.373-2.58-3.558-6.309-3.558-11.187
			c0-3.05,0.574-5.73,1.723-8.042c1.149-2.311,2.802-4.088,4.959-5.331c2.157-1.243,4.693-1.865,7.608-1.865
			c3.185,0,6.229,0.691,9.131,2.076l-2.438,6.268c-1.089-0.51-2.177-0.94-3.265-1.29C16.653,36.596,15.484,36.422,14.234,36.422z"/>
		<path fill="#00A1DF" d="M40.653,60.208l-1.457-2.974H39.04c-1.023,1.297-2.067,2.181-3.129,2.657
			c-1.063,0.478-2.437,0.714-4.122,0.714c-2.073,0-3.706-0.636-4.898-1.904c-1.192-1.268-1.788-3.052-1.788-5.353
			c0-2.393,0.817-4.173,2.449-5.343c1.633-1.17,3.998-1.828,7.094-1.974l3.674-0.117v-0.317c0-1.851-0.895-2.776-2.682-2.776
			c-1.606,0-3.649,0.555-6.123,1.666l-2.197-5.115c2.566-1.349,5.805-2.023,9.719-2.023c2.824,0,5.012,0.713,6.56,2.141
			c1.548,1.428,2.323,3.425,2.323,5.987v14.732H40.653z M35.017,55.132c0.92,0,1.707-0.297,2.361-0.892
			c0.654-0.594,0.982-1.369,0.982-2.32v-1.745l-1.75,0.08c-2.501,0.093-3.751,1.03-3.751,2.816
			C32.859,54.446,33.578,55.132,35.017,55.132z"/>
		<path fill="#00A1DF" d="M62.568,37.011c0.66,0,1.288,0.055,1.885,0.162l0.428,0.081L64.2,44.677
			c-0.623-0.162-1.483-0.242-2.585-0.242c-1.659,0-2.864,0.393-3.615,1.177c-0.752,0.786-1.127,1.915-1.127,3.39v11.206h-7.6V37.415
			h5.656l1.186,3.642h0.369c0.634-1.208,1.52-2.184,2.653-2.928C60.271,37.384,61.414,37.011,62.568,37.011z"/>
		<path fill="#00A1DF" d="M74.558,60.208h-7.601V29.963h7.601V60.208z"/>
		<path fill="#00A1DF" d="M78.674,33.327c0-1.139,0.317-1.989,0.953-2.546c0.634-0.557,1.658-0.835,3.071-0.835
			c1.413,0,2.442,0.285,3.091,0.855c0.648,0.571,0.973,1.413,0.973,2.526c0,2.23-1.355,3.344-4.063,3.344
			C80.015,36.671,78.674,35.557,78.674,33.327z M86.468,60.208h-7.6V37.389h7.6V60.208z"/>
		<path fill="#00A1DF" d="M107.788,53.046c0,2.365-0.804,4.153-2.41,5.362c-1.606,1.208-3.914,1.812-6.92,1.812
			c-1.632,0-3.052-0.087-4.257-0.264c-1.206-0.175-2.437-0.496-3.693-0.964v-6.104c1.179,0.521,2.471,0.949,3.877,1.287
			c1.407,0.339,2.661,0.507,3.761,0.507c1.646,0,2.469-0.377,2.469-1.13c0-0.391-0.23-0.738-0.689-1.043
			c-0.461-0.306-1.798-0.902-4.014-1.786c-2.021-0.832-3.435-1.776-4.238-2.836c-0.803-1.06-1.205-2.402-1.205-4.027
			c0-2.053,0.79-3.653,2.372-4.796c1.582-1.144,3.815-1.716,6.706-1.716c1.452,0,2.815,0.159,4.092,0.478
			c1.275,0.319,2.601,0.783,3.975,1.394l-2.062,4.915c-1.01-0.455-2.078-0.842-3.207-1.161c-1.126-0.317-2.047-0.478-2.759-0.478
			c-1.244,0-1.866,0.305-1.866,0.917c0,0.376,0.216,0.698,0.651,0.965c0.434,0.266,1.687,0.809,3.761,1.628
			c1.542,0.636,2.691,1.261,3.45,1.872c0.758,0.61,1.315,1.329,1.672,2.154C107.609,50.857,107.788,51.863,107.788,53.046z"/>
		<path fill="#00A1DF" d="M121.799,54.395c1.024,0,2.248-0.262,3.674-0.786v5.733c-1.023,0.457-1.999,0.781-2.926,0.976
			c-0.926,0.196-2.012,0.292-3.256,0.292c-2.554,0-4.392-0.647-5.521-1.941c-1.127-1.295-1.69-3.283-1.69-5.965V43.31h-2.662v-3.199
			l3.382-2.476l1.962-4.788h4.976v4.567h5.405v5.895h-5.405v8.871C119.737,53.655,120.426,54.395,121.799,54.395z"/>
		<path fill="#FFC627" d="M127.373,56.488c0-1.193,0.354-2.112,1.06-2.761c0.707-0.647,1.734-0.971,3.081-0.971
			c1.283,0,2.268,0.323,2.954,0.971c0.688,0.649,1.03,1.568,1.03,2.761c0,1.165-0.353,2.076-1.06,2.73
			c-0.705,0.655-1.681,0.981-2.925,0.981c-1.283,0-2.293-0.324-3.031-0.973C127.743,58.58,127.373,57.666,127.373,56.488z"/>
		<path fill="#FFC627" d="M165.876,60.208V47.814c0-1.541-0.204-2.698-0.612-3.47c-0.408-0.771-1.053-1.155-1.934-1.155
			c-1.166,0-2.021,0.516-2.565,1.548c-0.544,1.032-0.817,2.648-0.817,4.848v10.622h-7.62V47.814c0-1.541-0.194-2.698-0.583-3.47
			c-0.388-0.771-1.017-1.155-1.885-1.155c-1.192,0-2.06,0.548-2.604,1.649c-0.545,1.101-0.816,2.896-0.816,5.391v9.979h-7.601
			V37.415h5.734l0.953,2.816h0.446c0.583-1.047,1.429-1.844,2.537-2.394c1.108-0.55,2.368-0.826,3.78-0.826
			c3.175,0,5.404,1,6.687,2.998h0.602c0.623-0.938,1.487-1.673,2.597-2.204c1.107-0.529,2.33-0.794,3.663-0.794
			c2.604,0,4.53,0.691,5.774,2.073c1.244,1.381,1.866,3.48,1.866,6.297v14.827H165.876z"/>
		<path fill="#FFC627" d="M174.989,37.415h8.007l3.733,13.077c0.182,0.683,0.306,1.508,0.368,2.474h0.156
			c0.104-0.925,0.26-1.736,0.467-2.434l3.83-13.117h7.755l-8.708,24.242c-1.113,3.085-2.486,5.264-4.111,6.539
			c-1.625,1.274-3.749,1.912-6.366,1.912c-1.011,0-2.047-0.114-3.109-0.343v-6.176c0.687,0.161,1.471,0.241,2.352,0.241
			c0.674,0,1.265-0.135,1.771-0.402c0.505-0.269,0.943-0.648,1.32-1.137c0.376-0.49,0.779-1.291,1.205-2.405L174.989,37.415z"/>
	</g>
	<linearGradient id="SVGID_1_" gradientUnits="userSpaceOnUse" x1="11.1265" y1="60.5161" x2="187.1225" y2="-3.5412">
		<stop  offset="0" style="stop-color:#388DCB"/>
		<stop  offset="0.5225" style="stop-color:#0FA0DB"/>
		<stop  offset="1" style="stop-color:#E1F3FC"/>
	</linearGradient>
	<path display="none" fill="url(#SVGID_1_)" d="M0,29.945c0,0,20.747-18.852,64.113-15.421c0,0,25.048-14.901,38.768-14.517
		c0,0,77.432,2.12,96.43,29.938c0,0-53.045-14.644-78.205-7.451c0,0,16.362-9.853,48.535-5.158c0,0-23.501-11.947-70.934-13.34
		c0,0-16.374,1.635-31.999,14.816C66.485,19,34.104,12.668,0,29.945z"/>
	<path fill="#00A1DF" d="M0,29.945c0,0,20.747-18.852,64.113-15.421c0,0,25.048-14.901,38.768-14.517c0,0,77.432,2.12,96.43,29.938
		c0,0-53.045-14.644-78.205-7.451c0,0,16.362-9.853,48.535-5.158c0,0-23.501-11.947-70.934-13.34c0,0-16.374,1.635-31.999,14.816
		C66.485,19,34.104,12.668,0,29.945z"/>
	<g>
		<g>
			<path fill="#77777A" d="M37.556,74.911l-1.747-5.692h-0.044c0.063,1.159,0.095,1.931,0.095,2.317v3.375h-1.375v-7.255h2.095
				l1.717,5.549h0.03l1.821-5.549h2.095v7.255h-1.435v-3.434c0-0.163,0.003-0.35,0.008-0.561c0.004-0.212,0.027-0.775,0.067-1.687
				h-0.045l-1.871,5.682H37.556z"/>
			<path fill="#77777A" d="M48.509,74.911l-0.526-1.728h-2.646l-0.526,1.728h-1.657l2.561-7.286h1.882l2.57,7.286H48.509z
				 M47.616,71.894c-0.487-1.565-0.761-2.45-0.821-2.655c-0.061-0.205-0.105-0.367-0.131-0.486c-0.11,0.423-0.422,1.47-0.938,3.141
				H47.616z"/>
			<path fill="#77777A" d="M51.079,74.911v-7.255h1.539v5.985h2.943v1.27H51.079z"/>
			<path fill="#77777A" d="M61.264,74.911l-0.526-1.728h-2.646l-0.526,1.728h-1.657l2.561-7.286h1.881l2.57,7.286H61.264z
				 M60.371,71.894c-0.487-1.565-0.761-2.45-0.821-2.655c-0.062-0.205-0.106-0.367-0.132-0.486c-0.109,0.423-0.422,1.47-0.938,3.141
				H60.371z"/>
			<path fill="#77777A" d="M66.092,70.643l1.514-2.987h1.657l-2.407,4.431v2.825h-1.528v-2.774l-2.407-4.481h1.667L66.092,70.643z"
				/>
			<path fill="#77777A" d="M74.46,72.896c0,0.655-0.236,1.171-0.707,1.549c-0.472,0.376-1.128,0.565-1.968,0.565
				c-0.774,0-1.459-0.145-2.055-0.437v-1.43c0.489,0.219,0.904,0.373,1.243,0.462c0.339,0.089,0.649,0.135,0.93,0.135
				c0.338,0,0.597-0.065,0.777-0.194c0.18-0.129,0.271-0.321,0.271-0.576c0-0.143-0.04-0.269-0.12-0.379
				c-0.08-0.112-0.196-0.218-0.35-0.321c-0.154-0.102-0.468-0.266-0.94-0.491c-0.443-0.208-0.776-0.409-0.998-0.601
				c-0.221-0.192-0.398-0.415-0.531-0.67c-0.132-0.254-0.199-0.552-0.199-0.893c0-0.641,0.218-1.146,0.654-1.513
				c0.435-0.368,1.036-0.55,1.803-0.55c0.377,0,0.738,0.044,1.08,0.133s0.7,0.215,1.074,0.378l-0.496,1.195
				c-0.386-0.159-0.707-0.27-0.96-0.333s-0.502-0.094-0.747-0.094c-0.292,0-0.514,0.068-0.67,0.204
				c-0.155,0.135-0.233,0.312-0.233,0.53c0,0.137,0.031,0.254,0.094,0.355s0.163,0.199,0.3,0.293
				c0.137,0.094,0.462,0.264,0.976,0.509c0.678,0.323,1.143,0.648,1.394,0.975C74.333,72.023,74.46,72.423,74.46,72.896z"/>
			<path fill="#77777A" d="M75.775,74.911v-7.255h1.538v7.255H75.775z"/>
			<path fill="#77777A" d="M83.582,74.911l-0.526-1.728H80.41l-0.526,1.728h-1.657l2.561-7.286h1.88l2.571,7.286H83.582z
				 M82.688,71.894c-0.486-1.565-0.76-2.45-0.821-2.655c-0.062-0.205-0.105-0.367-0.132-0.486c-0.108,0.423-0.422,1.47-0.938,3.141
				H82.688z"/>
			<path fill="#77777A" d="M87.254,67.655l0.069,0.109c-0.165,0.652-0.456,1.444-0.873,2.376h-1.086
				c0.228-0.979,0.393-1.808,0.496-2.485H87.254z"/>
			<path fill="#77777A" d="M92.639,72.896c0,0.655-0.236,1.171-0.708,1.549c-0.471,0.376-1.127,0.565-1.967,0.565
				c-0.775,0-1.459-0.145-2.055-0.437v-1.43c0.49,0.219,0.905,0.373,1.244,0.462c0.339,0.089,0.649,0.135,0.931,0.135
				c0.337,0,0.596-0.065,0.776-0.194c0.181-0.129,0.271-0.321,0.271-0.576c0-0.143-0.04-0.269-0.119-0.379
				c-0.079-0.112-0.196-0.218-0.35-0.321c-0.154-0.102-0.467-0.266-0.94-0.491c-0.443-0.208-0.776-0.409-0.998-0.601
				c-0.222-0.192-0.399-0.415-0.531-0.67c-0.133-0.254-0.199-0.552-0.199-0.893c0-0.641,0.218-1.146,0.652-1.513
				c0.436-0.368,1.036-0.55,1.805-0.55c0.377,0,0.736,0.044,1.079,0.133c0.342,0.089,0.7,0.215,1.074,0.378l-0.496,1.195
				c-0.387-0.159-0.708-0.27-0.96-0.333c-0.253-0.063-0.502-0.094-0.747-0.094c-0.292,0-0.515,0.068-0.67,0.204
				c-0.156,0.135-0.233,0.312-0.233,0.53c0,0.137,0.032,0.254,0.094,0.355c0.063,0.101,0.163,0.199,0.301,0.293
				c0.137,0.094,0.461,0.264,0.975,0.509c0.678,0.323,1.143,0.648,1.395,0.975C92.513,72.023,92.639,72.423,92.639,72.896z"/>
			<path fill="#00A1DF" d="M103.031,74.911h-1.956l-3.157-5.488h-0.044c0.063,0.969,0.095,1.661,0.095,2.074v3.414h-1.375v-7.255
				h1.94l3.151,5.434h0.034c-0.05-0.943-0.074-1.61-0.074-2v-3.434h1.386V74.911z"/>
			<path fill="#00A1DF" d="M111.188,71.273c0,1.201-0.299,2.125-0.894,2.768c-0.596,0.646-1.448,0.968-2.561,0.968
				s-1.965-0.322-2.562-0.968c-0.595-0.644-0.892-1.57-0.892-2.778c0-1.207,0.298-2.129,0.895-2.766
				c0.597-0.638,1.454-0.956,2.568-0.956c1.115,0,1.968,0.321,2.559,0.962C110.893,69.146,111.188,70.069,111.188,71.273z
				 M105.893,71.273c0,0.81,0.155,1.42,0.462,1.831c0.308,0.41,0.768,0.615,1.38,0.615c1.227,0,1.841-0.815,1.841-2.446
				c0-1.634-0.61-2.452-1.831-2.452c-0.612,0-1.074,0.206-1.384,0.618C106.049,69.852,105.893,70.462,105.893,71.273z"/>
			<path fill="#00A1DF" d="M112.105,74.201c0-0.278,0.074-0.488,0.224-0.63c0.149-0.144,0.365-0.213,0.649-0.213
				c0.275,0,0.488,0.072,0.639,0.218c0.15,0.145,0.226,0.354,0.226,0.625c0,0.261-0.076,0.466-0.229,0.618
				c-0.151,0.15-0.364,0.226-0.636,0.226c-0.277,0-0.492-0.073-0.645-0.22C112.182,74.676,112.105,74.469,112.105,74.201z"/>
			<path fill="#00A1DF" d="M118.368,74.911h-1.533v-4.198l0.015-0.69l0.024-0.754c-0.255,0.255-0.432,0.421-0.53,0.501l-0.834,0.67
				l-0.74-0.923l2.338-1.861h1.261V74.911z"/>
			<path fill="#77777A" d="M126.353,68.831c-0.579,0-1.026,0.218-1.344,0.653c-0.319,0.435-0.479,1.041-0.479,1.819
				c0,1.619,0.608,2.427,1.822,2.427c0.51,0,1.127-0.127,1.853-0.382v1.291c-0.596,0.248-1.262,0.372-1.996,0.372
				c-1.056,0-1.863-0.32-2.422-0.96c-0.559-0.64-0.839-1.559-0.839-2.757c0-0.753,0.137-1.414,0.412-1.982
				c0.274-0.567,0.669-1.002,1.184-1.306c0.514-0.302,1.117-0.453,1.809-0.453c0.705,0,1.413,0.169,2.124,0.511l-0.496,1.25
				c-0.271-0.13-0.544-0.241-0.819-0.337C126.887,68.879,126.617,68.831,126.353,68.831z"/>
			<path fill="#77777A" d="M134.189,74.911l-0.526-1.728h-2.646l-0.525,1.728h-1.658l2.561-7.286h1.882l2.57,7.286H134.189z
				 M133.296,71.894c-0.486-1.565-0.76-2.45-0.822-2.655c-0.061-0.205-0.104-0.367-0.131-0.486c-0.109,0.423-0.421,1.47-0.938,3.141
				H133.296z"/>
			<path fill="#77777A" d="M138.299,72.126v2.784h-1.539v-7.255h2.113c0.987,0,1.717,0.18,2.189,0.539s0.71,0.904,0.71,1.635
				c0,0.426-0.117,0.807-0.353,1.139c-0.235,0.333-0.567,0.593-0.997,0.781c1.091,1.633,1.803,2.686,2.135,3.162h-1.708
				l-1.732-2.784H138.299z M138.299,70.875h0.496c0.486,0,0.845-0.081,1.077-0.243c0.23-0.163,0.348-0.417,0.348-0.765
				c0-0.344-0.119-0.588-0.355-0.734c-0.236-0.146-0.604-0.219-1.1-0.219h-0.466V70.875z"/>
			<path fill="#77777A" d="M150.393,72.896c0,0.655-0.235,1.171-0.707,1.549c-0.472,0.376-1.127,0.565-1.968,0.565
				c-0.774,0-1.459-0.145-2.055-0.437v-1.43c0.489,0.219,0.904,0.373,1.243,0.462c0.339,0.089,0.649,0.135,0.932,0.135
				c0.337,0,0.595-0.065,0.775-0.194c0.181-0.129,0.271-0.321,0.271-0.576c0-0.143-0.04-0.269-0.12-0.379
				c-0.079-0.112-0.195-0.218-0.351-0.321c-0.153-0.102-0.466-0.266-0.939-0.491c-0.443-0.208-0.776-0.409-0.997-0.601
				c-0.222-0.192-0.398-0.415-0.532-0.67c-0.132-0.254-0.197-0.552-0.197-0.893c0-0.641,0.217-1.146,0.652-1.513
				c0.435-0.368,1.036-0.55,1.804-0.55c0.377,0,0.737,0.044,1.08,0.133s0.7,0.215,1.073,0.378l-0.495,1.195
				c-0.388-0.159-0.708-0.27-0.96-0.333c-0.254-0.063-0.503-0.094-0.748-0.094c-0.291,0-0.514,0.068-0.669,0.204
				c-0.156,0.135-0.234,0.312-0.234,0.53c0,0.137,0.031,0.254,0.094,0.355c0.063,0.101,0.164,0.199,0.302,0.293
				c0.138,0.094,0.461,0.264,0.975,0.509c0.678,0.323,1.143,0.648,1.395,0.975C150.267,72.023,150.393,72.423,150.393,72.896z"/>
			<path fill="#77777A" d="M151.708,74.911v-7.255h1.538v7.255H151.708z"/>
			<path fill="#77777A" d="M157.872,74.911h-1.538v-5.975h-1.971v-1.28h5.479v1.28h-1.97V74.911z"/>
			<path fill="#77777A" d="M165.138,74.911h-4.179v-7.255h4.179v1.259h-2.641v1.594h2.456v1.261h-2.456v1.871h2.641V74.911z"/>
		</g>
	</g>
</g>
</svg>
