<?xml version="1.0" encoding="utf-8"?>
<!-- Generator: Adobe Illustrator 16.0.4, SVG Export Plug-In . SVG Version: 6.00 Build 0)  -->
<!DOCTYPE svg PUBLIC "-//W3C//DTD SVG 1.1//EN" "http://www.w3.org/Graphics/SVG/1.1/DTD/svg11.dtd">
<svg version="1.1" id="Layer_1" xmlns="http://www.w3.org/2000/svg" xmlns:xlink="http://www.w3.org/1999/xlink" x="0px" y="0px"
	 width="199.071px" height="85.31px" viewBox="0 0 199.071 85.31" enable-background="new 0 0 199.071 85.31" xml:space="preserve">
<g>
	<g>
		<path fill="#FFC627" d="M0.868,37.123c0-1.414,0.394-2.468,1.182-3.16c0.787-0.69,2.059-1.037,3.811-1.037
			c1.752,0,3.03,0.354,3.834,1.061c0.804,0.708,1.207,1.753,1.207,3.136c0,2.765-1.681,4.148-5.041,4.148
			C2.532,41.271,0.868,39.888,0.868,37.123z M10.539,71.25h-9.43V43.924h9.43V71.25z"/>
		<path fill="#003A5D" d="M32.194,43.297c-2.267,0-4.036,0.93-5.306,2.786c-1.271,1.858-1.905,4.417-1.905,7.682
			c0,6.785,2.581,10.177,7.742,10.177c1.559,0,3.071-0.217,4.534-0.651c1.462-0.434,2.934-0.956,4.414-1.567v8.056
			c-2.942,1.302-6.271,1.953-9.985,1.953c-5.323,0-9.403-1.543-12.241-4.63c-2.837-3.087-4.257-7.55-4.257-13.386
			c0-3.65,0.688-6.858,2.062-9.624c1.375-2.765,3.353-4.892,5.933-6.378c2.581-1.488,5.616-2.232,9.104-2.232
			c3.811,0,7.453,0.829,10.926,2.484l-2.918,7.501c-1.302-0.611-2.605-1.125-3.907-1.544C35.088,43.507,33.689,43.297,32.194,43.297
			z"/>
		<path fill="#003A5D" d="M64.63,71.25l-1.809-3.618h-0.193c-1.271,1.577-2.565,2.654-3.883,3.232
			c-1.318,0.58-3.023,0.869-5.113,0.869c-2.573,0-4.599-0.771-6.078-2.315c-1.479-1.543-2.219-3.714-2.219-6.512
			c0-2.91,1.013-5.076,3.039-6.499c2.026-1.423,4.96-2.223,8.803-2.401l4.559-0.145v-0.386c0-2.251-1.109-3.377-3.328-3.377
			c-1.994,0-4.526,0.676-7.598,2.025l-2.726-6.222c3.184-1.64,7.203-2.46,12.06-2.46c3.505,0,6.219,0.868,8.14,2.605
			c1.921,1.737,2.882,4.164,2.882,7.284v17.92H64.63z M57.635,65.076c1.142,0,2.118-0.361,2.931-1.084
			c0.812-0.724,1.218-1.664,1.218-2.822v-2.122l-2.17,0.096c-3.104,0.113-4.655,1.254-4.655,3.425
			C54.958,64.241,55.851,65.076,57.635,65.076z"/>
		<path fill="#003A5D" d="M92.893,43.442c0.82,0,1.601,0.065,2.34,0.193l0.531,0.097l-0.844,8.9c-0.772-0.193-1.841-0.29-3.208-0.29
			c-2.058,0-3.554,0.471-4.486,1.412c-0.933,0.94-1.399,2.294-1.399,4.063V71.25h-9.43V43.924h7.019l1.471,4.365h0.458
			c0.787-1.447,1.884-2.616,3.292-3.508C90.043,43.889,91.461,43.442,92.893,43.442z"/>
		<path fill="#FFC627" d="M120.578,71.25l-1.737-6.608h-11.456L105.6,71.25H95.132l11.505-35.406h12.71l11.648,35.406H120.578z
			 M116.863,56.828l-1.52-5.788c-0.354-1.287-0.784-2.951-1.29-4.993c-0.506-2.042-0.84-3.505-1.001-4.39
			c-0.145,0.82-0.43,2.171-0.856,4.051c-0.426,1.882-1.371,5.588-2.834,11.119H116.863z"/>
		<path fill="#FFC627" d="M154.171,62.857c0,2.928-0.997,5.137-2.991,6.632s-4.856,2.243-8.586,2.243
			c-2.026,0-3.787-0.107-5.283-0.325c-1.495-0.217-3.022-0.616-4.582-1.194v-7.549c1.463,0.643,3.067,1.174,4.812,1.591
			c1.745,0.419,3.3,0.628,4.667,0.628c2.042,0,3.063-0.467,3.063-1.399c0-0.482-0.285-0.911-0.856-1.289s-2.231-1.114-4.98-2.208
			c-2.509-1.028-4.262-2.198-5.259-3.509c-0.997-1.31-1.495-2.97-1.495-4.981c0-2.54,0.981-4.518,2.943-5.933
			c1.961-1.415,4.734-2.123,8.321-2.123c1.8,0,3.493,0.198,5.077,0.591c1.583,0.394,3.228,0.969,4.932,1.724l-2.557,6.078
			c-1.253-0.563-2.581-1.04-3.979-1.434c-1.399-0.394-2.541-0.591-3.425-0.591c-1.543,0-2.315,0.377-2.315,1.133
			c0,0.467,0.27,0.866,0.808,1.195c0.538,0.33,2.094,1,4.667,2.013c1.913,0.788,3.34,1.56,4.281,2.316
			c0.94,0.756,1.631,1.645,2.074,2.666C153.95,60.153,154.171,61.395,154.171,62.857z"/>
		<path fill="#FFC627" d="M158.026,37.123c0-1.414,0.394-2.468,1.182-3.16c0.788-0.69,2.058-1.037,3.811-1.037
			s3.031,0.354,3.835,1.061c0.804,0.708,1.206,1.753,1.206,3.136c0,2.765-1.68,4.148-5.041,4.148
			C159.69,41.271,158.026,39.888,158.026,37.123z M167.698,71.25h-9.43V43.924h9.43V71.25z"/>
		<path fill="#FFC627" d="M190.92,71.25l-1.809-3.618h-0.192c-1.271,1.577-2.564,2.654-3.883,3.232
			c-1.318,0.58-3.022,0.869-5.112,0.869c-2.573,0-4.599-0.771-6.079-2.315c-1.479-1.543-2.219-3.714-2.219-6.512
			c0-2.91,1.013-5.076,3.039-6.499c2.026-1.423,4.961-2.223,8.804-2.401l4.558-0.145v-0.386c0-2.251-1.109-3.377-3.328-3.377
			c-1.994,0-4.527,0.676-7.598,2.025l-2.726-6.222c3.184-1.64,7.204-2.46,12.06-2.46c3.505,0,6.219,0.868,8.14,2.605
			c1.921,1.737,2.882,4.164,2.882,7.284v17.92H190.92z M183.926,65.076c1.141,0,2.119-0.361,2.931-1.084
			c0.812-0.724,1.217-1.664,1.217-2.822v-2.122l-2.17,0.096c-3.103,0.113-4.655,1.254-4.655,3.425
			C181.249,64.241,182.141,65.076,183.926,65.076z"/>
	</g>
	<path fill="#003A5D" d="M0,29.91c0,0,20.722-18.83,64.037-15.402c0,0,25.017-14.884,38.72-14.5c0,0,77.338,2.118,96.314,29.902
		c0,0-52.982-14.627-78.112-7.442c0,0,16.343-9.84,48.478-5.151c0,0-23.473-11.933-70.848-13.324c0,0-16.354,1.634-31.96,14.798
		C66.406,18.978,34.063,12.653,0,29.91z"/>
	<g>
		<g>
			<path fill="#77777A" d="M5.269,85.31l-0.401-1.315H2.854l-0.4,1.315H1.191l1.95-5.547h1.432L6.53,85.31H5.269z M4.588,83.012
				c-0.371-1.191-0.579-1.865-0.625-2.021c-0.046-0.156-0.08-0.279-0.1-0.371c-0.083,0.322-0.321,1.12-0.714,2.392H4.588z"/>
			<path fill="#77777A" d="M10.487,83.775c0,0.499-0.18,0.892-0.539,1.179c-0.359,0.287-0.858,0.431-1.499,0.431
				c-0.589,0-1.11-0.111-1.563-0.333v-1.087c0.372,0.166,0.688,0.282,0.946,0.351c0.258,0.067,0.494,0.102,0.708,0.102
				c0.257,0,0.454-0.049,0.591-0.147c0.138-0.099,0.206-0.244,0.206-0.439c0-0.107-0.029-0.204-0.089-0.288
				c-0.062-0.084-0.15-0.166-0.267-0.244c-0.118-0.078-0.355-0.204-0.716-0.375c-0.338-0.158-0.591-0.311-0.76-0.457
				c-0.169-0.146-0.303-0.316-0.403-0.51C7,81.764,6.95,81.538,6.95,81.278c0-0.489,0.166-0.873,0.498-1.152
				c0.331-0.28,0.789-0.42,1.373-0.42c0.288,0,0.561,0.034,0.822,0.103c0.261,0.067,0.534,0.164,0.818,0.287l-0.377,0.912
				c-0.295-0.122-0.539-0.207-0.731-0.253c-0.193-0.049-0.383-0.073-0.569-0.073c-0.221,0-0.391,0.052-0.51,0.155
				c-0.118,0.104-0.177,0.238-0.177,0.404c0,0.104,0.023,0.194,0.071,0.27c0.048,0.078,0.125,0.152,0.229,0.223
				c0.104,0.072,0.353,0.202,0.742,0.388c0.517,0.247,0.87,0.494,1.062,0.743C10.391,83.111,10.487,83.415,10.487,83.775z"/>
			<path fill="#77777A" d="M14.669,85.31h-3.182v-5.524h3.182v0.959h-2.01v1.213h1.87v0.959h-1.87v1.425h2.01V85.31z"/>
			<path fill="#77777A" d="M19.204,85.31l-0.401-1.315h-2.014l-0.4,1.315h-1.262l1.95-5.547h1.432l1.957,5.547H19.204z
				 M18.523,83.012c-0.371-1.191-0.579-1.865-0.625-2.021c-0.047-0.156-0.08-0.279-0.101-0.371c-0.083,0.322-0.321,1.12-0.714,2.392
				H18.523z"/>
			<path fill="#77777A" d="M26.062,85.31h-1.488L22.17,81.13h-0.034c0.047,0.738,0.072,1.265,0.072,1.58v2.6h-1.046v-5.524h1.477
				l2.399,4.137h0.027c-0.038-0.718-0.057-1.224-0.057-1.522v-2.615h1.054V85.31z"/>
			<path fill="#77777A" d="M28.313,79.786l-0.155,1.994h-0.743l-0.156-1.994H28.313z"/>
			<path fill="#77777A" d="M32.772,83.775c0,0.499-0.179,0.892-0.539,1.179c-0.358,0.287-0.858,0.431-1.498,0.431
				c-0.589,0-1.11-0.111-1.564-0.333v-1.087c0.373,0.166,0.688,0.282,0.946,0.351c0.258,0.067,0.494,0.102,0.709,0.102
				c0.257,0,0.454-0.049,0.591-0.147c0.137-0.099,0.205-0.244,0.205-0.439c0-0.107-0.03-0.204-0.09-0.288
				c-0.061-0.084-0.149-0.166-0.267-0.244s-0.355-0.204-0.716-0.375c-0.337-0.158-0.591-0.311-0.76-0.457
				c-0.169-0.146-0.303-0.316-0.404-0.51c-0.101-0.194-0.151-0.42-0.151-0.68c0-0.489,0.166-0.873,0.497-1.152
				c0.331-0.28,0.789-0.42,1.373-0.42c0.288,0,0.562,0.034,0.823,0.103c0.261,0.067,0.533,0.164,0.818,0.287l-0.378,0.912
				c-0.294-0.122-0.538-0.207-0.731-0.253c-0.192-0.049-0.382-0.073-0.568-0.073c-0.222,0-0.392,0.052-0.51,0.155
				c-0.118,0.104-0.177,0.238-0.177,0.404c0,0.104,0.024,0.194,0.071,0.27c0.048,0.078,0.125,0.152,0.229,0.223
				c0.105,0.072,0.353,0.202,0.743,0.388c0.517,0.247,0.87,0.494,1.062,0.743C32.677,83.111,32.772,83.415,32.772,83.775z"/>
			<path fill="#77777A" d="M40.685,85.31h-1.488l-2.404-4.179h-0.034c0.048,0.738,0.072,1.265,0.072,1.58v2.6h-1.046v-5.524h1.478
				l2.399,4.137h0.026c-0.038-0.718-0.057-1.224-0.057-1.522v-2.615h1.054V85.31z"/>
			<path fill="#77777A" d="M47.089,82.54c0,0.914-0.227,1.617-0.68,2.108s-1.103,0.737-1.95,0.737c-0.846,0-1.496-0.245-1.949-0.737
				s-0.68-1.197-0.68-2.116c0-0.92,0.227-1.623,0.682-2.107c0.454-0.485,1.106-0.727,1.955-0.727c0.849,0,1.499,0.244,1.947,0.733
				C46.865,80.92,47.089,81.623,47.089,82.54z M43.058,82.54c0,0.617,0.118,1.082,0.352,1.394c0.234,0.313,0.584,0.469,1.05,0.469
				c0.935,0,1.402-0.621,1.402-1.863c0-1.245-0.464-1.867-1.394-1.867c-0.466,0-0.817,0.157-1.055,0.471
				C43.176,81.457,43.058,81.922,43.058,82.54z"/>
			<path fill="#77777A" d="M47.981,84.769c0-0.211,0.057-0.371,0.17-0.479c0.113-0.109,0.278-0.162,0.495-0.162
				c0.209,0,0.371,0.055,0.486,0.167c0.114,0.111,0.172,0.269,0.172,0.475c0,0.199-0.058,0.357-0.174,0.471
				c-0.116,0.115-0.277,0.173-0.484,0.173c-0.211,0-0.375-0.057-0.491-0.168C48.04,85.131,47.981,84.973,47.981,84.769z"/>
			<path fill="#77777A" d="M52.943,85.31h-1.168v-3.196l0.012-0.526l0.019-0.575c-0.194,0.194-0.329,0.322-0.404,0.382l-0.635,0.51
				l-0.563-0.703l1.779-1.417h0.96V85.31z"/>
			<path fill="#77777A" d="M61.77,85.31h-1.488l-2.403-4.179h-0.034c0.047,0.738,0.071,1.265,0.071,1.58v2.6h-1.046v-5.524h1.478
				l2.399,4.137h0.026c-0.037-0.718-0.056-1.224-0.056-1.522v-2.615h1.054V85.31z"/>
			<path fill="#77777A" d="M66.342,85.31h-3.181v-5.524h3.181v0.959h-2.01v1.213h1.87v0.959h-1.87v1.425h2.01V85.31z"/>
			<path fill="#77777A" d="M69.625,85.31h-1.171v-4.55h-1.5v-0.974h4.172v0.974h-1.5V85.31z"/>
			<path fill="#77777A" d="M77.356,85.31h-1.333l-0.748-2.902c-0.027-0.103-0.075-0.317-0.143-0.64
				c-0.066-0.325-0.104-0.541-0.114-0.652c-0.016,0.136-0.053,0.355-0.114,0.655c-0.06,0.301-0.107,0.516-0.14,0.644L74.02,85.31
				h-1.33l-1.41-5.524h1.152L73.14,82.8c0.123,0.558,0.212,1.04,0.268,1.447c0.015-0.143,0.05-0.366,0.104-0.666
				c0.054-0.302,0.105-0.535,0.153-0.701l0.805-3.094h1.107l0.804,3.094c0.036,0.138,0.079,0.35,0.132,0.635
				c0.054,0.285,0.093,0.529,0.121,0.732c0.025-0.195,0.065-0.441,0.121-0.734c0.055-0.293,0.106-0.531,0.151-0.713l0.702-3.014
				h1.153L77.356,85.31z"/>
			<path fill="#77777A" d="M84.471,82.54c0,0.914-0.227,1.617-0.68,2.108c-0.453,0.492-1.103,0.737-1.949,0.737
				c-0.847,0-1.496-0.245-1.949-0.737c-0.454-0.492-0.681-1.197-0.681-2.116c0-0.92,0.227-1.623,0.682-2.107
				s1.107-0.727,1.956-0.727s1.499,0.244,1.948,0.733C84.247,80.92,84.471,81.623,84.471,82.54z M80.44,82.54
				c0,0.617,0.117,1.082,0.351,1.394c0.235,0.313,0.585,0.469,1.051,0.469c0.934,0,1.401-0.621,1.401-1.863
				c0-1.245-0.464-1.867-1.394-1.867c-0.466,0-0.818,0.157-1.054,0.471C80.558,81.457,80.44,81.922,80.44,82.54z"/>
			<path fill="#77777A" d="M86.788,83.189v2.12h-1.171v-5.524h1.61c0.75,0,1.306,0.137,1.666,0.41
				c0.361,0.273,0.541,0.688,0.541,1.245c0,0.325-0.089,0.614-0.268,0.868s-0.432,0.451-0.759,0.595
				c0.831,1.243,1.372,2.044,1.625,2.407h-1.3l-1.318-2.12H86.788z M86.788,82.238h0.378c0.37,0,0.643-0.062,0.819-0.185
				c0.177-0.124,0.264-0.318,0.264-0.582c0-0.262-0.09-0.449-0.27-0.56c-0.181-0.111-0.459-0.167-0.837-0.167h-0.355V82.238z"/>
			<path fill="#77777A" d="M95.168,85.31h-1.33l-1.447-2.328l-0.495,0.355v1.973h-1.171v-5.524h1.171v2.528l0.461-0.651l1.497-1.877
				h1.299l-1.927,2.445L95.168,85.31z"/>
			<path fill="#77777A" d="M102.888,82.54c0,0.914-0.227,1.617-0.68,2.108c-0.453,0.492-1.104,0.737-1.95,0.737
				c-0.847,0-1.496-0.245-1.949-0.737s-0.681-1.197-0.681-2.116c0-0.92,0.227-1.623,0.682-2.107
				c0.456-0.485,1.106-0.727,1.956-0.727c0.849,0,1.499,0.244,1.947,0.733C102.664,80.92,102.888,81.623,102.888,82.54z
				 M98.857,82.54c0,0.617,0.117,1.082,0.351,1.394c0.235,0.313,0.585,0.469,1.05,0.469c0.935,0,1.402-0.621,1.402-1.863
				c0-1.245-0.465-1.867-1.394-1.867c-0.466,0-0.817,0.157-1.054,0.471C98.975,81.457,98.857,81.922,98.857,82.54z"/>
			<path fill="#77777A" d="M105.186,85.31h-1.153v-5.524h3.167v0.959h-2.014v1.425h1.874v0.956h-1.874V85.31z"/>
			<path fill="#77777A" d="M113.673,85.31l-0.401-1.315h-2.013l-0.401,1.315h-1.263l1.95-5.547h1.433l1.957,5.547H113.673z
				 M112.992,83.012c-0.369-1.191-0.578-1.865-0.625-2.021c-0.046-0.156-0.08-0.279-0.1-0.371c-0.083,0.322-0.321,1.12-0.714,2.392
				H112.992z"/>
			<path fill="#77777A" d="M120.127,79.786v3.574c0,0.408-0.091,0.765-0.274,1.073c-0.183,0.308-0.446,0.542-0.792,0.707
				c-0.346,0.163-0.753,0.245-1.224,0.245c-0.711,0-1.263-0.182-1.656-0.546c-0.394-0.364-0.59-0.862-0.59-1.495v-3.559h1.168v3.381
				c0,0.427,0.085,0.738,0.257,0.938c0.17,0.199,0.454,0.299,0.85,0.299c0.383,0,0.661-0.1,0.834-0.301
				c0.171-0.2,0.258-0.514,0.258-0.941v-3.375H120.127z"/>
			<path fill="#77777A" d="M123.61,85.31h-1.171v-4.55h-1.5v-0.974h4.171v0.974h-1.5V85.31z"/>
			<path fill="#77777A" d="M130.975,82.54c0,0.914-0.227,1.617-0.681,2.108c-0.453,0.492-1.103,0.737-1.95,0.737
				c-0.846,0-1.496-0.245-1.949-0.737s-0.68-1.197-0.68-2.116c0-0.92,0.228-1.623,0.682-2.107c0.455-0.485,1.107-0.727,1.956-0.727
				c0.849,0,1.498,0.244,1.947,0.733C130.75,80.92,130.975,81.623,130.975,82.54z M126.942,82.54c0,0.617,0.118,1.082,0.352,1.394
				c0.234,0.313,0.583,0.469,1.05,0.469c0.935,0,1.402-0.621,1.402-1.863c0-1.245-0.464-1.867-1.394-1.867
				c-0.467,0-0.818,0.157-1.055,0.471C127.061,81.457,126.942,81.922,126.942,82.54z"/>
			<path fill="#77777A" d="M134.458,85.31l-1.33-4.334h-0.034c0.048,0.882,0.071,1.47,0.071,1.765v2.569h-1.046v-5.524h1.593
				l1.308,4.224h0.023l1.387-4.224h1.594v5.524h-1.092v-2.615c0-0.124,0.001-0.266,0.005-0.427c0.004-0.162,0.021-0.59,0.052-1.285
				h-0.034l-1.424,4.327H134.458z"/>
			<path fill="#77777A" d="M144.43,82.54c0,0.914-0.227,1.617-0.681,2.108c-0.453,0.492-1.104,0.737-1.95,0.737
				c-0.845,0-1.497-0.245-1.95-0.737c-0.453-0.492-0.679-1.197-0.679-2.116c0-0.92,0.226-1.623,0.682-2.107
				c0.453-0.485,1.105-0.727,1.955-0.727c0.849,0,1.498,0.244,1.947,0.733C144.205,80.92,144.43,81.623,144.43,82.54z
				 M140.397,82.54c0,0.617,0.117,1.082,0.352,1.394c0.233,0.313,0.583,0.469,1.05,0.469c0.934,0,1.402-0.621,1.402-1.863
				c0-1.245-0.465-1.867-1.394-1.867c-0.466,0-0.818,0.157-1.055,0.471C140.517,81.457,140.397,81.922,140.397,82.54z"/>
			<path fill="#77777A" d="M147.705,85.31h-1.17v-4.55h-1.5v-0.974h4.17v0.974h-1.5V85.31z"/>
			<path fill="#77777A" d="M150.056,85.31v-5.524h1.17v5.524H150.056z"/>
			<path fill="#77777A" d="M155.769,79.786h1.184l-1.879,5.524h-1.277l-1.873-5.524h1.181l1.041,3.287
				c0.058,0.194,0.117,0.42,0.179,0.678c0.062,0.258,0.1,0.438,0.115,0.538c0.028-0.231,0.123-0.638,0.284-1.216L155.769,79.786z"/>
			<path fill="#77777A" d="M160.829,85.31h-3.182v-5.524h3.182v0.959h-2.009v1.213h1.87v0.959h-1.87v1.425h2.009V85.31z"/>
			<path fill="#77777A" d="M167.808,81.508c0,0.595-0.185,1.05-0.557,1.365c-0.373,0.314-0.9,0.472-1.585,0.472h-0.503v1.965h-1.17
				v-5.524h1.764c0.67,0,1.18,0.145,1.529,0.433S167.808,80.937,167.808,81.508z M165.162,82.385h0.386
				c0.361,0,0.629-0.071,0.81-0.213c0.178-0.142,0.269-0.35,0.269-0.622c0-0.275-0.076-0.477-0.226-0.609
				c-0.149-0.131-0.386-0.197-0.706-0.197h-0.533V82.385z"/>
			<path fill="#77777A" d="M173.864,82.54c0,0.914-0.227,1.617-0.68,2.108c-0.454,0.492-1.104,0.737-1.951,0.737
				c-0.846,0-1.495-0.245-1.948-0.737c-0.453-0.492-0.68-1.197-0.68-2.116c0-0.92,0.227-1.623,0.681-2.107
				c0.456-0.485,1.106-0.727,1.956-0.727c0.849,0,1.499,0.244,1.948,0.733C173.639,80.92,173.864,81.623,173.864,82.54z
				 M169.833,82.54c0,0.617,0.116,1.082,0.351,1.394c0.234,0.313,0.584,0.469,1.049,0.469c0.937,0,1.402-0.621,1.402-1.863
				c0-1.245-0.465-1.867-1.394-1.867c-0.466,0-0.817,0.157-1.054,0.471C169.95,81.457,169.833,81.922,169.833,82.54z"/>
			<path fill="#77777A" d="M176.181,83.189v2.12h-1.172v-5.524h1.609c0.751,0,1.307,0.137,1.667,0.41
				c0.36,0.273,0.541,0.688,0.541,1.245c0,0.325-0.09,0.614-0.269,0.868c-0.179,0.253-0.433,0.451-0.761,0.595
				c0.831,1.243,1.374,2.044,1.625,2.407h-1.3l-1.32-2.12H176.181z M176.181,82.238h0.378c0.37,0,0.643-0.062,0.82-0.185
				c0.176-0.124,0.264-0.318,0.264-0.582c0-0.262-0.09-0.449-0.27-0.56c-0.18-0.111-0.458-0.167-0.837-0.167h-0.355V82.238z"/>
			<path fill="#77777A" d="M182.25,85.31h-1.172v-4.55h-1.5v-0.974h4.173v0.974h-1.5V85.31z"/>
			<path fill="#77777A" d="M187.98,85.31l-0.4-1.315h-2.014l-0.4,1.315h-1.262l1.949-5.547h1.432l1.957,5.547H187.98z M187.3,83.012
				c-0.37-1.191-0.579-1.865-0.626-2.021c-0.046-0.156-0.079-0.279-0.1-0.371c-0.083,0.322-0.321,1.12-0.713,2.392H187.3z"/>
			<path fill="#77777A" d="M189.938,85.31v-5.524h1.17v4.557h2.242v0.967H189.938z"/>
			<path fill="#77777A" d="M197.571,83.775c0,0.499-0.18,0.892-0.538,1.179c-0.359,0.287-0.859,0.431-1.5,0.431
				c-0.59,0-1.11-0.111-1.564-0.333v-1.087c0.373,0.166,0.688,0.282,0.947,0.351c0.256,0.067,0.494,0.102,0.707,0.102
				c0.257,0,0.455-0.049,0.592-0.147c0.138-0.099,0.206-0.244,0.206-0.439c0-0.107-0.031-0.204-0.09-0.288
				c-0.062-0.084-0.15-0.166-0.267-0.244s-0.355-0.204-0.715-0.375c-0.337-0.158-0.591-0.311-0.759-0.457
				c-0.168-0.146-0.304-0.316-0.405-0.51c-0.102-0.194-0.152-0.42-0.152-0.68c0-0.489,0.167-0.873,0.497-1.152
				c0.332-0.28,0.79-0.42,1.374-0.42c0.288,0,0.562,0.034,0.822,0.103c0.262,0.067,0.534,0.164,0.818,0.287l-0.378,0.912
				c-0.294-0.122-0.539-0.207-0.73-0.253c-0.193-0.049-0.382-0.073-0.569-0.073c-0.222,0-0.392,0.052-0.51,0.155
				c-0.119,0.104-0.178,0.238-0.178,0.404c0,0.104,0.024,0.194,0.073,0.27c0.048,0.078,0.124,0.152,0.228,0.223
				c0.105,0.072,0.353,0.202,0.743,0.388c0.517,0.247,0.87,0.494,1.062,0.743C197.475,83.111,197.571,83.415,197.571,83.775z"/>
		</g>
	</g>
</g>
</svg>
