<?xml version="1.0" encoding="utf-8"?>
<!-- Generator: Adobe Illustrator 16.0.4, SVG Export Plug-In . SVG Version: 6.00 Build 0)  -->
<!DOCTYPE svg PUBLIC "-//W3C//DTD SVG 1.1//EN" "http://www.w3.org/Graphics/SVG/1.1/DTD/svg11.dtd">
<svg version="1.1" id="Layer_1" xmlns="http://www.w3.org/2000/svg" xmlns:xlink="http://www.w3.org/1999/xlink" x="0px" y="0px"
	 width="170.692px" height="62.306px" viewBox="0 0 170.692 62.306" enable-background="new 0 0 170.692 62.306"
	 xml:space="preserve">
<g>
	<path fill="#6BA0D6" d="M0,29.942l1.823-3.164L13.187,5.381l1.209-2.394c0.351-0.703,0.842-1.714,1.472-3.032
		C18.446-0.015,20.327,0,21.513,0c2.065,0,3.976-0.015,5.733-0.045l3.206,9.161l6.52,17.618l1.273,3.208
		c-2.536-0.03-4.075-0.044-4.617-0.044c-1.232,0-3.043,0.014-5.432,0.044c-0.644-2.417-1.572-5.258-2.786-8.524H14.352
		c-1.273,2.578-2.59,5.419-3.95,8.524c-2.728-0.03-4.399-0.044-5.015-0.044C4.273,29.898,2.477,29.913,0,29.942 M17.008,15.025
		h6.823c-1.696-5.16-2.624-8.004-2.785-8.53c-0.966,2.149-1.785,3.911-2.458,5.285L17.008,15.025z"/>
	<path fill="#6BA0D6" d="M41.875-0.044C44.159-0.014,45.769,0,46.706,0c1.171,0,2.73-0.014,4.677-0.044l-0.654,9.336
		c-0.13,1.758-0.229,3.406-0.294,4.943c-0.065,1.538-0.098,2.6-0.098,3.185c0,1.114,0.081,2.044,0.241,2.79
		c0.161,0.747,0.454,1.381,0.879,1.901c0.424,0.519,1.013,0.911,1.766,1.175c0.754,0.264,1.541,0.395,2.36,0.395
		c0.703,0,1.361-0.096,1.976-0.287c0.483-0.157,0.914-0.375,1.295-0.654c0.336-0.262,0.629-0.567,0.877-0.916
		c0.308-0.418,0.579-0.941,0.813-1.569c0.234-0.593,0.409-1.361,0.527-2.302c0.131-0.959,0.307-3.139,0.527-6.54
		c0.191-2.894,0.337-5.545,0.44-7.952c0.088-2.337,0.168-3.505,0.241-3.505h5.228h4.46l-1.068,15.597
		c-0.014,0.293-0.022,0.535-0.022,0.725c-0.059,3.047-0.245,5.196-0.561,6.448c-0.315,1.252-0.838,2.339-1.57,3.262
		c-0.733,0.923-1.803,1.754-3.209,2.494c-1.406,0.739-3.003,1.263-4.79,1.57c-1.788,0.308-3.597,0.461-5.428,0.461
		c-1.641,0-3.223-0.117-4.746-0.351c-1.407-0.234-2.674-0.575-3.802-1.022c-1.128-0.446-2.109-0.97-2.944-1.57
		c-0.762-0.556-1.348-1.124-1.758-1.702c-0.411-0.579-0.733-1.271-0.967-2.077c-0.264-0.908-0.395-1.881-0.395-2.921
		c0-0.352,0.014-0.883,0.043-1.593c0.03-0.71,0.096-1.732,0.199-3.065l0.287-3.514c0.074-0.923,0.154-2.278,0.243-4.065
		L41.875-0.044z"/>
	<path fill="#6BA0D6" d="M82.203,29.942c0.727-7.118,1.164-14.953,1.309-23.506l-9.349,0.242l0.11-2.439
		c0.058-1.302,0.102-2.731,0.132-4.283C78.562-0.015,83.408,0,88.943,0l5.424-0.022h5.271l2.855-0.022l-0.132,2.152
		c-0.058,1.154-0.099,2.107-0.12,2.862c-0.022,0.754-0.034,1.324-0.034,1.708c-3.131-0.161-5.714-0.242-7.747-0.242h-1.536
		c-0.222,2.588-0.391,4.978-0.509,7.171c-0.162,3.142-0.287,6.194-0.376,9.154s-0.133,5.354-0.133,7.181
		c-2.4-0.029-3.952-0.044-4.654-0.044C86.622,29.898,84.939,29.913,82.203,29.942"/>
	<path fill="#6BA0D6" d="M122.229-0.616c2.343,0,4.599,0.315,6.766,0.945s4.064,1.637,5.69,3.021
		c1.625,1.384,2.841,2.976,3.646,4.778c0.806,1.801,1.209,3.873,1.209,6.217c0,2.46-0.444,4.719-1.33,6.777
		c-0.886,2.057-2.163,3.804-3.833,5.239c-1.669,1.436-3.662,2.486-5.975,3.152c-2.315,0.667-4.723,1-7.228,1
		c-2.475,0-4.847-0.326-7.117-0.977c-2.27-0.652-4.244-1.706-5.921-3.164c-1.677-1.457-2.866-3.079-3.57-4.866
		c-0.703-1.786-1.054-3.771-1.054-5.953c0-3.207,0.743-6.023,2.23-8.447c1.486-2.423,3.69-4.317,6.612-5.678
		C115.276,0.066,118.567-0.616,122.229-0.616 M121.833,5.997c-1.684,0-3.207,0.414-4.569,1.241
		c-1.362,0.827-2.409,1.977-3.141,3.448c-0.733,1.473-1.099,3.051-1.099,4.735c0,1.553,0.333,2.973,1,4.262
		c0.666,1.289,1.681,2.295,3.042,3.021c1.363,0.725,2.805,1.087,4.328,1.087c1.626,0,3.116-0.407,4.47-1.219
		c1.355-0.813,2.387-1.956,3.098-3.428c0.71-1.471,1.065-3.013,1.065-4.624c0-1.566-0.329-3.013-0.988-4.338
		c-0.659-1.326-1.626-2.354-2.9-3.087C124.865,6.363,123.43,5.997,121.833,5.997"/>
	<path fill="#FFFFFF" d="M32.163,61.845c-0.19-3.12-0.41-5.616-0.659-7.491c1.643,0.732,3.107,1.241,4.39,1.527
		c1.284,0.285,2.411,0.428,3.379,0.428c1.276,0,2.292-0.187,3.048-0.56c0.756-0.373,1.134-0.926,1.134-1.659
		c0-0.248-0.037-0.487-0.111-0.714c-0.073-0.226-0.212-0.483-0.418-0.769c-0.205-0.285-0.499-0.596-0.88-0.933l-4.139-3.603
		c-0.969-0.82-1.644-1.413-2.025-1.779c-0.778-0.747-1.384-1.443-1.817-2.087c-0.433-0.645-0.748-1.299-0.946-1.966
		c-0.198-0.666-0.297-1.373-0.297-2.12c0-0.893,0.157-1.769,0.472-2.626c0.315-0.856,0.787-1.658,1.417-2.405
		c0.63-0.747,1.465-1.391,2.505-1.933c1.039-0.542,2.153-0.912,3.338-1.109c1.187-0.198,2.409-0.297,3.67-0.297
		c2.474,0,5.169,0.285,8.083,0.857c0.044,1.01,0.095,1.937,0.154,2.779c0.058,0.842,0.198,2.317,0.418,4.426
		c-1.348-0.541-2.578-0.919-3.691-1.131c-1.113-0.212-2.073-0.318-2.878-0.318c-1.142,0-2.091,0.212-2.845,0.636
		c-0.754,0.425-1.131,0.952-1.131,1.582c0,0.293,0.058,0.579,0.176,0.857c0.117,0.278,0.337,0.604,0.658,0.977
		c0.323,0.374,0.748,0.784,1.275,1.23c0.527,0.448,1.354,1.11,2.482,1.989l1.582,1.252c0.469,0.381,0.974,0.842,1.516,1.384
		c0.541,0.542,1.01,1.076,1.406,1.603c0.395,0.528,0.699,1.011,0.911,1.451c0.213,0.439,0.37,0.882,0.473,1.329
		c0.102,0.446,0.153,0.926,0.153,1.438c0,1.318-0.315,2.574-0.944,3.768c-0.63,1.194-1.524,2.174-2.68,2.944
		c-1.157,0.768-2.428,1.307-3.811,1.614c-1.385,0.308-2.846,0.461-4.383,0.461C38.775,62.876,35.78,62.533,32.163,61.845"/>
	<path fill="#FFFFFF" d="M57.382,62.306l0.436-5.624l0.567-10.984l0.24-7.776c0.015-0.835,0.022-1.67,0.022-2.505
		c0-0.63-0.007-1.662-0.022-3.097c1.934,0.044,3.487,0.066,4.659,0.066c1.128,0,2.673-0.033,4.637-0.099
		c1.962-0.066,3.626-0.099,4.989-0.099c1.962,0,3.416,0.125,4.361,0.373c0.945,0.25,1.799,0.641,2.56,1.176
		c0.762,0.534,1.393,1.161,1.891,1.878c0.497,0.718,0.871,1.534,1.12,2.45c0.249,0.914,0.374,1.848,0.374,2.8
		c0,1.963-0.476,3.757-1.428,5.382c-0.952,1.626-2.292,2.842-4.02,3.647c-1.728,0.806-3.669,1.208-5.822,1.208
		c-0.79,0-1.706-0.088-2.745-0.263c-0.118-0.674-0.338-1.677-0.659-3.01c-0.323-1.333-0.587-2.321-0.791-2.965
		c0.644,0.131,1.318,0.197,2.021,0.197c1.479,0,2.581-0.355,3.306-1.065c0.725-0.711,1.087-1.579,1.087-2.604
		c0-0.498-0.08-0.94-0.241-1.329c-0.162-0.387-0.418-0.706-0.77-0.955c-0.351-0.249-0.739-0.41-1.164-0.484
		c-0.424-0.072-0.908-0.11-1.449-0.11c-0.528,0-1.077,0.016-1.648,0.044l-1.845,0.132c-0.189,2.827-0.334,5.969-0.435,9.425
		c-0.189,6.297-0.283,10.076-0.283,11.335v2.856l-4.375-0.044C61.339,62.262,59.815,62.277,57.382,62.306"/>
	<path fill="#FFFFFF" d="M86.095,62.306c0.843-11.76,1.266-20.811,1.266-27.152l-0.022-2.834c2.565,0.029,4.28,0.044,5.145,0.044
		c0.395,0,1.971-0.015,4.727-0.044c-0.265,3.295-0.479,6.414-0.64,9.358c-0.206,4.101-0.353,7.934-0.442,11.501
		c-0.088,3.565-0.131,6.608-0.131,9.127l-4.502-0.044C90.617,62.262,88.818,62.277,86.095,62.306"/>
	<path fill="#FFFFFF" d="M101.406,62.306l0.439-4.613l0.857-15.641l0.242-6.305V32.32c2.274,0.029,4.283,0.044,6.028,0.044
		c1.247,0,3-0.015,5.259-0.044l9.378,17.053l1.293,2.506c0.165-2.461,0.334-5.911,0.506-10.351c0.173-4.439,0.26-7.509,0.26-9.208
		c1.799,0.029,3.24,0.044,4.322,0.044c0.498,0,1.932-0.015,4.302-0.044l-0.527,6.546l-0.989,18.19l-0.132,5.25
		c-1.905-0.029-3.686-0.044-5.342-0.044c-1.377,0-3.283,0.015-5.715,0.044c-0.76-1.436-1.324-2.476-1.689-3.121l-3.686-6.263
		c-1.214-2.051-2.333-4.014-3.357-5.89c-0.673-1.186-1.367-2.491-2.084-3.912l-0.473,10.417l-0.225,8.769
		c-1.814-0.029-3.196-0.044-4.147-0.044C105.121,62.262,103.615,62.277,101.406,62.306"/>
	<path fill="#FFFFFF" d="M138.333,62.306l0.44-4.613l0.857-15.641l0.241-6.305V32.32c2.274,0.029,4.283,0.044,6.029,0.044
		c1.246,0,2.999-0.015,5.259-0.044l9.377,17.053l1.293,2.506c0.165-2.461,0.334-5.911,0.507-10.351
		c0.172-4.439,0.259-7.509,0.259-9.208c1.8,0.029,3.241,0.044,4.323,0.044c0.498,0,1.931-0.015,4.301-0.044l-0.527,6.546
		l-0.988,18.19l-0.132,5.25c-1.906-0.029-3.688-0.044-5.343-0.044c-1.377,0-3.282,0.015-5.714,0.044
		c-0.761-1.436-1.325-2.476-1.69-3.121l-3.686-6.263c-1.214-2.051-2.333-4.014-3.356-5.89c-0.673-1.186-1.368-2.491-2.085-3.912
		l-0.472,10.417L147,62.306c-1.813-0.029-3.196-0.044-4.146-0.044C142.049,62.262,140.542,62.277,138.333,62.306"/>
</g>
<g>
	<defs>
		<path id="SVGID_1_" d="M134.584,0.717c0.33,0.271,0.673,0.568,1.028,0.896c1.788-0.352,3.638-0.537,5.53-0.537
			c15.727,0,28.476,12.75,28.476,28.476c0,0.322-0.006,0.642-0.016,0.961h1.09c0.01-0.319,0.015-0.64,0.015-0.961
			c0-16.328-13.236-29.565-29.565-29.565C138.888-0.013,136.693,0.24,134.584,0.717"/>
	</defs>
	<clipPath id="SVGID_2_">
		<use xlink:href="#SVGID_1_"  overflow="visible"/>
	</clipPath>
	
		<linearGradient id="SVGID_3_" gradientUnits="userSpaceOnUse" x1="-107.5952" y1="411.0054" x2="-106.5946" y2="411.0054" gradientTransform="matrix(41.8215 41.8215 -41.8215 41.8215 21821.5566 -12693.4258)">
		<stop  offset="0" style="stop-color:#E5E5E4"/>
		<stop  offset="0.6154" style="stop-color:#CCCBCB"/>
		<stop  offset="0.663" style="stop-color:#A2A0A0"/>
		<stop  offset="0.7211" style="stop-color:#807E7E"/>
		<stop  offset="0.7819" style="stop-color:#696767"/>
		<stop  offset="0.846" style="stop-color:#595959"/>
		<stop  offset="0.9154" style="stop-color:#505151"/>
		<stop  offset="1" style="stop-color:#4E4F4F"/>
	</linearGradient>
	<polygon clip-path="url(#SVGID_2_)" fill="url(#SVGID_3_)" points="119.321,15.25 152.646,48.574 185.97,15.25 152.646,-18.075 	
		"/>
</g>
<g>
	<defs>
		<path id="SVGID_4_" d="M135.612,1.613c0.474,0.439,0.967,0.931,1.47,1.481c1.324-0.201,2.679-0.306,4.06-0.306
			c14.781,0,26.765,11.983,26.765,26.764c0,0.321-0.006,0.642-0.017,0.961h1.712c0.01-0.319,0.016-0.639,0.016-0.961
			c0-15.726-12.749-28.476-28.476-28.476C139.25,1.076,137.4,1.261,135.612,1.613"/>
	</defs>
	<clipPath id="SVGID_5_">
		<use xlink:href="#SVGID_4_"  overflow="visible"/>
	</clipPath>
	
		<linearGradient id="SVGID_6_" gradientUnits="userSpaceOnUse" x1="-107.6123" y1="410.8364" x2="-106.6123" y2="410.8364" gradientTransform="matrix(-2.811 -26.3008 -26.3008 2.811 10656.9766 -3954.9639)">
		<stop  offset="0" style="stop-color:#979696"/>
		<stop  offset="0.4011" style="stop-color:#BBBABA"/>
		<stop  offset="0.6154" style="stop-color:#CCCBCB"/>
		<stop  offset="0.6564" style="stop-color:#D5D4D4"/>
		<stop  offset="0.7477" style="stop-color:#E5E5E5"/>
		<stop  offset="0.8468" style="stop-color:#EFEFEF"/>
		<stop  offset="0.967" style="stop-color:#F3F3F3"/>
		<stop  offset="1" style="stop-color:#F3F3F3"/>
	</linearGradient>
	<polygon clip-path="url(#SVGID_5_)" fill="url(#SVGID_6_)" points="135.996,34.106 132.501,1.408 169.234,-2.518 172.729,30.181 	
		"/>
</g>
<g>
	<defs>
		<path id="SVGID_7_" d="M145.127,18.732c1.309,4.84-2.463,11.781-2.463,11.781h31.33l-0.327-0.961V-1.201L130.81-1.666
			C130.81-1.666,140.584,1.952,145.127,18.732"/>
	</defs>
	<clipPath id="SVGID_8_">
		<use xlink:href="#SVGID_7_"  overflow="visible"/>
	</clipPath>
	<path clip-path="url(#SVGID_8_)" fill="#BD232F" d="M141.408,7.665c0,0.107-0.119,0.194-0.267,0.194
		c-0.147,0-0.266-0.087-0.266-0.194V4.85c0-0.108,0.119-0.195,0.266-0.195c0.148,0,0.267,0.087,0.267,0.195V7.665"/>
	<path clip-path="url(#SVGID_8_)" fill="#BD232F" d="M132.483,9.449c0.043,0.097-0.03,0.226-0.165,0.286
		c-0.134,0.059-0.279,0.028-0.323-0.07l-1.145-2.571c-0.044-0.099,0.03-0.227,0.164-0.286c0.136-0.06,0.28-0.03,0.323,0.068
		L132.483,9.449"/>
	<path clip-path="url(#SVGID_8_)" fill="#BD232F" d="M125.055,14.708c0.079,0.072,0.064,0.219-0.035,0.329
		c-0.098,0.109-0.243,0.14-0.322,0.068l-2.093-1.884c-0.08-0.072-0.064-0.219,0.034-0.328c0.099-0.109,0.243-0.141,0.323-0.068
		L125.055,14.708z"/>
	<path clip-path="url(#SVGID_8_)" fill="#BD232F" d="M120.409,22.534c0.101,0.033,0.147,0.174,0.101,0.314
		c-0.045,0.14-0.164,0.227-0.267,0.194l-2.677-0.87c-0.103-0.034-0.148-0.174-0.102-0.314c0.046-0.139,0.164-0.227,0.267-0.194
		L120.409,22.534z"/>
	<path clip-path="url(#SVGID_8_)" fill="#BD232F" d="M119.346,31.575c0.107-0.012,0.206,0.098,0.221,0.245
		c0.016,0.146-0.058,0.275-0.165,0.286l-2.801,0.294c-0.106,0.011-0.205-0.099-0.22-0.245c-0.015-0.147,0.058-0.275,0.166-0.286
		L119.346,31.575z"/>
	<path clip-path="url(#SVGID_8_)" fill="#BD232F" d="M122.054,40.264c0.093-0.053,0.228,0.007,0.301,0.134
		c0.074,0.128,0.059,0.275-0.034,0.328l-2.439,1.409c-0.094,0.053-0.228-0.007-0.301-0.134c-0.074-0.129-0.059-0.276,0.034-0.328
		L122.054,40.264z"/>
	<path clip-path="url(#SVGID_8_)" fill="#BD232F" d="M159.964,40.727c-0.094-0.053-0.109-0.201-0.035-0.328
		c0.074-0.127,0.208-0.188,0.301-0.134l2.439,1.408c0.093,0.053,0.108,0.201,0.034,0.327c-0.073,0.128-0.208,0.189-0.301,0.135
		L159.964,40.727"/>
	<path clip-path="url(#SVGID_8_)" fill="#BD232F" d="M162.882,32.105c-0.107-0.01-0.181-0.139-0.166-0.286
		c0.016-0.146,0.114-0.256,0.221-0.244l2.8,0.294c0.107,0.011,0.181,0.139,0.166,0.285c-0.017,0.147-0.115,0.257-0.222,0.245
		L162.882,32.105"/>
	<path clip-path="url(#SVGID_8_)" fill="#BD232F" d="M162.041,23.042c-0.102,0.033-0.222-0.055-0.268-0.194
		c-0.045-0.14,0-0.281,0.102-0.314l2.679-0.87c0.102-0.034,0.221,0.054,0.266,0.193c0.045,0.141,0.001,0.281-0.102,0.314
		L162.041,23.042"/>
	<path clip-path="url(#SVGID_8_)" fill="#BD232F" d="M157.585,15.104c-0.079,0.073-0.224,0.041-0.322-0.068
		c-0.099-0.11-0.114-0.256-0.034-0.329l2.092-1.884c0.08-0.072,0.224-0.04,0.323,0.069c0.098,0.11,0.114,0.256,0.034,0.328
		L157.585,15.104"/>
	<path clip-path="url(#SVGID_8_)" fill="#BD232F" d="M150.288,9.665c-0.043,0.1-0.188,0.129-0.322,0.069
		c-0.135-0.061-0.21-0.188-0.166-0.285l1.146-2.574c0.043-0.098,0.189-0.127,0.323-0.068c0.134,0.061,0.208,0.188,0.164,0.286
		L150.288,9.665"/>
	<path clip-path="url(#SVGID_8_)" fill="#CCCBCB" d="M134.3,7.234c0.067,0.205-0.045,0.425-0.25,0.491
		c-0.206,0.067-0.426-0.045-0.492-0.25c-0.067-0.205,0.046-0.425,0.251-0.491C134.014,6.917,134.234,7.029,134.3,7.234"/>
	<path clip-path="url(#SVGID_8_)" fill="#CCCBCB" d="M129.81,9.144c0.108,0.186,0.044,0.425-0.143,0.533
		c-0.188,0.108-0.424,0.044-0.532-0.143c-0.109-0.186-0.044-0.425,0.142-0.533C129.462,8.894,129.703,8.957,129.81,9.144"/>
	<path clip-path="url(#SVGID_8_)" fill="#CCCBCB" d="M125.814,11.946c0.144,0.16,0.131,0.407-0.029,0.551
		c-0.16,0.144-0.407,0.132-0.551-0.029c-0.144-0.16-0.131-0.407,0.029-0.551C125.422,11.773,125.67,11.786,125.814,11.946"/>
	<path clip-path="url(#SVGID_8_)" fill="#CCCBCB" d="M122.489,15.517c0.174,0.127,0.213,0.372,0.086,0.545
		c-0.127,0.175-0.371,0.213-0.545,0.086c-0.174-0.126-0.212-0.37-0.086-0.544C122.071,15.429,122.314,15.392,122.489,15.517"/>
	<path clip-path="url(#SVGID_8_)" fill="#CCCBCB" d="M119.979,19.702c0.196,0.088,0.285,0.319,0.197,0.516
		c-0.088,0.197-0.318,0.285-0.515,0.197c-0.196-0.087-0.285-0.318-0.198-0.515C119.551,19.703,119.782,19.614,119.979,19.702"/>
	<path clip-path="url(#SVGID_8_)" fill="#CCCBCB" d="M118.393,24.318c0.211,0.045,0.346,0.252,0.301,0.463
		c-0.046,0.211-0.252,0.345-0.463,0.3c-0.21-0.045-0.345-0.251-0.3-0.463C117.976,24.407,118.182,24.274,118.393,24.318"/>
	<path clip-path="url(#SVGID_8_)" fill="#CCCBCB" d="M117.802,29.162c0.215,0,0.39,0.175,0.39,0.392c0,0.215-0.175,0.389-0.39,0.389
		c-0.216,0-0.39-0.175-0.39-0.39C117.412,29.336,117.586,29.162,117.802,29.162"/>
	<path clip-path="url(#SVGID_8_)" fill="#CCCBCB" d="M118.23,34.023c0.21-0.045,0.418,0.09,0.463,0.301
		c0.044,0.211-0.09,0.417-0.301,0.462c-0.211,0.045-0.417-0.089-0.462-0.3C117.884,34.274,118.021,34.068,118.23,34.023"/>
	<path clip-path="url(#SVGID_8_)" fill="#CCCBCB" d="M119.66,38.689c0.198-0.087,0.429,0.001,0.515,0.198
		c0.089,0.197,0,0.427-0.198,0.514c-0.195,0.088-0.426-0.001-0.514-0.197C119.374,39.006,119.464,38.776,119.66,38.689"/>
	<path clip-path="url(#SVGID_8_)" fill="#CCCBCB" d="M122.029,42.956c0.175-0.126,0.419-0.088,0.546,0.087
		c0.127,0.175,0.087,0.417-0.088,0.543c-0.173,0.127-0.417,0.089-0.543-0.086C121.816,43.326,121.855,43.082,122.029,42.956"/>
	<path clip-path="url(#SVGID_8_)" fill="#CCCBCB" d="M159.795,43.588c-0.174-0.127-0.213-0.372-0.085-0.545
		c0.127-0.176,0.369-0.214,0.543-0.087c0.175,0.126,0.213,0.369,0.087,0.545C160.212,43.675,159.969,43.713,159.795,43.588"/>
	<path clip-path="url(#SVGID_8_)" fill="#CCCBCB" d="M162.307,39.402c-0.197-0.088-0.286-0.32-0.198-0.515
		c0.089-0.199,0.317-0.286,0.514-0.198c0.197,0.087,0.286,0.317,0.198,0.515C162.732,39.401,162.502,39.49,162.307,39.402"/>
	<path clip-path="url(#SVGID_8_)" fill="#CCCBCB" d="M163.892,34.787c-0.21-0.045-0.346-0.253-0.3-0.463
		c0.045-0.212,0.251-0.346,0.462-0.299c0.21,0.044,0.345,0.25,0.3,0.462C164.309,34.698,164.102,34.832,163.892,34.787"/>
	<path clip-path="url(#SVGID_8_)" fill="#CCCBCB" d="M164.482,29.943c-0.215-0.001-0.391-0.176-0.39-0.391
		c0-0.217,0.174-0.391,0.39-0.39c0.215-0.001,0.39,0.173,0.39,0.39C164.873,29.769,164.697,29.943,164.482,29.943"/>
	<path clip-path="url(#SVGID_8_)" fill="#CCCBCB" d="M164.054,25.081c-0.211,0.044-0.419-0.091-0.462-0.3
		c-0.045-0.213,0.089-0.418,0.3-0.463c0.21-0.045,0.417,0.089,0.462,0.3C164.399,24.83,164.265,25.036,164.054,25.081"/>
	<path clip-path="url(#SVGID_8_)" fill="#CCCBCB" d="M162.624,20.416c-0.197,0.086-0.428-0.001-0.515-0.198
		c-0.088-0.199,0-0.427,0.198-0.514c0.195-0.089,0.426-0.001,0.514,0.197C162.909,20.098,162.819,20.329,162.624,20.416"/>
	<path clip-path="url(#SVGID_8_)" fill="#CCCBCB" d="M160.254,16.148c-0.174,0.125-0.419,0.088-0.544-0.086
		c-0.129-0.177-0.09-0.418,0.086-0.544c0.173-0.127,0.416-0.09,0.544,0.086C160.467,15.779,160.428,16.022,160.254,16.148"/>
	<path clip-path="url(#SVGID_8_)" fill="#CCCBCB" d="M157.05,12.468c-0.145,0.159-0.393,0.173-0.551,0.028
		c-0.161-0.146-0.174-0.389-0.029-0.549c0.143-0.161,0.389-0.174,0.55-0.03C157.181,12.062,157.194,12.308,157.05,12.468"/>
	<path clip-path="url(#SVGID_8_)" fill="#CCCBCB" d="M153.151,9.534c-0.109,0.186-0.348,0.251-0.534,0.142
		c-0.188-0.109-0.251-0.346-0.142-0.532c0.107-0.186,0.344-0.251,0.532-0.143C153.195,9.11,153.258,9.348,153.151,9.534"/>
	<path clip-path="url(#SVGID_8_)" fill="#CCCBCB" d="M148.727,7.474c-0.067,0.205-0.288,0.318-0.492,0.25
		c-0.207-0.067-0.318-0.285-0.25-0.49c0.065-0.205,0.284-0.317,0.491-0.25C148.682,7.05,148.792,7.269,148.727,7.474"/>
	<path clip-path="url(#SVGID_8_)" fill="#CCCBCB" d="M143.97,6.379c-0.024,0.214-0.215,0.372-0.429,0.347
		c-0.217-0.022-0.371-0.213-0.346-0.427c0.021-0.214,0.211-0.37,0.427-0.348C143.838,5.975,143.992,6.167,143.97,6.379"/>
	<path clip-path="url(#SVGID_8_)" fill="#676868" d="M137.059,8.493c0.027,0.129-0.094,0.265-0.272,0.302
		c-0.178,0.038-0.345-0.036-0.372-0.165l-0.721-3.395c-0.028-0.131,0.093-0.265,0.271-0.304c0.178-0.037,0.345,0.037,0.372,0.166
		L137.059,8.493"/>
	<path clip-path="url(#SVGID_8_)" fill="#676868" d="M128.955,11.951c0.077,0.107,0.021,0.28-0.125,0.387
		c-0.148,0.107-0.329,0.107-0.407,0l-2.041-2.808c-0.077-0.108-0.021-0.28,0.126-0.387s0.329-0.108,0.407,0L128.955,11.951"/>
	<path clip-path="url(#SVGID_8_)" fill="#676868" d="M122.958,18.406c0.115,0.067,0.133,0.248,0.043,0.405
		c-0.09,0.157-0.257,0.232-0.372,0.165l-3.005-1.736c-0.117-0.065-0.134-0.246-0.044-0.404c0.091-0.157,0.258-0.231,0.372-0.165
		L122.958,18.406z"/>
	<path clip-path="url(#SVGID_8_)" fill="#676868" d="M120.105,26.743c0.132,0.015,0.223,0.171,0.204,0.352s-0.141,0.316-0.272,0.302
		l-3.453-0.362c-0.131-0.015-0.221-0.171-0.203-0.353c0.019-0.18,0.141-0.316,0.273-0.301L120.105,26.743z"/>
	<path clip-path="url(#SVGID_8_)" fill="#676868" d="M120.89,35.519c0.126-0.04,0.273,0.066,0.33,0.239
		c0.056,0.173,0,0.346-0.126,0.386l-3.302,1.074c-0.125,0.04-0.272-0.066-0.329-0.24c-0.056-0.172,0-0.346,0.126-0.386
		L120.89,35.519z"/>
	<path clip-path="url(#SVGID_8_)" fill="#676868" d="M125.177,43.217c0.099-0.088,0.276-0.051,0.398,0.084
		c0.122,0.134,0.141,0.316,0.042,0.404l-2.579,2.324c-0.098,0.087-0.276,0.05-0.398-0.085c-0.121-0.135-0.141-0.317-0.042-0.404
		L125.177,43.217z"/>
	<path clip-path="url(#SVGID_8_)" fill="#676868" d="M156.667,43.707c-0.098-0.09-0.08-0.27,0.041-0.405
		c0.122-0.135,0.3-0.175,0.397-0.084l2.581,2.322c0.097,0.088,0.079,0.268-0.042,0.405c-0.122,0.134-0.301,0.173-0.398,0.083
		L156.667,43.707"/>
	<path clip-path="url(#SVGID_8_)" fill="#676868" d="M161.189,36.145c-0.126-0.042-0.182-0.213-0.126-0.387
		c0.056-0.172,0.203-0.281,0.329-0.238l3.301,1.072c0.126,0.041,0.183,0.213,0.127,0.386c-0.057,0.174-0.204,0.282-0.33,0.239
		L161.189,36.145"/>
	<path clip-path="url(#SVGID_8_)" fill="#676868" d="M162.248,27.397c-0.133,0.013-0.254-0.12-0.273-0.301
		c-0.021-0.181,0.071-0.341,0.203-0.352l3.453-0.365c0.13-0.012,0.251,0.121,0.272,0.303c0.018,0.181-0.073,0.34-0.204,0.352
		L162.248,27.397"/>
	<path clip-path="url(#SVGID_8_)" fill="#676868" d="M159.655,18.977c-0.117,0.065-0.281-0.007-0.373-0.165
		c-0.091-0.157-0.073-0.34,0.043-0.404l3.006-1.738c0.114-0.064,0.28,0.008,0.372,0.166c0.09,0.159,0.072,0.34-0.043,0.405
		L159.655,18.977"/>
	<path clip-path="url(#SVGID_8_)" fill="#676868" d="M153.861,12.337c-0.079,0.107-0.26,0.108-0.407,0.002
		c-0.148-0.106-0.205-0.281-0.125-0.386l2.039-2.811c0.078-0.105,0.259-0.107,0.407,0c0.147,0.108,0.204,0.281,0.125,0.388
		L153.861,12.337"/>
	<path clip-path="url(#SVGID_8_)" fill="#676868" d="M145.869,8.629c-0.029,0.13-0.194,0.204-0.371,0.167
		c-0.179-0.037-0.302-0.173-0.272-0.302l0.719-3.396c0.029-0.128,0.194-0.203,0.373-0.167c0.178,0.039,0.301,0.176,0.271,0.304
		L145.869,8.629"/>
	<path clip-path="url(#SVGID_8_)" fill="#E5E5E4" d="M127.692,42.165c0,0.826-0.305,1.281-0.842,1.281
		c-0.475,0-0.796-0.445-0.803-1.247c0-0.813,0.35-1.262,0.843-1.262C127.401,40.937,127.692,41.392,127.692,42.165 M126.375,42.203
		c0,0.631,0.194,0.989,0.493,0.989c0.336,0,0.496-0.392,0.496-1.012c0-0.598-0.153-0.989-0.492-0.989
		C126.584,41.19,126.375,41.541,126.375,42.203"/>
	<path clip-path="url(#SVGID_8_)" fill="#E5E5E4" d="M121.936,35.985v-0.201l0.258-0.251c0.619-0.59,0.9-0.903,0.903-1.268
		c0-0.247-0.119-0.474-0.481-0.474c-0.221,0-0.404,0.111-0.516,0.204l-0.104-0.231c0.168-0.142,0.406-0.246,0.687-0.246
		c0.522,0,0.743,0.359,0.743,0.705c0,0.449-0.325,0.81-0.837,1.303l-0.194,0.179v0.008h1.09v0.272H121.936z"/>
	<path clip-path="url(#SVGID_8_)" fill="#E5E5E4" d="M125.464,34.746c0,0.825-0.305,1.28-0.843,1.28
		c-0.474,0-0.795-0.445-0.803-1.247c0-0.813,0.351-1.262,0.844-1.262C125.173,33.517,125.464,33.973,125.464,34.746 M124.147,34.783
		c0,0.631,0.194,0.989,0.493,0.989c0.336,0,0.496-0.392,0.496-1.011c0-0.598-0.153-0.99-0.492-0.99
		C124.356,33.771,124.147,34.122,124.147,34.783"/>
	<path clip-path="url(#SVGID_8_)" fill="#E5E5E4" d="M121.786,28.917v-0.661h-1.127v-0.215l1.083-1.55h0.354v1.508h0.34v0.257h-0.34
		v0.661H121.786z M121.786,27.999v-0.81c0-0.127,0.004-0.253,0.011-0.381h-0.011c-0.075,0.142-0.134,0.247-0.201,0.359l-0.593,0.825
		v0.007H121.786z"/>
	<path clip-path="url(#SVGID_8_)" fill="#E5E5E4" d="M124.299,27.678c0,0.826-0.306,1.281-0.843,1.281
		c-0.474,0-0.796-0.445-0.804-1.247c0-0.814,0.352-1.262,0.844-1.262C124.008,26.45,124.299,26.905,124.299,27.678 M122.982,27.716
		c0,0.63,0.194,0.989,0.492,0.989c0.336,0,0.497-0.392,0.497-1.012c0-0.597-0.153-0.989-0.493-0.989
		C123.19,26.704,122.982,27.055,122.982,27.716"/>
	<path clip-path="url(#SVGID_8_)" fill="#E5E5E4" d="M124.452,19.294c-0.067-0.004-0.153,0-0.246,0.014
		c-0.516,0.086-0.788,0.463-0.844,0.863h0.011c0.116-0.154,0.317-0.281,0.586-0.281c0.429,0,0.732,0.31,0.732,0.784
		c0,0.444-0.303,0.855-0.807,0.855c-0.518,0-0.857-0.403-0.857-1.034c0-0.478,0.171-0.854,0.41-1.094
		c0.201-0.198,0.47-0.32,0.776-0.358c0.097-0.015,0.179-0.018,0.239-0.018V19.294z M123.888,21.275c0.28,0,0.47-0.235,0.47-0.582
		c0-0.348-0.197-0.557-0.499-0.557c-0.198,0-0.381,0.124-0.471,0.3c-0.022,0.036-0.038,0.085-0.038,0.144
		c0.008,0.4,0.191,0.695,0.534,0.695H123.888z"/>
	<path clip-path="url(#SVGID_8_)" fill="#E5E5E4" d="M126.595,20.249c0,0.825-0.306,1.28-0.843,1.28
		c-0.474,0-0.796-0.444-0.803-1.246c0-0.814,0.351-1.262,0.844-1.262C126.303,19.021,126.595,19.476,126.595,20.249 M125.278,20.286
		c0,0.631,0.194,0.989,0.492,0.989c0.337,0,0.497-0.392,0.497-1.011c0-0.597-0.153-0.99-0.493-0.99
		C125.486,19.273,125.278,19.625,125.278,20.286"/>
	<path clip-path="url(#SVGID_8_)" fill="#E5E5E4" d="M128.688,14.479c-0.269-0.127-0.385-0.335-0.385-0.545
		c0-0.384,0.325-0.645,0.751-0.645c0.47,0,0.705,0.295,0.705,0.597c0,0.205-0.1,0.426-0.399,0.567v0.011
		c0.302,0.119,0.488,0.332,0.488,0.628c0,0.421-0.36,0.705-0.824,0.705c-0.508,0-0.814-0.302-0.814-0.657
		c0-0.306,0.183-0.523,0.482-0.649L128.688,14.479z M129.517,15.126c0-0.296-0.206-0.438-0.534-0.531
		c-0.284,0.082-0.437,0.269-0.437,0.5c-0.011,0.247,0.176,0.463,0.485,0.463C129.326,15.558,129.517,15.371,129.517,15.126
		 M128.614,13.912c0,0.242,0.182,0.373,0.462,0.448c0.209-0.071,0.37-0.22,0.37-0.441c0-0.194-0.116-0.395-0.411-0.395
		C128.762,13.524,128.614,13.703,128.614,13.912"/>
	<path clip-path="url(#SVGID_8_)" fill="#E5E5E4" d="M131.769,14.517c0,0.825-0.306,1.28-0.844,1.28
		c-0.473,0-0.795-0.445-0.802-1.247c0-0.813,0.35-1.261,0.843-1.261C131.478,13.289,131.769,13.744,131.769,14.517 M130.452,14.554
		c0,0.631,0.193,0.989,0.492,0.989c0.337,0,0.497-0.392,0.497-1.011c0-0.598-0.153-0.99-0.493-0.99
		C130.66,13.542,130.452,13.893,130.452,14.554"/>
	<polygon clip-path="url(#SVGID_8_)" fill="#E5E5E4" points="134.922,10.272 134.915,10.272 134.493,10.5 134.429,10.25 
		134.959,9.966 135.239,9.966 135.239,12.393 134.922,12.393 	"/>
	<path clip-path="url(#SVGID_8_)" fill="#E5E5E4" d="M137.737,11.153c0,0.825-0.306,1.28-0.844,1.28
		c-0.474,0-0.794-0.444-0.802-1.246c0-0.814,0.35-1.262,0.843-1.262C137.445,9.925,137.737,10.38,137.737,11.153 M136.419,11.19
		c0,0.631,0.194,0.989,0.493,0.989c0.336,0,0.497-0.392,0.497-1.011c0-0.598-0.154-0.99-0.493-0.99
		C136.628,10.178,136.419,10.53,136.419,11.19"/>
	<path clip-path="url(#SVGID_8_)" fill="#E5E5E4" d="M139.652,11.153c0,0.825-0.306,1.28-0.843,1.28
		c-0.474,0-0.795-0.444-0.804-1.246c0-0.814,0.352-1.262,0.845-1.262C139.361,9.925,139.652,10.38,139.652,11.153 M138.335,11.19
		c0,0.631,0.193,0.989,0.493,0.989c0.336,0,0.495-0.392,0.495-1.011c0-0.598-0.152-0.99-0.492-0.99
		C138.543,10.178,138.335,10.53,138.335,11.19"/>
	<polygon clip-path="url(#SVGID_8_)" fill="#E5E5E4" points="142.984,10.272 142.977,10.272 142.555,10.5 142.491,10.25 
		143.022,9.966 143.301,9.966 143.301,12.393 142.984,12.393 	"/>
	<path clip-path="url(#SVGID_8_)" fill="#E5E5E4" d="M144.187,12.392v-0.201l0.257-0.25c0.62-0.59,0.9-0.903,0.904-1.269
		c0-0.246-0.119-0.474-0.481-0.474c-0.221,0-0.404,0.112-0.516,0.205l-0.104-0.231c0.168-0.142,0.406-0.247,0.687-0.247
		c0.522,0,0.742,0.359,0.742,0.706c0,0.448-0.324,0.81-0.835,1.303l-0.195,0.179v0.008h1.09v0.271H144.187"/>
	<path clip-path="url(#SVGID_8_)" fill="#E5E5E4" d="M147.714,11.153c0,0.826-0.305,1.28-0.842,1.28
		c-0.475,0-0.796-0.444-0.803-1.246c0-0.814,0.351-1.262,0.843-1.262C147.423,9.925,147.714,10.38,147.714,11.153 M146.397,11.19
		c0,0.631,0.194,0.989,0.493,0.989c0.336,0,0.496-0.391,0.496-1.011c0-0.597-0.153-0.989-0.492-0.989
		C146.606,10.179,146.397,10.53,146.397,11.19"/>
	<polygon clip-path="url(#SVGID_8_)" fill="#E5E5E4" points="150.274,13.636 150.268,13.636 149.845,13.863 149.781,13.614 
		150.312,13.33 150.592,13.33 150.592,15.756 150.274,15.756 	"/>
	<path clip-path="url(#SVGID_8_)" fill="#E5E5E4" d="M152.493,15.756v-0.661h-1.127V14.88l1.082-1.55h0.356v1.508h0.339v0.257
		h-0.339v0.661H152.493 M152.493,14.838v-0.81c0-0.127,0.004-0.253,0.011-0.38h-0.011c-0.075,0.141-0.134,0.246-0.202,0.358
		l-0.593,0.825v0.007H152.493"/>
	<path clip-path="url(#SVGID_8_)" fill="#E5E5E4" d="M155.006,14.517c0,0.825-0.307,1.28-0.844,1.28
		c-0.474,0-0.795-0.445-0.803-1.247c0-0.813,0.352-1.261,0.844-1.261C154.714,13.289,155.006,13.744,155.006,14.517 M153.688,14.554
		c0,0.631,0.194,0.989,0.493,0.989c0.336,0,0.496-0.392,0.496-1.011c0-0.598-0.153-0.99-0.493-0.99
		C153.897,13.542,153.688,13.893,153.688,14.554"/>
	<polygon clip-path="url(#SVGID_8_)" fill="#E5E5E4" points="154.009,19.368 154.002,19.368 153.581,19.596 153.516,19.346 
		154.047,19.062 154.327,19.062 154.327,21.488 154.009,21.488 	"/>
	<path clip-path="url(#SVGID_8_)" fill="#E5E5E4" d="M156.597,19.294c-0.067-0.004-0.153,0-0.247,0.014
		c-0.514,0.086-0.787,0.463-0.843,0.863h0.011c0.116-0.154,0.318-0.281,0.586-0.281c0.429,0,0.731,0.31,0.731,0.784
		c0,0.444-0.302,0.855-0.806,0.855c-0.518,0-0.858-0.403-0.858-1.034c0-0.478,0.172-0.854,0.411-1.094
		c0.201-0.198,0.47-0.32,0.776-0.358c0.096-0.015,0.179-0.018,0.239-0.018V19.294 M156.033,21.275c0.28,0,0.471-0.235,0.471-0.582
		c0-0.348-0.198-0.557-0.501-0.557c-0.198,0-0.381,0.124-0.47,0.3c-0.022,0.036-0.038,0.085-0.038,0.144
		c0.009,0.4,0.191,0.695,0.534,0.695H156.033"/>
	<path clip-path="url(#SVGID_8_)" fill="#E5E5E4" d="M158.741,20.249c0,0.825-0.306,1.28-0.844,1.28
		c-0.474,0-0.795-0.444-0.803-1.246c0-0.814,0.351-1.262,0.844-1.262C158.45,19.021,158.741,19.476,158.741,20.249 M157.423,20.286
		c0,0.631,0.195,0.989,0.493,0.989c0.336,0,0.496-0.392,0.496-1.011c0-0.597-0.153-0.99-0.493-0.99
		C157.632,19.273,157.423,19.625,157.423,20.286"/>
	<polygon clip-path="url(#SVGID_8_)" fill="#E5E5E4" points="156.68,26.797 156.673,26.797 156.25,27.025 156.187,26.775 
		156.717,26.491 156.997,26.491 156.997,28.918 156.68,28.918 	"/>
	<path clip-path="url(#SVGID_8_)" fill="#E5E5E4" d="M158.331,27.641c-0.269-0.127-0.385-0.336-0.385-0.545
		c0-0.384,0.325-0.646,0.75-0.646c0.471,0,0.706,0.295,0.706,0.598c0,0.204-0.101,0.425-0.399,0.567v0.011
		c0.302,0.119,0.488,0.333,0.488,0.627c0,0.422-0.361,0.706-0.824,0.706c-0.508,0-0.814-0.303-0.814-0.657
		c0-0.307,0.183-0.523,0.481-0.65L158.331,27.641 M159.159,28.287c0-0.295-0.205-0.437-0.534-0.53
		c-0.284,0.082-0.436,0.269-0.436,0.5c-0.011,0.247,0.175,0.463,0.485,0.463C158.969,28.72,159.159,28.533,159.159,28.287
		 M158.256,27.074c0,0.243,0.183,0.373,0.463,0.448c0.209-0.071,0.37-0.221,0.37-0.441c0-0.194-0.116-0.395-0.411-0.395
		C158.405,26.686,158.256,26.865,158.256,27.074"/>
	<path clip-path="url(#SVGID_8_)" fill="#E5E5E4" d="M161.41,27.678c0,0.826-0.306,1.281-0.843,1.281
		c-0.474,0-0.795-0.445-0.803-1.247c0-0.814,0.351-1.262,0.844-1.262C161.119,26.45,161.41,26.905,161.41,27.678 M160.093,27.716
		c0,0.63,0.194,0.989,0.493,0.989c0.336,0,0.496-0.392,0.496-1.012c0-0.597-0.153-0.989-0.493-0.989
		C160.301,26.704,160.093,27.055,160.093,27.716"/>
	<path clip-path="url(#SVGID_8_)" fill="#E5E5E4" d="M155.421,35.985v-0.201l0.256-0.251c0.62-0.59,0.9-0.903,0.904-1.268
		c0-0.247-0.119-0.474-0.482-0.474c-0.22,0-0.403,0.111-0.515,0.204l-0.104-0.231c0.168-0.142,0.407-0.246,0.687-0.246
		c0.522,0,0.743,0.359,0.743,0.705c0,0.449-0.326,0.81-0.837,1.303l-0.194,0.179v0.008h1.09v0.272H155.421"/>
	<path clip-path="url(#SVGID_8_)" fill="#E5E5E4" d="M158.948,34.746c0,0.825-0.306,1.28-0.843,1.28
		c-0.474,0-0.796-0.445-0.803-1.247c0-0.813,0.351-1.262,0.845-1.262C158.657,33.517,158.948,33.973,158.948,34.746 M157.631,34.783
		c0,0.631,0.194,0.989,0.492,0.989c0.336,0,0.496-0.392,0.496-1.011c0-0.598-0.153-0.99-0.492-0.99
		C157.84,33.771,157.631,34.122,157.631,34.783"/>
	<path clip-path="url(#SVGID_8_)" fill="#E5E5E4" d="M160.864,34.746c0,0.825-0.306,1.28-0.844,1.28
		c-0.474,0-0.795-0.445-0.803-1.247c0-0.813,0.352-1.262,0.844-1.262C160.572,33.517,160.864,33.973,160.864,34.746 M159.546,34.783
		c0,0.631,0.193,0.989,0.493,0.989c0.336,0,0.496-0.392,0.496-1.011c0-0.598-0.153-0.99-0.493-0.99
		C159.755,33.771,159.546,34.122,159.546,34.783"/>
	<path clip-path="url(#SVGID_8_)" fill="#E5E5E4" d="M150.807,43.404v-0.201l0.258-0.25c0.62-0.59,0.9-0.903,0.903-1.269
		c0-0.247-0.119-0.474-0.481-0.474c-0.221,0-0.405,0.112-0.515,0.205l-0.105-0.231c0.168-0.142,0.407-0.247,0.687-0.247
		c0.523,0,0.742,0.359,0.742,0.706c0,0.448-0.324,0.81-0.836,1.303l-0.194,0.178v0.008h1.09v0.272H150.807z"/>
	<path clip-path="url(#SVGID_8_)" fill="#E5E5E4" d="M152.723,43.404v-0.201l0.257-0.25c0.62-0.59,0.9-0.903,0.904-1.269
		c0-0.247-0.12-0.474-0.482-0.474c-0.22,0-0.403,0.112-0.515,0.205l-0.105-0.231c0.169-0.142,0.407-0.247,0.688-0.247
		c0.522,0,0.742,0.359,0.742,0.706c0,0.448-0.325,0.81-0.836,1.303l-0.194,0.178v0.008h1.09v0.272H152.723z"/>
	<path clip-path="url(#SVGID_8_)" fill="#E5E5E4" d="M156.251,42.166c0,0.825-0.306,1.28-0.844,1.28
		c-0.474,0-0.795-0.445-0.803-1.247c0-0.813,0.351-1.262,0.844-1.262C155.959,40.937,156.251,41.393,156.251,42.166 M154.933,42.203
		c0,0.631,0.194,0.989,0.494,0.989c0.335,0,0.495-0.392,0.495-1.012c0-0.597-0.153-0.989-0.492-0.989
		C155.142,41.19,154.933,41.541,154.933,42.203"/>
	<path clip-path="url(#SVGID_8_)" fill="#BE504F" d="M141.142,4.655c-0.147,0-0.266,0.087-0.266,0.194v2.816
		c0,0.107,0.119,0.194,0.266,0.194c0.148,0,0.267-0.087,0.267-0.194V4.849C141.409,4.742,141.29,4.655,141.142,4.655"/>
	<path clip-path="url(#SVGID_8_)" fill="#BE504F" d="M131.154,6.777c-0.044,0-0.093,0.01-0.14,0.031
		c-0.133,0.059-0.208,0.187-0.164,0.285l1.145,2.572c0.029,0.065,0.101,0.1,0.184,0.1c0.045,0,0.093-0.01,0.139-0.03
		c0.135-0.06,0.209-0.189,0.165-0.286l-1.145-2.573C131.309,6.812,131.237,6.777,131.154,6.777"/>
	<path clip-path="url(#SVGID_8_)" fill="#BE504F" d="M160.155,40.245c-0.081,0-0.17,0.058-0.226,0.154
		c-0.074,0.127-0.059,0.275,0.035,0.328l2.438,1.408c0.023,0.013,0.048,0.02,0.076,0.02c0.08,0,0.17-0.058,0.225-0.155
		c0.074-0.126,0.059-0.274-0.034-0.327l-2.439-1.408C160.207,40.25,160.182,40.245,160.155,40.245"/>
	<path clip-path="url(#SVGID_8_)" fill="#BE504F" d="M162.922,31.574c-0.101,0-0.191,0.106-0.206,0.245
		c-0.015,0.147,0.059,0.276,0.166,0.286l2.799,0.295c0.005,0,0.01,0.001,0.015,0.001c0.101,0,0.191-0.107,0.207-0.247
		c0.015-0.145-0.059-0.274-0.166-0.285l-2.8-0.294C162.932,31.574,162.927,31.574,162.922,31.574"/>
	<path clip-path="url(#SVGID_8_)" fill="#BE504F" d="M159.428,12.785c-0.041,0-0.078,0.012-0.107,0.038l-2.093,1.884
		c-0.079,0.073-0.064,0.219,0.034,0.329c0.063,0.069,0.144,0.107,0.216,0.107c0.041,0,0.078-0.012,0.107-0.039l2.093-1.883
		c0.08-0.073,0.063-0.218-0.034-0.329C159.581,12.823,159.5,12.785,159.428,12.785"/>
	<path clip-path="url(#SVGID_8_)" fill="#BE504F" d="M151.129,6.777c-0.084,0-0.156,0.035-0.184,0.099l-1.146,2.573
		c-0.044,0.098,0.031,0.224,0.166,0.286c0.046,0.02,0.095,0.03,0.139,0.03c0.084,0,0.155-0.035,0.183-0.1l1.145-2.572
		c0.045-0.098-0.03-0.225-0.164-0.286C151.221,6.786,151.173,6.777,151.129,6.777"/>
	<path clip-path="url(#SVGID_8_)" fill="#CCCBCB" d="M133.93,6.964c-0.04,0-0.081,0.006-0.121,0.02
		c-0.205,0.066-0.317,0.286-0.25,0.491c0.053,0.165,0.206,0.269,0.371,0.269c0.04,0,0.08-0.006,0.12-0.019
		c0.205-0.066,0.318-0.286,0.251-0.491C134.247,7.069,134.095,6.964,133.93,6.964"/>
	<path clip-path="url(#SVGID_8_)" fill="#CCCBCB" d="M129.472,8.949c-0.066,0-0.134,0.017-0.195,0.052
		c-0.186,0.108-0.251,0.347-0.142,0.533c0.072,0.125,0.203,0.195,0.337,0.195c0.066,0,0.133-0.016,0.195-0.052
		c0.187-0.108,0.251-0.347,0.143-0.533C129.738,9.019,129.607,8.949,129.472,8.949"/>
	<path clip-path="url(#SVGID_8_)" fill="#CCCBCB" d="M160.024,42.881c-0.12,0-0.238,0.056-0.314,0.162
		c-0.128,0.173-0.089,0.418,0.085,0.545c0.069,0.05,0.149,0.074,0.229,0.074c0.12,0,0.239-0.056,0.316-0.161
		c0.126-0.176,0.088-0.419-0.087-0.545C160.185,42.905,160.104,42.881,160.024,42.881"/>
	<path clip-path="url(#SVGID_8_)" fill="#CCCBCB" d="M162.463,38.655c-0.148,0-0.289,0.086-0.354,0.232
		c-0.089,0.195,0,0.427,0.197,0.515c0.052,0.023,0.105,0.034,0.158,0.034c0.149,0,0.291-0.086,0.356-0.232
		c0.088-0.198-0.001-0.428-0.198-0.515C162.57,38.667,162.517,38.655,162.463,38.655"/>
	<path clip-path="url(#SVGID_8_)" fill="#CCCBCB" d="M163.969,34.015c-0.179,0-0.339,0.125-0.377,0.309
		c-0.047,0.21,0.089,0.418,0.299,0.463c0.027,0.006,0.055,0.009,0.081,0.009c0.18,0,0.342-0.125,0.381-0.309
		c0.045-0.212-0.09-0.418-0.3-0.462C164.025,34.018,163.997,34.015,163.969,34.015"/>
	<path clip-path="url(#SVGID_8_)" fill="#CCCBCB" d="M164.483,29.163L164.483,29.163h-0.003c-0.215,0-0.388,0.173-0.388,0.39
		c-0.001,0.215,0.175,0.39,0.39,0.391c0.215-0.001,0.39-0.176,0.39-0.391C164.873,29.335,164.698,29.163,164.483,29.163"/>
	<path clip-path="url(#SVGID_8_)" fill="#CCCBCB" d="M163.974,24.31c-0.027,0-0.055,0.003-0.083,0.009
		c-0.21,0.044-0.345,0.249-0.299,0.462c0.037,0.183,0.2,0.309,0.381,0.309c0.027,0,0.054-0.003,0.081-0.009
		c0.211-0.044,0.344-0.251,0.299-0.462C164.314,24.435,164.153,24.31,163.974,24.31"/>
	<path clip-path="url(#SVGID_8_)" fill="#CCCBCB" d="M162.466,19.668c-0.053,0-0.107,0.011-0.159,0.035
		c-0.198,0.087-0.286,0.315-0.198,0.514c0.064,0.145,0.207,0.231,0.357,0.231c0.053,0,0.106-0.01,0.158-0.033
		c0.196-0.087,0.284-0.318,0.197-0.515C162.756,19.754,162.614,19.668,162.466,19.668"/>
	<path clip-path="url(#SVGID_8_)" fill="#CCCBCB" d="M160.025,15.443c-0.079,0-0.16,0.024-0.229,0.075
		c-0.175,0.126-0.215,0.367-0.086,0.544c0.075,0.105,0.194,0.16,0.315,0.16c0.08,0,0.16-0.024,0.229-0.074
		c0.175-0.126,0.214-0.369,0.086-0.544C160.264,15.5,160.146,15.443,160.025,15.443"/>
	<path clip-path="url(#SVGID_8_)" fill="#CCCBCB" d="M156.759,11.817c-0.106,0-0.212,0.044-0.289,0.13
		c-0.145,0.16-0.132,0.403,0.029,0.549c0.073,0.068,0.167,0.101,0.26,0.101c0.107,0,0.214-0.044,0.291-0.129
		c0.144-0.16,0.131-0.406-0.03-0.551C156.946,11.85,156.852,11.817,156.759,11.817"/>
	<path clip-path="url(#SVGID_8_)" fill="#CCCBCB" d="M152.812,8.949c-0.135,0-0.266,0.07-0.338,0.195
		c-0.108,0.186-0.046,0.423,0.143,0.532c0.061,0.036,0.128,0.053,0.194,0.053c0.134,0,0.266-0.071,0.339-0.195
		c0.108-0.186,0.044-0.424-0.143-0.533C152.945,8.966,152.877,8.949,152.812,8.949"/>
	<path clip-path="url(#SVGID_8_)" fill="#CCCBCB" d="M148.354,6.964c-0.165,0-0.316,0.105-0.369,0.27
		c-0.068,0.205,0.043,0.422,0.25,0.49c0.04,0.014,0.08,0.02,0.12,0.02c0.164,0,0.317-0.106,0.372-0.27
		c0.066-0.205-0.045-0.424-0.251-0.49C148.435,6.97,148.394,6.964,148.354,6.964"/>
	<path clip-path="url(#SVGID_8_)" fill="#CCCBCB" d="M143.581,5.95c-0.198,0-0.366,0.149-0.386,0.35
		c-0.025,0.214,0.13,0.404,0.346,0.427c0.015,0.002,0.029,0.002,0.043,0.002c0.196,0,0.364-0.149,0.386-0.349
		c0.023-0.214-0.132-0.405-0.347-0.428C143.608,5.95,143.595,5.95,143.581,5.95"/>
	<path clip-path="url(#SVGID_8_)" fill="#676868" d="M136.057,4.922c-0.03,0-0.061,0.003-0.092,0.009
		c-0.179,0.039-0.3,0.173-0.272,0.304l0.721,3.395c0.023,0.106,0.14,0.175,0.28,0.175c0.03,0,0.061-0.004,0.092-0.01
		c0.178-0.038,0.3-0.173,0.272-0.302l-0.722-3.396C136.314,4.99,136.197,4.922,136.057,4.922"/>
	<path clip-path="url(#SVGID_8_)" fill="#676868" d="M126.737,9.062c-0.074,0-0.156,0.027-0.229,0.081
		c-0.047,0.033-0.084,0.074-0.111,0.116c0.25,0.066,0.501,0.134,0.75,0.203l-0.232-0.319C126.876,9.089,126.811,9.062,126.737,9.062
		"/>
	<path clip-path="url(#SVGID_8_)" fill="#676868" d="M156.973,43.169c-0.088,0-0.188,0.046-0.265,0.132
		c-0.121,0.136-0.139,0.315-0.041,0.406l2.578,2.321c0.036,0.033,0.082,0.048,0.133,0.048c0.088,0,0.188-0.046,0.266-0.132
		c0.121-0.137,0.139-0.316,0.042-0.405l-2.581-2.322C157.07,43.184,157.023,43.169,156.973,43.169"/>
	<path clip-path="url(#SVGID_8_)" fill="#676868" d="M161.335,35.51c-0.11,0-0.225,0.101-0.272,0.248
		c-0.056,0.173,0,0.344,0.126,0.386l3.301,1.073c0.018,0.006,0.038,0.009,0.056,0.009c0.111,0,0.226-0.101,0.274-0.248
		c0.056-0.174-0.001-0.345-0.127-0.387l-3.301-1.072C161.374,35.513,161.354,35.51,161.335,35.51"/>
	<polygon clip-path="url(#SVGID_8_)" fill="#E5E5E4" points="135.239,9.966 134.959,9.966 134.429,10.25 134.493,10.5 
		134.915,10.272 134.922,10.272 134.922,12.392 135.239,12.392 	"/>
	<path clip-path="url(#SVGID_8_)" fill="#E5E5E4" d="M136.912,12.179c-0.299,0-0.493-0.358-0.493-0.989
		c0-0.66,0.209-1.012,0.496-1.012c0.34,0,0.494,0.393,0.494,0.99C137.409,11.787,137.247,12.179,136.912,12.179 M136.934,9.925
		c-0.493,0-0.843,0.448-0.843,1.262c0.008,0.802,0.328,1.246,0.802,1.246c0.538,0,0.844-0.455,0.844-1.28
		C137.737,10.381,137.445,9.925,136.934,9.925"/>
	<path clip-path="url(#SVGID_8_)" fill="#E5E5E4" d="M138.829,12.179c-0.3,0-0.493-0.358-0.493-0.989
		c0-0.66,0.208-1.012,0.495-1.012c0.341,0,0.493,0.393,0.493,0.99C139.324,11.787,139.164,12.179,138.829,12.179 M138.851,9.925
		c-0.493,0-0.845,0.448-0.845,1.262c0.009,0.802,0.33,1.246,0.803,1.246c0.538,0,0.844-0.455,0.844-1.28
		C139.653,10.381,139.362,9.925,138.851,9.925"/>
	<polygon clip-path="url(#SVGID_8_)" fill="#E5E5E4" points="143.301,9.966 143.022,9.966 142.491,10.25 142.555,10.5 
		142.977,10.272 142.984,10.272 142.984,12.392 143.301,12.392 	"/>
	<path clip-path="url(#SVGID_8_)" fill="#E5E5E4" d="M144.934,9.925c-0.281,0-0.519,0.104-0.688,0.247l0.105,0.231
		c0.112-0.093,0.295-0.206,0.516-0.206c0.362,0,0.481,0.228,0.481,0.475c-0.004,0.365-0.284,0.679-0.904,1.269l-0.257,0.25v0.201
		h1.549V12.12h-1.09v-0.007l0.195-0.18c0.51-0.492,0.835-0.854,0.835-1.302C145.676,10.283,145.456,9.925,144.934,9.925"/>
	<path clip-path="url(#SVGID_8_)" fill="#E5E5E4" d="M146.891,12.179c-0.299,0-0.493-0.358-0.493-0.989
		c0-0.66,0.209-1.011,0.496-1.011c0.34,0,0.493,0.392,0.493,0.989C147.387,11.788,147.226,12.179,146.891,12.179 M146.913,9.925
		c-0.492,0-0.843,0.448-0.843,1.262c0.007,0.802,0.328,1.246,0.802,1.246c0.538,0,0.843-0.454,0.843-1.279
		C147.715,10.381,147.424,9.925,146.913,9.925"/>
	<polygon clip-path="url(#SVGID_8_)" fill="#E5E5E4" points="150.592,13.33 150.312,13.33 149.781,13.614 149.845,13.863 
		150.267,13.636 150.274,13.636 150.274,15.756 150.592,15.756 	"/>
	<path clip-path="url(#SVGID_8_)" fill="#E5E5E4" d="M151.699,14.838V14.83l0.593-0.824c0.067-0.113,0.127-0.217,0.201-0.359h0.012
		c-0.008,0.127-0.012,0.254-0.012,0.381v0.81H151.699 M152.804,13.33h-0.355l-1.083,1.549v0.216h1.127v0.661h0.311v-0.661h0.339
		v-0.257h-0.339V13.33"/>
	<path clip-path="url(#SVGID_8_)" fill="#E5E5E4" d="M154.182,15.543c-0.299,0-0.493-0.358-0.493-0.989
		c0-0.661,0.209-1.012,0.496-1.012c0.34,0,0.493,0.393,0.493,0.99C154.678,15.151,154.517,15.543,154.182,15.543 M154.204,13.289
		c-0.492,0-0.844,0.448-0.844,1.261c0.008,0.802,0.329,1.247,0.802,1.247c0.538,0,0.845-0.455,0.845-1.28
		C155.007,13.744,154.714,13.289,154.204,13.289"/>
	<polygon clip-path="url(#SVGID_8_)" fill="#E5E5E4" points="154.327,19.062 154.047,19.062 153.516,19.346 153.58,19.596 
		154.002,19.368 154.009,19.368 154.009,21.487 154.327,21.487 	"/>
	<path clip-path="url(#SVGID_8_)" fill="#E5E5E4" d="M156.029,21.274c-0.343,0-0.525-0.294-0.534-0.694
		c0-0.06,0.016-0.108,0.038-0.145c0.089-0.176,0.272-0.299,0.47-0.299c0.303,0,0.501,0.209,0.501,0.556
		c0,0.348-0.191,0.582-0.471,0.582H156.029 M156.597,19.024c-0.06,0-0.143,0.003-0.239,0.019c-0.306,0.037-0.574,0.16-0.776,0.357
		c-0.239,0.24-0.411,0.617-0.411,1.095c0,0.631,0.34,1.033,0.858,1.033c0.504,0,0.806-0.41,0.806-0.854
		c0-0.474-0.302-0.784-0.731-0.784c-0.268,0-0.47,0.127-0.586,0.28h-0.011c0.056-0.4,0.329-0.777,0.843-0.863
		c0.072-0.011,0.139-0.015,0.196-0.015c0.018,0,0.035,0,0.051,0.001V19.024"/>
	<path clip-path="url(#SVGID_8_)" fill="#E5E5E4" d="M157.916,21.274c-0.298,0-0.493-0.358-0.493-0.989
		c0-0.661,0.209-1.012,0.496-1.012c0.34,0,0.493,0.393,0.493,0.99C158.412,20.882,158.251,21.274,157.916,21.274 M157.938,19.021
		c-0.493,0-0.844,0.448-0.844,1.262c0.008,0.802,0.329,1.246,0.803,1.246c0.538,0,0.844-0.455,0.844-1.279
		C158.741,19.477,158.45,19.021,157.938,19.021"/>
	<polygon clip-path="url(#SVGID_8_)" fill="#E5E5E4" points="156.997,26.491 156.717,26.491 156.187,26.774 156.25,27.025 
		156.672,26.797 156.68,26.797 156.68,28.917 156.997,28.917 	"/>
	<path clip-path="url(#SVGID_8_)" fill="#E5E5E4" d="M158.674,28.72c-0.31,0-0.496-0.216-0.485-0.463c0-0.231,0.153-0.418,0.436-0.5
		c0.329,0.093,0.534,0.235,0.534,0.53C159.159,28.533,158.969,28.72,158.674,28.72 M158.719,27.521
		c-0.28-0.075-0.463-0.205-0.463-0.448c0-0.209,0.149-0.388,0.422-0.388c0.295,0,0.411,0.202,0.411,0.395
		C159.089,27.301,158.928,27.451,158.719,27.521 M158.696,26.45c-0.425,0-0.75,0.262-0.75,0.646c0,0.209,0.116,0.418,0.385,0.545
		l0.003,0.011c-0.298,0.127-0.481,0.343-0.481,0.65c0,0.354,0.306,0.657,0.814,0.657c0.463,0,0.824-0.284,0.824-0.706
		c0-0.294-0.186-0.508-0.488-0.627v-0.011c0.298-0.142,0.399-0.363,0.399-0.567C159.402,26.745,159.167,26.45,158.696,26.45"/>
	<path clip-path="url(#SVGID_8_)" fill="#E5E5E4" d="M160.586,28.705c-0.299,0-0.493-0.359-0.493-0.989
		c0-0.661,0.208-1.012,0.496-1.012c0.34,0,0.493,0.392,0.493,0.989C161.083,28.312,160.921,28.705,160.586,28.705 M160.608,26.45
		c-0.493,0-0.844,0.448-0.844,1.262c0.008,0.802,0.329,1.247,0.803,1.247c0.537,0,0.843-0.455,0.843-1.28
		C161.411,26.906,161.12,26.45,160.608,26.45"/>
	<path clip-path="url(#SVGID_8_)" fill="#E5E5E4" d="M156.167,33.518c-0.28,0-0.519,0.104-0.687,0.247l0.104,0.231
		c0.112-0.093,0.296-0.205,0.516-0.205c0.362,0,0.482,0.227,0.482,0.474c-0.004,0.365-0.284,0.679-0.904,1.269l-0.257,0.25v0.201
		h1.548v-0.272h-1.089v-0.007l0.194-0.18c0.51-0.492,0.836-0.854,0.836-1.302C156.91,33.876,156.688,33.518,156.167,33.518"/>
	<path clip-path="url(#SVGID_8_)" fill="#E5E5E4" d="M158.124,35.772c-0.299,0-0.493-0.359-0.493-0.989
		c0-0.662,0.209-1.012,0.496-1.012c0.34,0,0.493,0.392,0.493,0.99C158.62,35.38,158.459,35.772,158.124,35.772 M158.146,33.518
		c-0.494,0-0.845,0.449-0.845,1.262c0.008,0.802,0.329,1.247,0.803,1.247c0.537,0,0.843-0.456,0.843-1.28
		C158.948,33.974,158.657,33.518,158.146,33.518"/>
	<path clip-path="url(#SVGID_8_)" fill="#E5E5E4" d="M160.04,35.772c-0.3,0-0.493-0.359-0.493-0.989
		c0-0.662,0.209-1.012,0.496-1.012c0.34,0,0.493,0.392,0.493,0.99C160.536,35.38,160.375,35.772,160.04,35.772 M160.062,33.518
		c-0.492,0-0.844,0.449-0.844,1.262c0.008,0.802,0.329,1.247,0.803,1.247c0.538,0,0.844-0.456,0.844-1.28
		C160.865,33.974,160.573,33.518,160.062,33.518"/>
	<path clip-path="url(#SVGID_8_)" fill="#E5E5E4" d="M155.947,41.142c0.074,0.596,0.132,1.197,0.174,1.801
		c0.086-0.203,0.13-0.464,0.13-0.778C156.251,41.698,156.146,41.347,155.947,41.142"/>
</g>
<g>
	<defs>
		<path id="SVGID_9_" d="M145.127,18.732c1.309,4.84-2.463,11.781-2.463,11.781h31.33l-0.327-0.961V-1.201L130.81-1.666
			C130.81-1.666,140.584,1.952,145.127,18.732"/>
	</defs>
	<clipPath id="SVGID_10_">
		<use xlink:href="#SVGID_9_"  overflow="visible"/>
	</clipPath>
	<g clip-path="url(#SVGID_10_)">
		<defs>
			<path id="SVGID_11_" d="M151.257,49.223c0,0.516-0.355,0.933-0.792,0.933h-18.646c-0.437,0-0.791-0.417-0.791-0.933v-2.49
				c0-0.516,0.354-0.934,0.791-0.934h18.646c0.437,0,0.792,0.418,0.792,0.934V49.223z"/>
		</defs>
		<clipPath id="SVGID_12_">
			<use xlink:href="#SVGID_11_"  overflow="visible"/>
		</clipPath>
		
			<linearGradient id="SVGID_13_" gradientUnits="userSpaceOnUse" x1="-107.5938" y1="411.3188" x2="-106.5942" y2="411.3188" gradientTransform="matrix(0 4.358 -4.358 0 1933.6691 514.7172)">
			<stop  offset="0" style="stop-color:#1B1A1B"/>
			<stop  offset="0.004" style="stop-color:#1B1B1B"/>
			<stop  offset="0.3689" style="stop-color:#595656"/>
			<stop  offset="0.6676" style="stop-color:#908D8E"/>
			<stop  offset="0.8856" style="stop-color:#B9B7B7"/>
			<stop  offset="1" style="stop-color:#CCCBCB"/>
		</linearGradient>
		<rect x="131.028" y="45.799" clip-path="url(#SVGID_12_)" fill="url(#SVGID_13_)" width="20.229" height="4.357"/>
	</g>
</g>
<g>
	<defs>
		<path id="SVGID_14_" d="M145.127,18.732c1.309,4.84-2.463,11.781-2.463,11.781h31.33l-0.327-0.961V-1.201L130.81-1.666
			C130.81-1.666,140.584,1.952,145.127,18.732"/>
	</defs>
	<clipPath id="SVGID_15_">
		<use xlink:href="#SVGID_14_"  overflow="visible"/>
	</clipPath>
	<path clip-path="url(#SVGID_15_)" fill="#010101" d="M150.466,49.793h-18.649c-0.277,0-0.503-0.255-0.503-0.57v-2.49
		c0-0.315,0.226-0.571,0.503-0.571h18.649c0.277,0,0.502,0.256,0.502,0.571v2.49C150.968,49.538,150.743,49.793,150.466,49.793"/>
</g>
<g>
	<defs>
		<path id="SVGID_16_" d="M145.127,18.732c1.309,4.84-2.463,11.781-2.463,11.781h31.33l-0.327-0.961V-1.201L130.81-1.666
			C130.81-1.666,140.584,1.952,145.127,18.732"/>
	</defs>
	<clipPath id="SVGID_17_">
		<use xlink:href="#SVGID_16_"  overflow="visible"/>
	</clipPath>
	<g clip-path="url(#SVGID_17_)">
		<defs>
			<path id="SVGID_18_" d="M134.606,49.153c0,0.21-0.18,0.381-0.404,0.381h-1.681c-0.223,0-0.404-0.171-0.404-0.381v-2.351
				c0-0.21,0.181-0.381,0.404-0.381h1.681c0.224,0,0.404,0.171,0.404,0.381V49.153z"/>
		</defs>
		<clipPath id="SVGID_19_">
			<use xlink:href="#SVGID_18_"  overflow="visible"/>
		</clipPath>
		
			<linearGradient id="SVGID_20_" gradientUnits="userSpaceOnUse" x1="-107.6699" y1="411.2349" x2="-106.6699" y2="411.2349" gradientTransform="matrix(0 -3.1127 3.1127 0 -1146.6895 -285.6779)">
			<stop  offset="0" style="stop-color:#1B1A1B"/>
			<stop  offset="0.0495" style="stop-color:#1B1A1B"/>
			<stop  offset="0.0533" style="stop-color:#1E1E1F"/>
			<stop  offset="0.0776" style="stop-color:#303131"/>
			<stop  offset="0.1021" style="stop-color:#3D3E3E"/>
			<stop  offset="0.1266" style="stop-color:#464747"/>
			<stop  offset="0.1512" style="stop-color:#4C4D4D"/>
			<stop  offset="0.1758" style="stop-color:#4E4F4F"/>
			<stop  offset="0.2515" style="stop-color:#646463"/>
			<stop  offset="0.3527" style="stop-color:#7E7D7D"/>
			<stop  offset="0.4374" style="stop-color:#8F8F8F"/>
			<stop  offset="0.4945" style="stop-color:#979696"/>
			<stop  offset="0.5551" style="stop-color:#8A8A8A"/>
			<stop  offset="0.6676" style="stop-color:#6D6D6C"/>
			<stop  offset="0.7802" style="stop-color:#4E4F4F"/>
			<stop  offset="0.8094" style="stop-color:#464747"/>
			<stop  offset="0.8655" style="stop-color:#343535"/>
			<stop  offset="0.9286" style="stop-color:#1B1A1B"/>
			<stop  offset="1" style="stop-color:#1B1A1B"/>
		</linearGradient>
		<rect x="132.117" y="46.421" clip-path="url(#SVGID_19_)" fill="url(#SVGID_20_)" width="2.489" height="3.113"/>
	</g>
</g>
<g>
	<defs>
		<path id="SVGID_21_" d="M145.127,18.732c1.309,4.84-2.463,11.781-2.463,11.781h31.33l-0.327-0.961V-1.201L130.81-1.666
			C130.81-1.666,140.584,1.952,145.127,18.732"/>
	</defs>
	<clipPath id="SVGID_22_">
		<use xlink:href="#SVGID_21_"  overflow="visible"/>
	</clipPath>
	<g clip-path="url(#SVGID_22_)">
		<defs>
			<path id="SVGID_23_" d="M134.185,47.951c0,0.825-0.306,1.281-0.844,1.281c-0.474,0-0.795-0.444-0.802-1.248
				c0-0.813,0.35-1.26,0.843-1.26C133.893,46.724,134.185,47.179,134.185,47.951 M132.867,47.989c0,0.631,0.194,0.989,0.493,0.989
				c0.335,0,0.496-0.392,0.496-1.011c0-0.598-0.153-0.99-0.492-0.99C133.076,46.977,132.867,47.328,132.867,47.989"/>
		</defs>
		<clipPath id="SVGID_24_">
			<use xlink:href="#SVGID_23_"  overflow="visible"/>
		</clipPath>
		
			<linearGradient id="SVGID_25_" gradientUnits="userSpaceOnUse" x1="-107.667" y1="411.2397" x2="-106.667" y2="411.2397" gradientTransform="matrix(0 -2.5084 2.5084 0 -898.1931 -220.9153)">
			<stop  offset="0" style="stop-color:#979696"/>
			<stop  offset="0.0714" style="stop-color:#979696"/>
			<stop  offset="0.223" style="stop-color:#A7A6A6"/>
			<stop  offset="0.478" style="stop-color:#CCCBCB"/>
			<stop  offset="0.7559" style="stop-color:#BAB9BA"/>
			<stop  offset="0.9505" style="stop-color:#B4B2B4"/>
			<stop  offset="1" style="stop-color:#B4B2B4"/>
		</linearGradient>
		<rect x="132.539" y="46.724" clip-path="url(#SVGID_24_)" fill="url(#SVGID_25_)" width="1.646" height="2.508"/>
	</g>
</g>
<g>
	<defs>
		<path id="SVGID_26_" d="M145.127,18.732c1.309,4.84-2.463,11.781-2.463,11.781h31.33l-0.327-0.961V-1.201L130.81-1.666
			C130.81-1.666,140.584,1.952,145.127,18.732"/>
	</defs>
	<clipPath id="SVGID_27_">
		<use xlink:href="#SVGID_26_"  overflow="visible"/>
	</clipPath>
	<g clip-path="url(#SVGID_27_)">
		<defs>
			<path id="SVGID_28_" d="M137.718,49.153c0,0.21-0.18,0.381-0.404,0.381h-1.681c-0.223,0-0.404-0.171-0.404-0.381v-2.351
				c0-0.21,0.181-0.381,0.404-0.381h1.681c0.224,0,0.404,0.171,0.404,0.381V49.153z"/>
		</defs>
		<clipPath id="SVGID_29_">
			<use xlink:href="#SVGID_28_"  overflow="visible"/>
		</clipPath>
		
			<linearGradient id="SVGID_30_" gradientUnits="userSpaceOnUse" x1="-107.6699" y1="411.2407" x2="-106.6699" y2="411.2407" gradientTransform="matrix(0 -3.1127 3.1127 0 -1143.5957 -285.6779)">
			<stop  offset="0" style="stop-color:#1B1A1B"/>
			<stop  offset="0.0495" style="stop-color:#1B1A1B"/>
			<stop  offset="0.0533" style="stop-color:#1E1E1F"/>
			<stop  offset="0.0776" style="stop-color:#303131"/>
			<stop  offset="0.1021" style="stop-color:#3D3E3E"/>
			<stop  offset="0.1266" style="stop-color:#464747"/>
			<stop  offset="0.1512" style="stop-color:#4C4D4D"/>
			<stop  offset="0.1758" style="stop-color:#4E4F4F"/>
			<stop  offset="0.2515" style="stop-color:#646463"/>
			<stop  offset="0.3527" style="stop-color:#7E7D7D"/>
			<stop  offset="0.4374" style="stop-color:#8F8F8F"/>
			<stop  offset="0.4945" style="stop-color:#979696"/>
			<stop  offset="0.5551" style="stop-color:#8A8A8A"/>
			<stop  offset="0.6676" style="stop-color:#6D6D6C"/>
			<stop  offset="0.7802" style="stop-color:#4E4F4F"/>
			<stop  offset="0.8094" style="stop-color:#464747"/>
			<stop  offset="0.8655" style="stop-color:#343535"/>
			<stop  offset="0.9286" style="stop-color:#1B1A1B"/>
			<stop  offset="1" style="stop-color:#1B1A1B"/>
		</linearGradient>
		<rect x="135.229" y="46.421" clip-path="url(#SVGID_29_)" fill="url(#SVGID_30_)" width="2.489" height="3.113"/>
	</g>
</g>
<g>
	<defs>
		<path id="SVGID_31_" d="M145.127,18.732c1.309,4.84-2.463,11.781-2.463,11.781h31.33l-0.327-0.961V-1.201L130.81-1.666
			C130.81-1.666,140.584,1.952,145.127,18.732"/>
	</defs>
	<clipPath id="SVGID_32_">
		<use xlink:href="#SVGID_31_"  overflow="visible"/>
	</clipPath>
	<g clip-path="url(#SVGID_32_)">
		<defs>
			<path id="SVGID_33_" d="M137.297,47.951c0,0.825-0.307,1.281-0.844,1.281c-0.474,0-0.795-0.444-0.802-1.248
				c0-0.813,0.351-1.26,0.843-1.26C137.006,46.724,137.297,47.179,137.297,47.951 M135.979,47.989c0,0.631,0.195,0.989,0.493,0.989
				c0.336,0,0.496-0.392,0.496-1.011c0-0.598-0.152-0.99-0.493-0.99C136.188,46.977,135.979,47.328,135.979,47.989"/>
		</defs>
		<clipPath id="SVGID_34_">
			<use xlink:href="#SVGID_33_"  overflow="visible"/>
		</clipPath>
		
			<linearGradient id="SVGID_35_" gradientUnits="userSpaceOnUse" x1="-107.667" y1="411.2329" x2="-106.667" y2="411.2329" gradientTransform="matrix(0 -2.5084 2.5084 0 -895.0623 -220.9153)">
			<stop  offset="0" style="stop-color:#979696"/>
			<stop  offset="0.0714" style="stop-color:#979696"/>
			<stop  offset="0.223" style="stop-color:#A7A6A6"/>
			<stop  offset="0.478" style="stop-color:#CCCBCB"/>
			<stop  offset="0.7559" style="stop-color:#BAB9BA"/>
			<stop  offset="0.9505" style="stop-color:#B4B2B4"/>
			<stop  offset="1" style="stop-color:#B4B2B4"/>
		</linearGradient>
		<rect x="135.651" y="46.724" clip-path="url(#SVGID_34_)" fill="url(#SVGID_35_)" width="1.646" height="2.508"/>
	</g>
</g>
<g>
	<defs>
		<path id="SVGID_36_" d="M145.127,18.732c1.309,4.84-2.463,11.781-2.463,11.781h31.33l-0.327-0.961V-1.201L130.81-1.666
			C130.81-1.666,140.584,1.952,145.127,18.732"/>
	</defs>
	<clipPath id="SVGID_37_">
		<use xlink:href="#SVGID_36_"  overflow="visible"/>
	</clipPath>
	<g clip-path="url(#SVGID_37_)">
		<defs>
			<path id="SVGID_38_" d="M140.831,49.153c0,0.21-0.181,0.381-0.405,0.381h-1.681c-0.224,0-0.404-0.171-0.404-0.381v-2.351
				c0-0.21,0.18-0.381,0.404-0.381h1.681c0.224,0,0.405,0.171,0.405,0.381V49.153z"/>
		</defs>
		<clipPath id="SVGID_39_">
			<use xlink:href="#SVGID_38_"  overflow="visible"/>
		</clipPath>
		
			<linearGradient id="SVGID_40_" gradientUnits="userSpaceOnUse" x1="-107.6699" y1="411.2427" x2="-106.6699" y2="411.2427" gradientTransform="matrix(0 -3.1127 3.1127 0 -1140.4883 -285.6779)">
			<stop  offset="0" style="stop-color:#1B1A1B"/>
			<stop  offset="0.0495" style="stop-color:#1B1A1B"/>
			<stop  offset="0.0533" style="stop-color:#1E1E1F"/>
			<stop  offset="0.0776" style="stop-color:#303131"/>
			<stop  offset="0.1021" style="stop-color:#3D3E3E"/>
			<stop  offset="0.1266" style="stop-color:#464747"/>
			<stop  offset="0.1512" style="stop-color:#4C4D4D"/>
			<stop  offset="0.1758" style="stop-color:#4E4F4F"/>
			<stop  offset="0.2515" style="stop-color:#646463"/>
			<stop  offset="0.3527" style="stop-color:#7E7D7D"/>
			<stop  offset="0.4374" style="stop-color:#8F8F8F"/>
			<stop  offset="0.4945" style="stop-color:#979696"/>
			<stop  offset="0.5551" style="stop-color:#8A8A8A"/>
			<stop  offset="0.6676" style="stop-color:#6D6D6C"/>
			<stop  offset="0.7802" style="stop-color:#4E4F4F"/>
			<stop  offset="0.8094" style="stop-color:#464747"/>
			<stop  offset="0.8655" style="stop-color:#343535"/>
			<stop  offset="0.9286" style="stop-color:#1B1A1B"/>
			<stop  offset="1" style="stop-color:#1B1A1B"/>
		</linearGradient>
		<rect x="138.341" y="46.421" clip-path="url(#SVGID_39_)" fill="url(#SVGID_40_)" width="2.49" height="3.113"/>
	</g>
</g>
<g>
	<defs>
		<path id="SVGID_41_" d="M145.127,18.732c1.309,4.84-2.463,11.781-2.463,11.781h31.33l-0.327-0.961V-1.201L130.81-1.666
			C130.81-1.666,140.584,1.952,145.127,18.732"/>
	</defs>
	<clipPath id="SVGID_42_">
		<use xlink:href="#SVGID_41_"  overflow="visible"/>
	</clipPath>
	<g clip-path="url(#SVGID_42_)">
		<defs>
			<path id="SVGID_43_" d="M138.811,49.212V49.01l0.258-0.251c0.62-0.588,0.899-0.902,0.903-1.268c0-0.246-0.119-0.475-0.482-0.475
				c-0.22,0-0.402,0.113-0.514,0.206l-0.105-0.232c0.168-0.141,0.408-0.246,0.687-0.246c0.522,0,0.742,0.358,0.742,0.706
				c0,0.447-0.324,0.809-0.835,1.302l-0.195,0.179v0.008h1.091v0.273H138.811z"/>
		</defs>
		<clipPath id="SVGID_44_">
			<use xlink:href="#SVGID_43_"  overflow="visible"/>
		</clipPath>
		
			<linearGradient id="SVGID_45_" gradientUnits="userSpaceOnUse" x1="-107.6104" y1="411.3032" x2="-106.6099" y2="411.3032" gradientTransform="matrix(0 -2.4679 2.4679 0 -875.4664 -216.3936)">
			<stop  offset="0" style="stop-color:#979696"/>
			<stop  offset="0.0714" style="stop-color:#979696"/>
			<stop  offset="0.223" style="stop-color:#A7A6A6"/>
			<stop  offset="0.478" style="stop-color:#CCCBCB"/>
			<stop  offset="0.7559" style="stop-color:#BAB9BA"/>
			<stop  offset="0.9505" style="stop-color:#B4B2B4"/>
			<stop  offset="1" style="stop-color:#B4B2B4"/>
		</linearGradient>
		<rect x="138.811" y="46.744" clip-path="url(#SVGID_44_)" fill="url(#SVGID_45_)" width="1.55" height="2.468"/>
	</g>
</g>
<g>
	<defs>
		<path id="SVGID_46_" d="M145.127,18.732c1.309,4.84-2.463,11.781-2.463,11.781h31.33l-0.327-0.961V-1.201L130.81-1.666
			C130.81-1.666,140.584,1.952,145.127,18.732"/>
	</defs>
	<clipPath id="SVGID_47_">
		<use xlink:href="#SVGID_46_"  overflow="visible"/>
	</clipPath>
	<g clip-path="url(#SVGID_47_)">
		<defs>
			<path id="SVGID_48_" d="M147.055,49.153c0,0.21-0.181,0.381-0.404,0.381h-1.682c-0.223,0-0.404-0.171-0.404-0.381v-2.351
				c0-0.21,0.181-0.381,0.404-0.381h1.682c0.223,0,0.404,0.171,0.404,0.381V49.153z"/>
		</defs>
		<clipPath id="SVGID_49_">
			<use xlink:href="#SVGID_48_"  overflow="visible"/>
		</clipPath>
		
			<linearGradient id="SVGID_50_" gradientUnits="userSpaceOnUse" x1="-107.6699" y1="411.2388" x2="-106.6699" y2="411.2388" gradientTransform="matrix(0 -3.1127 3.1127 0 -1134.2539 -285.6779)">
			<stop  offset="0" style="stop-color:#1B1A1B"/>
			<stop  offset="0.0495" style="stop-color:#1B1A1B"/>
			<stop  offset="0.0533" style="stop-color:#1E1E1F"/>
			<stop  offset="0.0776" style="stop-color:#303131"/>
			<stop  offset="0.1021" style="stop-color:#3D3E3E"/>
			<stop  offset="0.1266" style="stop-color:#464747"/>
			<stop  offset="0.1512" style="stop-color:#4C4D4D"/>
			<stop  offset="0.1758" style="stop-color:#4E4F4F"/>
			<stop  offset="0.2515" style="stop-color:#646463"/>
			<stop  offset="0.3527" style="stop-color:#7E7D7D"/>
			<stop  offset="0.4374" style="stop-color:#8F8F8F"/>
			<stop  offset="0.4945" style="stop-color:#979696"/>
			<stop  offset="0.5551" style="stop-color:#8A8A8A"/>
			<stop  offset="0.6676" style="stop-color:#6D6D6C"/>
			<stop  offset="0.7802" style="stop-color:#4E4F4F"/>
			<stop  offset="0.8094" style="stop-color:#464747"/>
			<stop  offset="0.8655" style="stop-color:#343535"/>
			<stop  offset="0.9286" style="stop-color:#1B1A1B"/>
			<stop  offset="1" style="stop-color:#1B1A1B"/>
		</linearGradient>
		<rect x="144.565" y="46.421" clip-path="url(#SVGID_49_)" fill="url(#SVGID_50_)" width="2.49" height="3.113"/>
	</g>
</g>
<g>
	<defs>
		<path id="SVGID_51_" d="M145.127,18.732c1.309,4.84-2.463,11.781-2.463,11.781h31.33l-0.327-0.961V-1.201L130.81-1.666
			C130.81-1.666,140.584,1.952,145.127,18.732"/>
	</defs>
	<clipPath id="SVGID_52_">
		<use xlink:href="#SVGID_51_"  overflow="visible"/>
	</clipPath>
	<g clip-path="url(#SVGID_52_)">
		<defs>
			<path id="SVGID_53_" d="M145.142,48.814c0.093,0.06,0.31,0.152,0.537,0.152c0.422,0,0.553-0.268,0.549-0.469
				c-0.003-0.34-0.31-0.486-0.627-0.486h-0.182v-0.246h0.182c0.239,0,0.542-0.123,0.542-0.41c0-0.195-0.124-0.366-0.426-0.366
				c-0.195,0-0.381,0.085-0.486,0.16l-0.086-0.239c0.128-0.093,0.374-0.186,0.635-0.186c0.478,0,0.694,0.283,0.694,0.578
				c0,0.25-0.149,0.463-0.447,0.571v0.007c0.298,0.06,0.542,0.284,0.542,0.624c0,0.388-0.304,0.728-0.886,0.728
				c-0.272,0-0.511-0.086-0.631-0.165L145.142,48.814z"/>
		</defs>
		<clipPath id="SVGID_54_">
			<use xlink:href="#SVGID_53_"  overflow="visible"/>
		</clipPath>
		
			<linearGradient id="SVGID_55_" gradientUnits="userSpaceOnUse" x1="-107.667" y1="411.2388" x2="-106.667" y2="411.2388" gradientTransform="matrix(0 -2.5084 2.5084 0 -885.7419 -220.9153)">
			<stop  offset="0" style="stop-color:#979696"/>
			<stop  offset="0.0714" style="stop-color:#979696"/>
			<stop  offset="0.223" style="stop-color:#A7A6A6"/>
			<stop  offset="0.478" style="stop-color:#CCCBCB"/>
			<stop  offset="0.7559" style="stop-color:#BAB9BA"/>
			<stop  offset="0.9505" style="stop-color:#B4B2B4"/>
			<stop  offset="1" style="stop-color:#B4B2B4"/>
		</linearGradient>
		<rect x="145.052" y="46.724" clip-path="url(#SVGID_54_)" fill="url(#SVGID_55_)" width="1.517" height="2.508"/>
	</g>
</g>
<g>
	<defs>
		<path id="SVGID_56_" d="M145.127,18.732c1.309,4.84-2.463,11.781-2.463,11.781h31.33l-0.327-0.961V-1.201L130.81-1.666
			C130.81-1.666,140.584,1.952,145.127,18.732"/>
	</defs>
	<clipPath id="SVGID_57_">
		<use xlink:href="#SVGID_56_"  overflow="visible"/>
	</clipPath>
	<g clip-path="url(#SVGID_57_)">
		<defs>
			<path id="SVGID_58_" d="M143.943,49.153c0,0.21-0.182,0.381-0.404,0.381h-1.682c-0.223,0-0.404-0.171-0.404-0.381v-2.351
				c0-0.21,0.181-0.381,0.404-0.381h1.682c0.222,0,0.404,0.171,0.404,0.381V49.153z"/>
		</defs>
		<clipPath id="SVGID_59_">
			<use xlink:href="#SVGID_58_"  overflow="visible"/>
		</clipPath>
		
			<linearGradient id="SVGID_60_" gradientUnits="userSpaceOnUse" x1="-107.6699" y1="411.2329" x2="-106.6699" y2="411.2329" gradientTransform="matrix(0 -3.1127 3.1127 0 -1137.3477 -285.6779)">
			<stop  offset="0" style="stop-color:#1B1A1B"/>
			<stop  offset="0.0495" style="stop-color:#1B1A1B"/>
			<stop  offset="0.0533" style="stop-color:#1E1E1F"/>
			<stop  offset="0.0776" style="stop-color:#303131"/>
			<stop  offset="0.1021" style="stop-color:#3D3E3E"/>
			<stop  offset="0.1266" style="stop-color:#464747"/>
			<stop  offset="0.1512" style="stop-color:#4C4D4D"/>
			<stop  offset="0.1758" style="stop-color:#4E4F4F"/>
			<stop  offset="0.2515" style="stop-color:#646463"/>
			<stop  offset="0.3527" style="stop-color:#7E7D7D"/>
			<stop  offset="0.4374" style="stop-color:#8F8F8F"/>
			<stop  offset="0.4945" style="stop-color:#979696"/>
			<stop  offset="0.5551" style="stop-color:#8A8A8A"/>
			<stop  offset="0.6676" style="stop-color:#6D6D6C"/>
			<stop  offset="0.7802" style="stop-color:#4E4F4F"/>
			<stop  offset="0.8094" style="stop-color:#464747"/>
			<stop  offset="0.8655" style="stop-color:#343535"/>
			<stop  offset="0.9286" style="stop-color:#1B1A1B"/>
			<stop  offset="1" style="stop-color:#1B1A1B"/>
		</linearGradient>
		<rect x="141.453" y="46.421" clip-path="url(#SVGID_59_)" fill="url(#SVGID_60_)" width="2.49" height="3.113"/>
	</g>
</g>
<g>
	<defs>
		<path id="SVGID_61_" d="M145.127,18.732c1.309,4.84-2.463,11.781-2.463,11.781h31.33l-0.327-0.961V-1.201L130.81-1.666
			C130.81-1.666,140.584,1.952,145.127,18.732"/>
	</defs>
	<clipPath id="SVGID_62_">
		<use xlink:href="#SVGID_61_"  overflow="visible"/>
	</clipPath>
	<g clip-path="url(#SVGID_62_)">
		<defs>
			<path id="SVGID_63_" d="M143.291,46.995c-0.067-0.005-0.153,0-0.247,0.014c-0.514,0.086-0.786,0.464-0.843,0.863h0.012
				c0.116-0.154,0.317-0.281,0.586-0.281c0.429,0,0.731,0.311,0.731,0.785c0,0.443-0.302,0.855-0.806,0.855
				c-0.519,0-0.859-0.404-0.859-1.035c0-0.478,0.172-0.854,0.411-1.093c0.201-0.199,0.47-0.321,0.776-0.359
				c0.098-0.014,0.179-0.018,0.239-0.018V46.995z M142.728,48.976c0.28,0,0.469-0.235,0.469-0.582c0-0.347-0.197-0.556-0.499-0.556
				c-0.198,0-0.381,0.124-0.471,0.299c-0.022,0.037-0.036,0.085-0.036,0.145c0.007,0.399,0.19,0.694,0.533,0.694H142.728z"/>
		</defs>
		<clipPath id="SVGID_64_">
			<use xlink:href="#SVGID_63_"  overflow="visible"/>
		</clipPath>
		
			<linearGradient id="SVGID_65_" gradientUnits="userSpaceOnUse" x1="-107.5439" y1="411.3716" x2="-106.5444" y2="411.3716" gradientTransform="matrix(0 -2.5054 2.5054 0 -887.9532 -220.2)">
			<stop  offset="0" style="stop-color:#979696"/>
			<stop  offset="0.0714" style="stop-color:#979696"/>
			<stop  offset="0.223" style="stop-color:#A7A6A6"/>
			<stop  offset="0.478" style="stop-color:#CCCBCB"/>
			<stop  offset="0.7559" style="stop-color:#BAB9BA"/>
			<stop  offset="0.9505" style="stop-color:#B4B2B4"/>
			<stop  offset="1" style="stop-color:#B4B2B4"/>
		</linearGradient>
		<rect x="141.865" y="46.726" clip-path="url(#SVGID_64_)" fill="url(#SVGID_65_)" width="1.665" height="2.505"/>
	</g>
</g>
<g>
	<defs>
		<path id="SVGID_66_" d="M145.127,18.732c1.309,4.84-2.463,11.781-2.463,11.781h31.33l-0.327-0.961V-1.201L130.81-1.666
			C130.81-1.666,140.584,1.952,145.127,18.732"/>
	</defs>
	<clipPath id="SVGID_67_">
		<use xlink:href="#SVGID_66_"  overflow="visible"/>
	</clipPath>
	<g clip-path="url(#SVGID_67_)">
		<defs>
			<path id="SVGID_68_" d="M150.167,49.153c0,0.21-0.18,0.381-0.404,0.381h-1.682c-0.223,0-0.404-0.171-0.404-0.381v-2.351
				c0-0.21,0.181-0.381,0.404-0.381h1.682c0.224,0,0.404,0.171,0.404,0.381V49.153z"/>
		</defs>
		<clipPath id="SVGID_69_">
			<use xlink:href="#SVGID_68_"  overflow="visible"/>
		</clipPath>
		
			<linearGradient id="SVGID_70_" gradientUnits="userSpaceOnUse" x1="-107.6699" y1="411.2407" x2="-106.6699" y2="411.2407" gradientTransform="matrix(0 -3.1127 3.1127 0 -1131.1465 -285.6779)">
			<stop  offset="0" style="stop-color:#1B1A1B"/>
			<stop  offset="0.0495" style="stop-color:#1B1A1B"/>
			<stop  offset="0.0533" style="stop-color:#1E1E1F"/>
			<stop  offset="0.0776" style="stop-color:#303131"/>
			<stop  offset="0.1021" style="stop-color:#3D3E3E"/>
			<stop  offset="0.1266" style="stop-color:#464747"/>
			<stop  offset="0.1512" style="stop-color:#4C4D4D"/>
			<stop  offset="0.1758" style="stop-color:#4E4F4F"/>
			<stop  offset="0.2515" style="stop-color:#646463"/>
			<stop  offset="0.3527" style="stop-color:#7E7D7D"/>
			<stop  offset="0.4374" style="stop-color:#8F8F8F"/>
			<stop  offset="0.4945" style="stop-color:#979696"/>
			<stop  offset="0.5551" style="stop-color:#8A8A8A"/>
			<stop  offset="0.6676" style="stop-color:#6D6D6C"/>
			<stop  offset="0.7802" style="stop-color:#4E4F4F"/>
			<stop  offset="0.8094" style="stop-color:#464747"/>
			<stop  offset="0.8655" style="stop-color:#343535"/>
			<stop  offset="0.9286" style="stop-color:#1B1A1B"/>
			<stop  offset="1" style="stop-color:#1B1A1B"/>
		</linearGradient>
		<rect x="147.677" y="46.421" clip-path="url(#SVGID_69_)" fill="url(#SVGID_70_)" width="2.49" height="3.113"/>
	</g>
</g>
<g>
	<defs>
		<path id="SVGID_71_" d="M145.127,18.732c1.309,4.84-2.463,11.781-2.463,11.781h31.33l-0.327-0.961V-1.201L130.81-1.666
			C130.81-1.666,140.584,1.952,145.127,18.732"/>
	</defs>
	<clipPath id="SVGID_72_">
		<use xlink:href="#SVGID_71_"  overflow="visible"/>
	</clipPath>
	<g clip-path="url(#SVGID_72_)">
		<defs>
			<polygon id="SVGID_73_" points="149.687,46.765 149.687,46.981 148.631,49.191 148.292,49.191 149.344,47.045 149.344,47.037 
				148.157,47.037 148.157,46.765 			"/>
		</defs>
		<clipPath id="SVGID_74_">
			<use xlink:href="#SVGID_73_"  overflow="visible"/>
		</clipPath>
		
			<linearGradient id="SVGID_75_" gradientUnits="userSpaceOnUse" x1="-107.4878" y1="411.436" x2="-106.4883" y2="411.436" gradientTransform="matrix(0 -2.4268 2.4268 0 -849.5515 -211.7018)">
			<stop  offset="0" style="stop-color:#979696"/>
			<stop  offset="0.0714" style="stop-color:#979696"/>
			<stop  offset="0.223" style="stop-color:#A7A6A6"/>
			<stop  offset="0.478" style="stop-color:#CCCBCB"/>
			<stop  offset="0.7559" style="stop-color:#BAB9BA"/>
			<stop  offset="0.9505" style="stop-color:#B4B2B4"/>
			<stop  offset="1" style="stop-color:#B4B2B4"/>
		</linearGradient>
		<rect x="148.157" y="46.765" clip-path="url(#SVGID_74_)" fill="url(#SVGID_75_)" width="1.53" height="2.426"/>
	</g>
</g>
<g>
	<path fill="#BD232F" d="M163.874,20.679l-19.315,6.913c-0.274-0.354-0.699-0.586-1.181-0.586c-0.828,0-1.499,0.671-1.499,1.499
		c0,0.015,0.004,0.029,0.005,0.045l-1.536,0.549l0.432,1.121l1.554-0.643c0.27,0.263,0.638,0.426,1.044,0.426
		c0.819,0,1.483-0.658,1.496-1.475L163.874,20.679z"/>
</g>
</svg>
