<?xml version="1.0" encoding="utf-8"?>
<!-- Generator: Adobe Illustrator 16.0.4, SVG Export Plug-In . SVG Version: 6.00 Build 0)  -->
<!DOCTYPE svg PUBLIC "-//W3C//DTD SVG 1.1//EN" "http://www.w3.org/Graphics/SVG/1.1/DTD/svg11.dtd">
<svg version="1.1" id="Layer_1" xmlns="http://www.w3.org/2000/svg" xmlns:xlink="http://www.w3.org/1999/xlink" x="0px" y="0px"
	 width="197.923px" height="69.379px" viewBox="0 0 197.923 69.379" enable-background="new 0 0 197.923 69.379"
	 xml:space="preserve">
<g>
	<path fill="#D13239" d="M0.04,29.479c0,0,20.598-18.718,63.654-15.311c0,0,24.868-14.793,38.49-14.414
		c0,0,76.875,2.105,95.739,29.724c0,0-52.666-14.539-77.646-7.397c0,0,16.246-9.783,48.189-5.121c0,0-23.334-11.861-70.426-13.244
		c0,0-16.257,1.623-31.77,14.709C66.049,18.612,33.9,12.325,0.04,29.479z"/>
	<g>
		<path fill="#D13239" d="M36.668,64.102c0,0.842-0.263,1.487-0.79,1.932c-0.526,0.447-1.274,0.669-2.246,0.669H32.92v2.785h-1.66
			v-7.828h2.5c0.95,0,1.671,0.204,2.166,0.613C36.421,62.681,36.668,63.292,36.668,64.102z M32.92,65.343h0.546
			c0.51,0,0.892-0.102,1.146-0.302c0.253-0.203,0.38-0.496,0.38-0.881c0-0.39-0.106-0.677-0.318-0.862
			c-0.212-0.187-0.545-0.278-0.999-0.278H32.92V65.343z"/>
		<path fill="#D13239" d="M45.252,65.562c0,1.296-0.322,2.291-0.965,2.988c-0.642,0.695-1.562,1.044-2.762,1.044
			s-2.12-0.349-2.764-1.044c-0.642-0.697-0.963-1.696-0.963-2.998c0-1.304,0.322-2.298,0.966-2.985
			c0.645-0.688,1.569-1.032,2.772-1.032s2.123,0.347,2.76,1.039C44.933,63.268,45.252,64.264,45.252,65.562z M39.539,65.562
			c0,0.875,0.166,1.533,0.498,1.976c0.332,0.443,0.828,0.664,1.488,0.664c1.324,0,1.986-0.88,1.986-2.64
			c0-1.763-0.659-2.645-1.976-2.645c-0.661,0-1.159,0.222-1.494,0.666C39.706,64.028,39.539,64.688,39.539,65.562z"/>
		<path fill="#D13239" d="M48.534,66.483v3.004h-1.661v-7.828h2.281c1.063,0,1.851,0.193,2.362,0.58
			c0.51,0.388,0.766,0.976,0.766,1.766c0,0.46-0.127,0.87-0.38,1.228c-0.253,0.36-0.612,0.642-1.076,0.845
			c1.177,1.76,1.945,2.896,2.303,3.41h-1.842l-1.869-3.004H48.534z M48.534,65.134h0.535c0.525,0,0.912-0.087,1.162-0.261
			c0.25-0.176,0.375-0.451,0.375-0.826c0-0.371-0.127-0.636-0.383-0.792c-0.255-0.156-0.65-0.235-1.186-0.235h-0.503V65.134z"/>
		<path fill="#D13239" d="M57.133,69.487h-1.66v-6.446h-2.126v-1.382h5.912v1.382h-2.126V69.487z"/>
		<path fill="#D13239" d="M65.256,69.487l-0.568-1.863h-2.854l-0.568,1.863h-1.789l2.764-7.861h2.029l2.773,7.861H65.256z
			 M64.292,66.231c-0.525-1.688-0.82-2.643-0.887-2.864c-0.065-0.222-0.113-0.396-0.142-0.524c-0.117,0.456-0.455,1.586-1.012,3.389
			H64.292z"/>
		<path fill="#D13239" d="M68.029,69.487v-7.828h1.66v6.457h3.175v1.371H68.029z"/>
		<path fill="#D13239" d="M84.179,65.562c0,1.296-0.321,2.291-0.964,2.988c-0.642,0.695-1.563,1.044-2.763,1.044
			c-1.2,0-2.121-0.349-2.763-1.044c-0.642-0.697-0.963-1.696-0.963-2.998c0-1.304,0.321-2.298,0.965-2.985
			c0.645-0.688,1.569-1.032,2.772-1.032c1.202,0,2.123,0.347,2.76,1.039C83.86,63.268,84.179,64.264,84.179,65.562z M78.466,65.562
			c0,0.875,0.166,1.533,0.498,1.976c0.332,0.443,0.828,0.664,1.488,0.664c1.324,0,1.987-0.88,1.987-2.64
			c0-1.763-0.659-2.645-1.976-2.645c-0.661,0-1.159,0.222-1.494,0.666S78.466,64.688,78.466,65.562z"/>
		<path fill="#D13239" d="M88.822,69.487h-1.661v-6.446h-2.125v-1.382h5.912v1.382h-2.125V69.487z"/>
		<path fill="#D13239" d="M99.257,65.562c0,1.296-0.321,2.291-0.964,2.988c-0.642,0.695-1.562,1.044-2.762,1.044
			s-2.121-0.349-2.764-1.044c-0.642-0.697-0.963-1.696-0.963-2.998c0-1.304,0.322-2.298,0.967-2.985
			c0.644-0.688,1.567-1.032,2.771-1.032c1.203,0,2.123,0.347,2.76,1.039C98.939,63.268,99.257,64.264,99.257,65.562z M93.544,65.562
			c0,0.875,0.165,1.533,0.497,1.976c0.333,0.443,0.829,0.664,1.489,0.664c1.324,0,1.986-0.88,1.986-2.64
			c0-1.763-0.659-2.645-1.976-2.645c-0.661,0-1.159,0.222-1.494,0.666C93.711,64.028,93.544,64.688,93.544,65.562z"/>
		<path fill="#D13239" d="M104.194,69.487l-1.886-6.142h-0.048c0.068,1.251,0.103,2.083,0.103,2.5v3.642h-1.482v-7.828h2.259
			l1.853,5.987h0.032l1.965-5.987h2.261v7.828h-1.549v-3.704c0-0.177,0.003-0.378,0.009-0.605c0.006-0.229,0.029-0.836,0.072-1.82
			h-0.048l-2.019,6.13H104.194z"/>
		<path fill="#D13239" d="M118.324,65.562c0,1.296-0.32,2.291-0.963,2.988c-0.642,0.695-1.563,1.044-2.763,1.044
			c-1.2,0-2.12-0.349-2.762-1.044c-0.645-0.697-0.966-1.696-0.966-2.998c0-1.304,0.323-2.298,0.968-2.985
			c0.644-0.688,1.567-1.032,2.771-1.032c1.202,0,2.122,0.347,2.761,1.039C118.006,63.268,118.324,64.264,118.324,65.562z
			 M112.612,65.562c0,0.875,0.165,1.533,0.498,1.976c0.332,0.443,0.828,0.664,1.488,0.664c1.323,0,1.985-0.88,1.985-2.64
			c0-1.763-0.657-2.645-1.975-2.645c-0.661,0-1.159,0.222-1.495,0.666C112.779,64.028,112.612,64.688,112.612,65.562z"/>
		<path fill="#D13239" d="M122.967,69.487h-1.659v-6.446h-2.127v-1.382h5.912v1.382h-2.126V69.487z"/>
		<path fill="#D13239" d="M126.297,69.487v-7.828h1.66v7.828H126.297z"/>
		<path fill="#D13239" d="M131.562,69.487h-1.635v-7.828h4.487v1.36h-2.853v2.019h2.654v1.355h-2.654V69.487z"/>
		<path fill="#D13239" d="M145.741,69.487h-2.111l-3.406-5.922h-0.047c0.069,1.045,0.103,1.793,0.103,2.238v3.684h-1.484v-7.828
			h2.094l3.401,5.864h0.036c-0.054-1.02-0.079-1.736-0.079-2.159v-3.705h1.494V69.487z"/>
		<path fill="#D13239" d="M154.815,65.562c0,1.296-0.321,2.291-0.963,2.988c-0.643,0.695-1.564,1.044-2.764,1.044
			s-2.119-0.349-2.763-1.044c-0.642-0.697-0.963-1.696-0.963-2.998c0-1.304,0.322-2.298,0.967-2.985
			c0.644-0.688,1.566-1.032,2.771-1.032c1.202,0,2.122,0.347,2.761,1.039C154.497,63.268,154.815,64.264,154.815,65.562z
			 M149.103,65.562c0,0.875,0.166,1.533,0.498,1.976c0.331,0.443,0.828,0.664,1.487,0.664c1.323,0,1.985-0.88,1.985-2.64
			c0-1.763-0.656-2.645-1.974-2.645c-0.661,0-1.159,0.222-1.496,0.666C149.27,64.028,149.103,64.688,149.103,65.562z"/>
		<path fill="#D13239" d="M156.079,68.722c0-0.3,0.08-0.526,0.242-0.68c0.159-0.154,0.394-0.23,0.702-0.23
			c0.295,0,0.524,0.079,0.688,0.235c0.161,0.157,0.242,0.383,0.242,0.675c0,0.281-0.081,0.504-0.245,0.666
			c-0.164,0.163-0.394,0.244-0.685,0.244c-0.302,0-0.533-0.079-0.698-0.238C156.161,69.235,156.079,69.011,156.079,68.722z"/>
		<path fill="#D13239" d="M165.959,69.487h-1.656v-4.53l0.016-0.745l0.027-0.812c-0.274,0.275-0.465,0.456-0.572,0.54l-0.899,0.724
			l-0.799-0.995l2.522-2.009h1.361V69.487z"/>
	</g>
	<g>
		<g>
			<path fill="#55565A" d="M9.168,54.809L4.865,39.661H4.735c0.202,2.58,0.302,4.584,0.302,6.014v9.134H0V33.778h7.571l4.39,14.932
				h0.115l4.304-14.932h7.585v21.031H18.74v-9.22c0-0.48,0.008-1.013,0.021-1.597c0.016-0.586,0.08-2.02,0.195-4.302h-0.129
				l-4.246,15.118H9.168z"/>
			<path fill="#D13239" d="M43.034,46.623c0,2.666-0.717,4.745-2.152,6.236c-1.434,1.491-3.442,2.237-6.023,2.237
				c-2.476,0-4.445-0.763-5.909-2.287c-1.463-1.526-2.195-3.586-2.195-6.187c0-2.655,0.718-4.72,2.152-6.192
				c1.435-1.472,3.447-2.208,6.038-2.208c1.603,0,3.018,0.341,4.246,1.021s2.176,1.658,2.843,2.928
				C42.7,43.442,43.034,44.927,43.034,46.623z M32.47,46.623c0,1.4,0.187,2.468,0.561,3.201c0.374,0.734,1.003,1.101,1.886,1.101
				c0.873,0,1.49-0.366,1.85-1.101c0.359-0.733,0.539-1.801,0.539-3.201c0-1.39-0.183-2.439-0.547-3.149
				c-0.365-0.71-0.988-1.065-1.872-1.065c-0.863,0-1.483,0.354-1.857,1.059C32.657,44.171,32.47,45.224,32.47,46.623z"/>
			<path fill="#55565A" d="M55.497,38.223c1.775,0,3.183,0.743,4.224,2.23c1.041,1.485,1.562,3.544,1.562,6.17
				c0,2.647-0.525,4.722-1.576,6.223c-1.051,1.502-2.512,2.251-4.382,2.251c-0.605,0-1.142-0.064-1.613-0.195
				c-0.47-0.129-0.89-0.309-1.26-0.538c-0.369-0.231-0.798-0.614-1.288-1.151h-0.346l-0.892,1.597h-4.39V32.426h5.627v5.063
				c0,0.604-0.066,1.645-0.201,3.122h0.201c0.547-0.845,1.178-1.453,1.893-1.827S54.584,38.223,55.497,38.223z M53.438,42.639
				c-0.787,0-1.363,0.273-1.727,0.82c-0.364,0.546-0.547,1.405-0.547,2.575v0.791c0,1.333,0.183,2.289,0.547,2.869
				s0.959,0.871,1.784,0.871c0.663,0,1.171-0.338,1.527-1.015c0.354-0.676,0.532-1.67,0.532-2.984
				C55.554,43.948,54.849,42.639,53.438,42.639z"/>
			<path fill="#55565A" d="M63.67,34.455c0-0.844,0.234-1.473,0.705-1.885s1.229-0.619,2.275-0.619c1.045,0,1.809,0.211,2.288,0.633
				c0.481,0.422,0.72,1.046,0.72,1.871c0,1.649-1.002,2.474-3.008,2.474C64.663,36.929,63.67,36.104,63.67,34.455z M69.441,54.809
				h-5.627V38.511h5.627V54.809z"/>
			<path fill="#55565A" d="M78.291,54.809h-5.628V32.426h5.628V54.809z"/>
			<path fill="#55565A" d="M93.1,54.809h-5.772V43.675c0-1.353,0.029-2.589,0.086-3.712c-0.355,0.432-0.796,0.883-1.324,1.353
				l-2.389,1.972l-2.951-3.626l7.226-5.883H93.1V54.809z"/>
			<path fill="#55565A" d="M112.255,54.809H96.984v-3.741l5.139-5.19c1.468-1.535,2.428-2.583,2.879-3.145
				c0.451-0.561,0.765-1.042,0.942-1.445c0.179-0.403,0.267-0.825,0.267-1.267c0-0.545-0.178-0.978-0.533-1.294
				c-0.354-0.316-0.854-0.475-1.496-0.475c-0.662,0-1.332,0.188-2.008,0.568c-0.677,0.379-1.442,0.937-2.296,1.675l-3.124-3.653
				c1.085-0.969,1.996-1.661,2.735-2.078c0.737-0.417,1.542-0.736,2.411-0.957c0.868-0.221,1.845-0.332,2.928-0.332
				c1.362,0,2.579,0.241,3.65,0.72c1.068,0.48,1.898,1.162,2.489,2.049c0.59,0.888,0.886,1.883,0.886,2.985
				c0,0.825-0.104,1.588-0.309,2.287c-0.208,0.7-0.526,1.388-0.959,2.064c-0.432,0.677-1.005,1.389-1.72,2.137
				s-2.238,2.167-4.57,4.258v0.143h7.96V54.809z"/>
			<path fill="#55565A" d="M128.114,38.338c0,1.304-0.397,2.424-1.194,3.359c-0.796,0.934-1.947,1.612-3.454,2.034v0.087
				c3.513,0.441,5.269,2.1,5.269,4.978c0,1.956-0.774,3.495-2.326,4.618c-1.548,1.121-3.701,1.683-6.454,1.683
				c-1.133,0-2.181-0.081-3.145-0.246c-0.966-0.161-2.008-0.46-3.132-0.891v-4.719c0.922,0.47,1.859,0.818,2.814,1.043
				c0.955,0.227,1.835,0.339,2.642,0.339c1.248,0,2.156-0.175,2.728-0.525c0.57-0.35,0.855-0.899,0.855-1.647
				c0-0.575-0.147-1.018-0.444-1.33c-0.298-0.312-0.778-0.547-1.44-0.705c-0.663-0.158-1.524-0.237-2.591-0.237h-1.296v-4.271h1.325
				c2.887,0,4.332-0.739,4.332-2.216c0-0.557-0.214-0.968-0.642-1.237c-0.427-0.269-0.999-0.403-1.72-0.403
				c-1.343,0-2.732,0.451-4.173,1.353l-2.361-3.797c1.114-0.768,2.252-1.314,3.419-1.64c1.166-0.327,2.502-0.49,4.009-0.49
				c2.178,0,3.886,0.432,5.123,1.295C127.495,35.634,128.114,36.823,128.114,38.338z"/>
			<path fill="#55565A" d="M130.472,52.421c0-0.882,0.262-1.562,0.786-2.042c0.521-0.48,1.283-0.719,2.28-0.719
				c0.95,0,1.68,0.238,2.188,0.719c0.508,0.479,0.762,1.16,0.762,2.042c0,0.862-0.262,1.536-0.783,2.021
				c-0.524,0.483-1.246,0.725-2.167,0.725c-0.949,0-1.697-0.238-2.245-0.718C130.747,53.97,130.472,53.294,130.472,52.421z"/>
			<path fill="#55565A" d="M146.417,55.097c-2.667,0-4.689-0.72-6.067-2.158c-1.376-1.438-2.065-3.505-2.065-6.2
				c0-2.704,0.745-4.8,2.231-6.285c1.488-1.487,3.604-2.23,6.35-2.23c1.889,0,3.669,0.413,5.339,1.237l-1.655,4.156
				c-0.682-0.297-1.31-0.533-1.885-0.712c-0.577-0.177-1.177-0.266-1.799-0.266c-0.914,0-1.618,0.356-2.117,1.064
				c-0.498,0.71-0.747,1.712-0.747,3.007c0,2.608,0.963,3.913,2.892,3.913c1.649,0,3.233-0.48,4.749-1.439v4.474
				C150.194,54.617,148.454,55.097,146.417,55.097z"/>
			<path fill="#D13239" d="M169.748,46.623c0,2.666-0.717,4.745-2.151,6.236s-3.442,2.237-6.023,2.237
				c-2.477,0-4.445-0.763-5.91-2.287c-1.462-1.526-2.194-3.586-2.194-6.187c0-2.655,0.717-4.72,2.153-6.192
				c1.433-1.472,3.447-2.208,6.037-2.208c1.602,0,3.018,0.341,4.246,1.021c1.228,0.681,2.176,1.658,2.843,2.928
				C169.414,43.442,169.748,44.927,169.748,46.623z M159.182,46.623c0,1.4,0.188,2.468,0.562,3.201
				c0.376,0.734,1.004,1.101,1.886,1.101c0.874,0,1.49-0.366,1.85-1.101c0.36-0.733,0.541-1.801,0.541-3.201
				c0-1.39-0.183-2.439-0.547-3.149c-0.365-0.71-0.989-1.065-1.872-1.065c-0.864,0-1.481,0.354-1.857,1.059
				C159.37,44.171,159.182,45.224,159.182,46.623z"/>
			<path fill="#55565A" d="M192.272,54.809v-8.861c0-1.103-0.153-1.93-0.454-2.48c-0.304-0.552-0.779-0.828-1.432-0.828
				c-0.864,0-1.498,0.369-1.9,1.108c-0.402,0.738-0.605,1.895-0.605,3.467v7.595h-5.642v-8.861c0-1.103-0.144-1.93-0.432-2.48
				c-0.287-0.552-0.754-0.828-1.396-0.828c-0.884,0-1.527,0.394-1.93,1.18c-0.403,0.786-0.605,2.071-0.605,3.855v7.135h-5.627
				V38.511h4.245l0.707,2.014h0.33c0.432-0.748,1.058-1.318,1.879-1.711c0.82-0.394,1.752-0.591,2.8-0.591
				c2.35,0,4.002,0.714,4.951,2.144h0.446c0.46-0.67,1.101-1.196,1.921-1.575c0.82-0.378,1.725-0.568,2.714-0.568
				c1.928,0,3.353,0.494,4.273,1.482c0.922,0.987,1.383,2.488,1.383,4.502v10.602H192.272z"/>
		</g>
	</g>
</g>
</svg>
