<?xml version="1.0" encoding="utf-8"?>
<!-- Generator: Adobe Illustrator 16.0.4, SVG Export Plug-In . SVG Version: 6.00 Build 0)  -->
<!DOCTYPE svg PUBLIC "-//W3C//DTD SVG 1.1//EN" "http://www.w3.org/Graphics/SVG/1.1/DTD/svg11.dtd">
<svg version="1.1" id="Layer_2" xmlns="http://www.w3.org/2000/svg" xmlns:xlink="http://www.w3.org/1999/xlink" x="0px" y="0px"
	 width="201.205px" height="68.805px" viewBox="0 0 201.205 68.805" enable-background="new 0 0 201.205 68.805"
	 xml:space="preserve">
<g>
	<path fill="#D62328" d="M0.68,30.125c0,0,20.866-18.958,64.507-15.513c0,0,25.203-14.985,39.004-14.604
		c0,0,77.906,2.137,97.013,30.118c0,0-53.366-14.715-78.669-7.496c0,0,16.44-9.907,48.824-5.187c0,0-23.646-12.015-71.381-13.412
		c0,0-16.46,1.645-32.188,14.899C67.57,19.123,34.987,12.758,0.68,30.125z"/>
	<g>
		<path fill="#454546" d="M17.089,44.926c0,2.801-0.753,4.984-2.259,6.55c-1.506,1.566-3.614,2.35-6.323,2.35
			c-2.599,0-4.667-0.801-6.202-2.402C0.768,49.822,0,47.656,0,44.926c0-2.79,0.753-4.958,2.259-6.505
			c1.505-1.546,3.618-2.319,6.338-2.319c1.683,0,3.168,0.357,4.458,1.072c1.29,0.716,2.284,1.741,2.984,3.076
			C16.739,41.584,17.089,43.143,17.089,44.926z M5.999,44.926c0,1.471,0.196,2.591,0.59,3.361c0.393,0.771,1.052,1.156,1.979,1.156
			c0.916,0,1.564-0.385,1.941-1.156c0.378-0.77,0.567-1.891,0.567-3.361c0-1.46-0.191-2.563-0.575-3.309
			c-0.383-0.745-1.038-1.118-1.964-1.118c-0.907,0-1.556,0.371-1.949,1.11C6.195,42.349,5.999,43.455,5.999,44.926z"/>
		<path fill="#454546" d="M31.262,53.523v-9.338c0-1.138-0.164-1.998-0.491-2.577c-0.328-0.579-0.854-0.869-1.579-0.869
			c-0.998,0-1.718,0.398-2.161,1.194c-0.442,0.796-0.665,2.161-0.665,4.095v7.495h-5.908V36.404h4.457l0.741,2.115h0.348
			c0.503-0.806,1.201-1.41,2.093-1.813c0.891-0.402,1.916-0.604,3.075-0.604c1.894,0,3.367,0.548,4.419,1.646
			s1.579,2.645,1.579,4.639v11.136H31.262z"/>
		<path fill="#454546" d="M49.455,53.826c-2.851,0-5.064-0.758-6.641-2.274c-1.577-1.516-2.365-3.674-2.365-6.475
			c0-2.891,0.73-5.109,2.19-6.656c1.461-1.546,3.546-2.319,6.256-2.319c2.579,0,4.571,0.672,5.976,2.017
			c1.405,1.345,2.107,3.282,2.107,5.81v2.629H46.417c0.04,0.957,0.391,1.707,1.051,2.251c0.659,0.544,1.558,0.816,2.696,0.816
			c1.038,0,1.992-0.099,2.864-0.294c0.871-0.197,1.816-0.532,2.833-1.005v4.246c-0.927,0.474-1.884,0.8-2.871,0.981
			C52.003,53.736,50.824,53.826,49.455,53.826z M49.107,40.121c-0.695,0-1.276,0.219-1.745,0.657
			c-0.469,0.438-0.743,1.125-0.824,2.062h5.077c-0.02-0.827-0.254-1.486-0.702-1.979C50.464,40.368,49.863,40.121,49.107,40.121z"/>
		<path fill="#D62328" d="M75.232,53.523H59.201v-3.928l5.395-5.456c1.541-1.611,2.548-2.712,3.022-3.301
			c0.473-0.589,0.803-1.096,0.99-1.519c0.186-0.423,0.279-0.866,0.279-1.329c0-0.574-0.187-1.028-0.56-1.36
			c-0.373-0.332-0.896-0.499-1.571-0.499c-0.694,0-1.397,0.199-2.107,0.597c-0.71,0.398-1.513,0.985-2.41,1.76l-3.279-3.838
			c1.138-1.018,2.095-1.745,2.871-2.183c0.776-0.438,1.62-0.773,2.531-1.005c0.912-0.231,1.937-0.348,3.075-0.348
			c1.431,0,2.707,0.252,3.831,0.756c1.123,0.504,1.995,1.222,2.614,2.153c0.62,0.931,0.929,1.977,0.929,3.134
			c0,0.867-0.108,1.668-0.324,2.403c-0.217,0.735-0.552,1.458-1.005,2.168c-0.453,0.71-1.055,1.458-1.805,2.244
			c-0.751,0.785-2.35,2.277-4.798,4.473v0.151h8.356V53.523z"/>
		<path fill="#454546" d="M86.248,53.826c-2.801,0-4.923-0.755-6.369-2.267c-1.445-1.511-2.167-3.681-2.167-6.512
			c0-2.841,0.78-5.042,2.341-6.603c1.562-1.561,3.783-2.342,6.664-2.342c1.985,0,3.853,0.433,5.606,1.299l-1.738,4.368
			c-0.715-0.313-1.375-0.562-1.979-0.749c-0.604-0.187-1.234-0.28-1.889-0.28c-0.957,0-1.697,0.373-2.221,1.119
			c-0.524,0.746-0.786,1.798-0.786,3.158c0,2.74,1.012,4.11,3.037,4.11c1.732,0,3.394-0.504,4.986-1.512v4.699
			C90.211,53.322,88.383,53.826,86.248,53.826z"/>
		<path fill="#454546" d="M106.299,53.523l-1.134-2.267h-0.121c-0.796,0.988-1.606,1.663-2.433,2.025
			c-0.826,0.363-1.894,0.544-3.203,0.544c-1.611,0-2.881-0.484-3.808-1.45c-0.927-0.967-1.39-2.328-1.39-4.081
			c0-1.823,0.635-3.18,1.904-4.072c1.269-0.891,3.107-1.393,5.515-1.503l2.856-0.091v-0.242c0-1.411-0.695-2.116-2.085-2.116
			c-1.25,0-2.836,0.423-4.76,1.27l-1.707-3.899c1.994-1.027,4.513-1.541,7.555-1.541c2.196,0,3.896,0.543,5.1,1.631
			c1.204,1.088,1.806,2.609,1.806,4.563v11.227H106.299z M101.917,49.655c0.715,0,1.327-0.227,1.835-0.68
			c0.509-0.454,0.763-1.043,0.763-1.768v-1.33l-1.36,0.06c-1.944,0.071-2.917,0.786-2.917,2.146
			C100.239,49.132,100.799,49.655,101.917,49.655z"/>
		<path fill="#454546" d="M124.748,36.102c0.514,0,1.003,0.04,1.466,0.12l0.332,0.061l-0.528,5.576
			c-0.484-0.121-1.154-0.182-2.01-0.182c-1.289,0-2.226,0.295-2.81,0.885c-0.585,0.589-0.876,1.438-0.876,2.545v8.417h-5.908V36.404
			h4.397l0.922,2.734h0.287c0.494-0.906,1.181-1.64,2.063-2.198C122.962,36.381,123.851,36.102,124.748,36.102z"/>
		<path fill="#D62328" d="M128.192,51.016c0-0.927,0.274-1.642,0.824-2.146c0.549-0.502,1.347-0.755,2.396-0.755
			c0.997,0,1.762,0.252,2.296,0.755c0.534,0.504,0.8,1.219,0.8,2.146c0,0.906-0.274,1.614-0.823,2.123
			c-0.549,0.509-1.307,0.763-2.273,0.763c-0.997,0-1.783-0.251-2.357-0.755C128.48,52.642,128.192,51.932,128.192,51.016z"/>
		<path fill="#D62328" d="M145.675,53.826c-2.801,0-4.924-0.755-6.369-2.267c-1.446-1.511-2.168-3.681-2.168-6.512
			c0-2.841,0.781-5.042,2.342-6.603c1.562-1.561,3.783-2.342,6.663-2.342c1.984,0,3.854,0.433,5.606,1.299l-1.738,4.368
			c-0.715-0.313-1.375-0.562-1.98-0.749c-0.604-0.187-1.234-0.28-1.889-0.28c-0.957,0-1.697,0.373-2.221,1.119
			c-0.523,0.746-0.785,1.798-0.785,3.158c0,2.74,1.012,4.11,3.037,4.11c1.732,0,3.395-0.504,4.986-1.512v4.699
			C149.639,53.322,147.81,53.826,145.675,53.826z"/>
		<path fill="#D62328" d="M170.909,44.926c0,2.801-0.753,4.984-2.259,6.55c-1.506,1.566-3.614,2.35-6.324,2.35
			c-2.599,0-4.667-0.801-6.203-2.402c-1.537-1.602-2.305-3.768-2.305-6.498c0-2.79,0.753-4.958,2.259-6.505
			c1.506-1.546,3.619-2.319,6.338-2.319c1.683,0,3.168,0.357,4.458,1.072c1.289,0.716,2.283,1.741,2.984,3.076
			C170.559,41.584,170.909,43.143,170.909,44.926z M159.819,44.926c0,1.471,0.195,2.591,0.589,3.361
			c0.393,0.771,1.052,1.156,1.979,1.156c0.917,0,1.563-0.385,1.941-1.156c0.378-0.77,0.567-1.891,0.567-3.361
			c0-1.46-0.191-2.563-0.574-3.309c-0.383-0.745-1.039-1.118-1.965-1.118c-0.906,0-1.556,0.371-1.949,1.11
			C160.014,42.349,159.819,43.455,159.819,44.926z"/>
		<path fill="#D62328" d="M195.296,53.523v-9.307c0-1.159-0.159-2.028-0.476-2.607s-0.818-0.869-1.503-0.869
			c-0.907,0-1.572,0.388-1.995,1.163c-0.423,0.777-0.635,1.99-0.635,3.642v7.978h-5.923v-9.307c0-1.159-0.151-2.028-0.453-2.607
			c-0.303-0.579-0.791-0.869-1.465-0.869c-0.927,0-1.602,0.414-2.025,1.239s-0.634,2.176-0.634,4.049v7.495h-5.908V36.404h4.458
			l0.741,2.115h0.347c0.453-0.786,1.11-1.385,1.972-1.797c0.862-0.414,1.841-0.62,2.939-0.62c2.467,0,4.2,0.75,5.197,2.251h0.469
			c0.484-0.706,1.156-1.257,2.017-1.655c0.861-0.398,1.811-0.597,2.849-0.597c2.025,0,3.521,0.519,4.488,1.556
			c0.966,1.038,1.45,2.613,1.45,4.729v11.136H195.296z"/>
	</g>
	<g>
		<g>
			<path fill="#454546" d="M33.361,68.805h-1.642v-6.376h-2.103v-1.366h5.847v1.366h-2.103V68.805z"/>
			<path fill="#454546" d="M42.999,68.805h-1.636v-3.342h-3.066v3.342h-1.641v-7.742h1.641v3.034h3.066v-3.034h1.636V68.805z"/>
			<path fill="#454546" d="M49.692,68.805l-0.561-1.842h-2.823l-0.562,1.842h-1.768l2.732-7.773h2.007l2.743,7.773H49.692z
				 M48.739,65.585c-0.519-1.67-0.812-2.614-0.877-2.833c-0.065-0.219-0.112-0.392-0.14-0.519c-0.117,0.452-0.45,1.569-1,3.352
				H48.739z"/>
			<path fill="#454546" d="M52.436,68.805v-7.742h1.641v7.742H52.436z"/>
			<path fill="#454546" d="M56.025,68.805v-7.742h1.642v6.386h3.14v1.356H56.025z"/>
			<path fill="#454546" d="M66.893,68.805l-0.562-1.842h-2.822l-0.562,1.842h-1.769l2.733-7.773h2.007l2.743,7.773H66.893z
				 M65.938,65.585c-0.519-1.67-0.811-2.614-0.876-2.833c-0.066-0.219-0.112-0.392-0.141-0.519c-0.116,0.452-0.45,1.569-1.001,3.352
				H65.938z"/>
			<path fill="#454546" d="M76.503,68.805h-2.086l-3.368-5.856h-0.047c0.066,1.035,0.1,1.772,0.1,2.213v3.643h-1.467v-7.742h2.07
				l3.363,5.798h0.037c-0.053-1.006-0.08-1.717-0.08-2.134v-3.665h1.478V68.805z"/>
			<path fill="#454546" d="M84.875,64.86c0,1.274-0.363,2.251-1.088,2.929s-1.773,1.017-3.143,1.017h-2.192v-7.742h2.43
				c1.264,0,2.245,0.333,2.944,1.001C84.526,62.731,84.875,63.664,84.875,64.86z M83.17,64.903c0-1.663-0.734-2.495-2.203-2.495
				h-0.874v5.041h0.704C82.379,67.449,83.17,66.601,83.17,64.903z"/>
			<path fill="#454546" d="M87.656,61.063l0.074,0.117c-0.177,0.695-0.488,1.541-0.932,2.537h-1.16
				c0.244-1.044,0.42-1.929,0.529-2.653H87.656z"/>
			<path fill="#454546" d="M93.4,66.655c0,0.699-0.251,1.25-0.754,1.652c-0.503,0.403-1.203,0.604-2.1,0.604
				c-0.826,0-1.557-0.156-2.192-0.466V66.92c0.522,0.233,0.964,0.397,1.326,0.493s0.693,0.143,0.993,0.143
				c0.36,0,0.637-0.068,0.829-0.206c0.193-0.138,0.289-0.343,0.289-0.615c0-0.151-0.043-0.287-0.127-0.405
				c-0.085-0.118-0.21-0.232-0.374-0.342c-0.165-0.109-0.499-0.284-1.003-0.524c-0.473-0.222-0.828-0.436-1.064-0.641
				c-0.237-0.205-0.426-0.442-0.567-0.714c-0.141-0.272-0.211-0.59-0.211-0.954c0-0.684,0.231-1.223,0.696-1.614
				c0.463-0.392,1.106-0.588,1.924-0.588c0.403,0,0.786,0.048,1.152,0.143c0.365,0.096,0.747,0.229,1.146,0.402l-0.53,1.277
				c-0.413-0.17-0.755-0.288-1.024-0.355c-0.27-0.067-0.536-0.101-0.797-0.101c-0.311,0-0.549,0.073-0.715,0.218
				c-0.167,0.145-0.249,0.333-0.249,0.566c0,0.145,0.033,0.271,0.101,0.378c0.067,0.109,0.174,0.212,0.321,0.313
				c0.146,0.101,0.493,0.281,1.04,0.542c0.724,0.346,1.22,0.694,1.488,1.041C93.267,65.724,93.4,66.15,93.4,66.655z"/>
			<path fill="#D72328" d="M104.49,68.805h-2.087l-3.368-5.856h-0.047c0.067,1.035,0.101,1.772,0.101,2.213v3.643h-1.467v-7.742
				h2.07l3.363,5.798h0.037c-0.053-1.006-0.079-1.717-0.079-2.134v-3.665h1.478V68.805z"/>
			<path fill="#D72328" d="M113.466,64.923c0,1.282-0.317,2.267-0.953,2.955c-0.635,0.688-1.546,1.033-2.733,1.033
				s-2.097-0.345-2.732-1.033c-0.635-0.688-0.953-1.677-0.953-2.966c0-1.288,0.319-2.272,0.956-2.952
				c0.637-0.68,1.55-1.019,2.741-1.019c1.189,0,2.1,0.342,2.729,1.027C113.151,62.654,113.466,63.638,113.466,64.923z
				 M107.815,64.923c0,0.865,0.164,1.517,0.493,1.955c0.329,0.438,0.82,0.657,1.472,0.657c1.311,0,1.965-0.871,1.965-2.611
				c0-1.744-0.651-2.615-1.954-2.615c-0.654,0-1.146,0.219-1.478,0.659C107.981,63.406,107.815,64.059,107.815,64.923z"/>
			<path fill="#D72328" d="M114.715,68.048c0-0.296,0.08-0.521,0.239-0.672c0.158-0.152,0.39-0.228,0.694-0.228
				c0.292,0,0.52,0.078,0.68,0.233c0.161,0.155,0.241,0.377,0.241,0.667c0,0.279-0.082,0.499-0.244,0.659
				c-0.162,0.161-0.389,0.241-0.678,0.241c-0.297,0-0.526-0.079-0.688-0.235C114.797,68.556,114.715,68.334,114.715,68.048z"/>
			<path fill="#D72328" d="M121.669,68.805h-1.636v-4.48l0.016-0.736l0.026-0.805c-0.272,0.272-0.461,0.45-0.567,0.535l-0.89,0.716
				l-0.788-0.985l2.494-1.986h1.345V68.805z"/>
			<path fill="#454546" d="M130.458,62.318c-0.617,0-1.096,0.233-1.435,0.697c-0.339,0.464-0.508,1.111-0.508,1.94
				c0,1.727,0.647,2.589,1.943,2.589c0.544,0,1.202-0.135,1.976-0.407v1.376c-0.636,0.265-1.346,0.398-2.129,0.398
				c-1.125,0-1.987-0.342-2.583-1.025c-0.597-0.684-0.896-1.664-0.896-2.941c0-0.806,0.147-1.51,0.439-2.117
				c0.294-0.605,0.714-1.069,1.264-1.392c0.549-0.323,1.192-0.485,1.93-0.485c0.752,0,1.507,0.182,2.267,0.545l-0.53,1.334
				c-0.29-0.137-0.581-0.257-0.874-0.36C131.029,62.369,130.741,62.318,130.458,62.318z"/>
			<path fill="#454546" d="M138.821,68.805l-0.562-1.842h-2.823l-0.561,1.842h-1.769l2.733-7.773h2.007l2.743,7.773H138.821z
				 M137.867,65.585c-0.519-1.67-0.811-2.614-0.876-2.833c-0.065-0.219-0.112-0.392-0.141-0.519
				c-0.116,0.452-0.45,1.569-1.001,3.352H137.867z"/>
			<path fill="#454546" d="M143.205,65.834v2.971h-1.641v-7.742h2.256c1.052,0,1.831,0.192,2.335,0.575
				c0.504,0.383,0.757,0.965,0.757,1.746c0,0.454-0.125,0.86-0.376,1.214c-0.251,0.355-0.605,0.633-1.064,0.834
				c1.165,1.741,1.924,2.865,2.277,3.374h-1.822l-1.848-2.971H143.205z M143.205,64.5h0.53c0.518,0,0.901-0.086,1.149-0.259
				c0.247-0.173,0.371-0.445,0.371-0.816c0-0.367-0.126-0.628-0.379-0.784c-0.252-0.155-0.643-0.233-1.173-0.233h-0.498V64.5z"/>
			<path fill="#454546" d="M156.11,66.655c0,0.699-0.251,1.25-0.754,1.652c-0.503,0.403-1.203,0.604-2.1,0.604
				c-0.826,0-1.557-0.156-2.193-0.466V66.92c0.523,0.233,0.965,0.397,1.328,0.493c0.361,0.095,0.692,0.143,0.993,0.143
				c0.36,0,0.636-0.068,0.829-0.206c0.191-0.138,0.288-0.343,0.288-0.615c0-0.151-0.042-0.287-0.127-0.405
				c-0.085-0.118-0.21-0.232-0.374-0.342c-0.164-0.109-0.499-0.284-1.003-0.524c-0.473-0.222-0.829-0.436-1.065-0.641
				c-0.237-0.205-0.425-0.442-0.566-0.714c-0.142-0.272-0.212-0.59-0.212-0.954c0-0.684,0.232-1.223,0.696-1.614
				c0.465-0.392,1.106-0.588,1.925-0.588c0.403,0,0.787,0.048,1.151,0.143c0.366,0.096,0.748,0.229,1.146,0.402l-0.529,1.277
				c-0.414-0.17-0.755-0.288-1.025-0.355c-0.27-0.067-0.535-0.101-0.796-0.101c-0.311,0-0.549,0.073-0.716,0.218
				c-0.166,0.145-0.249,0.333-0.249,0.566c0,0.145,0.034,0.271,0.101,0.378c0.067,0.109,0.174,0.212,0.32,0.313
				c0.147,0.101,0.494,0.281,1.041,0.542c0.724,0.346,1.219,0.694,1.488,1.041C155.976,65.724,156.11,66.15,156.11,66.655z"/>
			<path fill="#454546" d="M157.514,68.805v-7.742h1.641v7.742H157.514z"/>
			<path fill="#454546" d="M164.091,68.805h-1.642v-6.376h-2.102v-1.366h5.846v1.366h-2.102V68.805z"/>
			<path fill="#454546" d="M171.843,68.805h-4.459v-7.742h4.459v1.345h-2.817v1.7h2.621v1.345h-2.621v1.996h2.817V68.805z"/>
		</g>
	</g>
</g>
</svg>
