<?xml version="1.0" encoding="utf-8"?>
<!-- Generator: Adobe Illustrator 16.0.4, SVG Export Plug-In . SVG Version: 6.00 Build 0)  -->
<!DOCTYPE svg PUBLIC "-//W3C//DTD SVG 1.1//EN" "http://www.w3.org/Graphics/SVG/1.1/DTD/svg11.dtd">
<svg version="1.1" id="Layer_1" xmlns="http://www.w3.org/2000/svg" xmlns:xlink="http://www.w3.org/1999/xlink" x="0px" y="0px"
	 width="200px" height="71.421px" viewBox="0 0 200 71.421" enable-background="new 0 0 200 71.421" xml:space="preserve">
<g>
	<path fill="#FF5000" d="M0,29.908c0,0,20.722-18.83,64.034-15.401c0,0,25.016-14.882,38.719-14.5c0,0,77.335,2.118,96.311,29.901
		c0,0-52.981-14.625-78.109-7.441c0,0,16.342-9.842,48.476-5.152c0,0-23.473-11.932-70.846-13.323c0,0-16.353,1.632-31.958,14.797
		C66.402,18.977,34.061,12.653,0,29.908z"/>
	<g>
		<path fill="#FF5000" d="M12.16,57.21H5.784V38.835H0.021v-5.211h17.887v5.211H12.16V57.21z"/>
		<path fill="#FF5000" d="M31.625,57.21V47.24c0-2.452-0.727-3.677-2.18-3.677c-1.033,0-1.794,0.432-2.284,1.297
			c-0.489,0.867-0.734,2.305-0.734,4.317v8.034h-6.311V33.628h6.311v2.044c0,1.613-0.086,3.453-0.258,5.518h0.291
			c0.603-0.946,1.318-1.614,2.146-2.001s1.792-0.58,2.89-0.58c2.043,0,3.633,0.587,4.77,1.766c1.135,1.177,1.703,2.825,1.703,4.945
			V57.21H31.625z"/>
		<path fill="#FF5000" d="M53.399,57.21l-1.21-2.42h-0.13c-0.851,1.054-1.716,1.775-2.598,2.163c-0.882,0.387-2.024,0.58-3.423,0.58
			c-1.723,0-3.078-0.516-4.068-1.549c-0.99-1.032-1.483-2.483-1.483-4.356c0-1.947,0.677-3.396,2.033-4.347
			c1.356-0.953,3.319-1.487,5.892-1.605l3.052-0.098v-0.256c0-1.506-0.743-2.26-2.229-2.26c-1.334,0-3.029,0.453-5.084,1.355
			l-1.824-4.163c2.131-1.097,4.822-1.644,8.071-1.644c2.346,0,4.162,0.58,5.448,1.741c1.286,1.162,1.929,2.787,1.929,4.872V57.21
			H53.399z M48.719,53.081c0.763,0,1.417-0.243,1.961-0.728c0.542-0.484,0.815-1.113,0.815-1.886v-1.42l-1.453,0.065
			c-2.078,0.075-3.117,0.837-3.117,2.29C46.925,52.521,47.524,53.081,48.719,53.081z"/>
		<path fill="#FF5000" d="M61.145,36.43c0-0.946,0.264-1.65,0.791-2.113c0.528-0.462,1.378-0.692,2.551-0.692
			c1.173,0,2.029,0.235,2.567,0.71c0.537,0.472,0.808,1.171,0.808,2.096c0,1.851-1.126,2.775-3.375,2.775
			C62.26,39.206,61.145,38.281,61.145,36.43z M67.619,57.21h-6.312V40.219h6.312V57.21z"/>
		<path fill="#231F20" d="M82.112,38.513c-1.517,0-2.702,0.621-3.552,1.863c-0.849,1.242-1.275,2.956-1.275,5.138
			c0,4.539,1.729,6.809,5.182,6.809c1.043,0,2.055-0.145,3.035-0.437c0.979-0.291,1.963-0.638,2.954-1.048v5.389
			c-1.97,0.87-4.197,1.306-6.684,1.306c-3.562,0-6.293-1.032-8.193-3.097c-1.898-2.065-2.849-5.05-2.849-8.954
			c0-2.442,0.459-4.588,1.38-6.438c0.921-1.85,2.244-3.271,3.971-4.267c1.727-0.995,3.759-1.492,6.093-1.492
			c2.551,0,4.988,0.554,7.312,1.662l-1.953,5.017c-0.872-0.409-1.743-0.753-2.616-1.033C84.048,38.652,83.112,38.513,82.112,38.513z
			"/>
		<path fill="#231F20" d="M103.821,57.21l-1.211-2.42h-0.129c-0.85,1.054-1.717,1.775-2.599,2.163
			c-0.883,0.387-2.023,0.58-3.422,0.58c-1.722,0-3.078-0.516-4.068-1.549c-0.991-1.032-1.484-2.483-1.484-4.356
			c0-1.947,0.677-3.396,2.035-4.347c1.355-0.953,3.319-1.487,5.891-1.605l3.051-0.098v-0.256c0-1.506-0.743-2.26-2.227-2.26
			c-1.335,0-3.03,0.453-5.086,1.355l-1.824-4.163c2.131-1.097,4.821-1.644,8.072-1.644c2.345,0,4.161,0.58,5.447,1.741
			c1.286,1.162,1.929,2.787,1.929,4.872V57.21H103.821z M99.14,53.081c0.763,0,1.417-0.243,1.961-0.728
			c0.543-0.484,0.814-1.113,0.814-1.886v-1.42l-1.454,0.065c-2.076,0.075-3.114,0.837-3.114,2.29
			C97.348,52.521,97.945,53.081,99.14,53.081z"/>
		<path fill="#231F20" d="M122.737,38.61c0.549,0,1.07,0.042,1.566,0.129l0.354,0.064l-0.563,5.954
			c-0.517-0.13-1.232-0.196-2.146-0.196c-1.379,0-2.379,0.316-3.003,0.945c-0.625,0.629-0.938,1.536-0.938,2.718v8.986h-6.31V38.932
			h4.697l0.984,2.919h0.305c0.528-0.967,1.263-1.75,2.205-2.347C120.83,38.907,121.779,38.61,122.737,38.61z"/>
		<path fill="#FF5000" d="M123.442,54.533c0-0.99,0.292-1.753,0.879-2.292c0.588-0.537,1.438-0.807,2.56-0.807
			c1.066,0,1.884,0.27,2.453,0.807c0.569,0.538,0.856,1.301,0.856,2.292c0,0.967-0.295,1.723-0.881,2.268
			c-0.587,0.542-1.396,0.812-2.429,0.812c-1.064,0-1.905-0.268-2.519-0.806C123.749,56.269,123.442,55.511,123.442,54.533z"/>
		<path fill="#FF5000" d="M141.326,57.533c-2.992,0-5.259-0.806-6.805-2.42c-1.543-1.612-2.315-3.93-2.315-6.953
			c0-3.033,0.834-5.383,2.503-7.05c1.666-1.667,4.041-2.5,7.117-2.5c2.12,0,4.118,0.46,5.989,1.387l-1.856,4.663
			c-0.764-0.333-1.469-0.599-2.115-0.799c-0.646-0.199-1.317-0.297-2.018-0.297c-1.022,0-1.812,0.397-2.374,1.194
			c-0.559,0.795-0.839,1.919-0.839,3.371c0,2.926,1.082,4.388,3.246,4.388c1.849,0,3.626-0.537,5.325-1.613v5.018
			C145.56,56.994,143.605,57.533,141.326,57.533z"/>
		<path fill="#FF5000" d="M167.491,48.03c0,2.99-0.805,5.322-2.413,6.995c-1.609,1.671-3.86,2.507-6.756,2.507
			c-2.776,0-4.986-0.854-6.627-2.564c-1.642-1.71-2.462-4.023-2.462-6.938c0-2.978,0.806-5.294,2.413-6.945
			c1.609-1.65,3.866-2.475,6.773-2.475c1.798,0,3.385,0.381,4.762,1.145c1.377,0.764,2.44,1.858,3.187,3.284
			C167.117,44.462,167.491,46.126,167.491,48.03z M155.641,48.03c0,1.57,0.213,2.768,0.631,3.591
			c0.421,0.824,1.126,1.234,2.115,1.234c0.979,0,1.672-0.41,2.074-1.234c0.402-0.823,0.605-2.021,0.605-3.591
			c0-1.559-0.205-2.737-0.613-3.533c-0.41-0.795-1.107-1.193-2.1-1.193c-0.97,0-1.661,0.395-2.082,1.187
			C155.854,45.28,155.641,46.46,155.641,48.03z"/>
		<path fill="#FF5000" d="M192.751,57.21v-9.938c0-1.236-0.169-2.165-0.508-2.782c-0.341-0.62-0.874-0.928-1.607-0.928
			c-0.969,0-1.677,0.414-2.128,1.242c-0.454,0.829-0.68,2.124-0.68,3.888v8.518h-6.327v-9.938c0-1.236-0.162-2.165-0.485-2.782
			c-0.322-0.62-0.846-0.928-1.566-0.928c-0.989,0-1.71,0.44-2.161,1.323c-0.454,0.882-0.68,2.323-0.68,4.323v8.002h-6.312V38.932
			h4.764l0.79,2.259h0.372c0.484-0.84,1.187-1.479,2.107-1.92c0.92-0.441,1.967-0.661,3.138-0.661c2.636,0,4.487,0.801,5.554,2.403
			h0.5c0.516-0.752,1.233-1.341,2.156-1.766c0.921-0.424,1.934-0.637,3.041-0.637c2.164,0,3.762,0.553,4.795,1.66
			c1.033,1.109,1.551,2.792,1.551,5.052V57.21H192.751z"/>
	</g>
	<path fill="#55565A" d="M36.605,71.886h-1.533V65.93h-1.963v-1.275h5.46v1.275h-1.964V71.886z"/>
	<path fill="#55565A" d="M45.607,71.886h-1.528v-3.121h-2.864v3.121h-1.533v-7.231h1.533v2.833h2.864v-2.833h1.528V71.886z"/>
	<path fill="#55565A" d="M51.859,71.886l-0.524-1.721h-2.637l-0.524,1.721h-1.652l2.552-7.261h1.875l2.562,7.261H51.859z
		 M50.969,68.878c-0.484-1.56-0.757-2.442-0.818-2.646c-0.061-0.205-0.104-0.366-0.131-0.484c-0.109,0.422-0.42,1.465-0.935,3.13
		H50.969z"/>
	<path fill="#55565A" d="M54.422,71.886v-7.231h1.533v7.231H54.422z"/>
	<path fill="#55565A" d="M57.775,71.886v-7.231h1.533v5.965h2.934v1.266H57.775z"/>
	<path fill="#55565A" d="M67.925,71.886L67.4,70.165h-2.636l-0.524,1.721h-1.652l2.553-7.261h1.874l2.562,7.261H67.925z
		 M67.035,68.878c-0.485-1.56-0.758-2.442-0.819-2.646c-0.061-0.205-0.104-0.366-0.131-0.484c-0.109,0.422-0.42,1.465-0.935,3.13
		H67.035z"/>
	<path fill="#55565A" d="M76.902,71.886h-1.949l-3.145-5.471h-0.044c0.062,0.966,0.094,1.655,0.094,2.067v3.403h-1.371v-7.231h1.935
		l3.14,5.416h0.035c-0.05-0.939-0.074-1.605-0.074-1.994v-3.422h1.38V71.886z"/>
	<path fill="#55565A" d="M84.723,68.201c0,1.189-0.34,2.103-1.017,2.736c-0.678,0.632-1.657,0.949-2.936,0.949h-2.048v-7.231h2.271
		c1.18,0,2.097,0.312,2.75,0.935C84.396,66.212,84.723,67.083,84.723,68.201z M83.13,68.24c0-1.553-0.687-2.33-2.058-2.33h-0.816
		v4.709h0.657C82.391,70.62,83.13,69.826,83.13,68.24z"/>
	<path fill="#55565A" d="M87.319,64.655l0.069,0.108c-0.165,0.65-0.455,1.439-0.87,2.369h-1.083
		c0.228-0.976,0.392-1.802,0.495-2.477H87.319z"/>
	<path fill="#55565A" d="M92.686,69.877c0,0.653-0.235,1.167-0.705,1.543c-0.47,0.375-1.124,0.564-1.961,0.564
		c-0.771,0-1.455-0.146-2.048-0.435v-1.425c0.488,0.218,0.901,0.371,1.239,0.46c0.338,0.088,0.647,0.133,0.928,0.133
		c0.336,0,0.595-0.064,0.774-0.193c0.179-0.129,0.269-0.32,0.269-0.574c0-0.142-0.039-0.268-0.119-0.379
		c-0.079-0.11-0.195-0.217-0.349-0.318c-0.153-0.103-0.466-0.266-0.937-0.49c-0.442-0.208-0.774-0.408-0.994-0.599
		c-0.221-0.192-0.397-0.414-0.53-0.668c-0.132-0.254-0.197-0.551-0.197-0.89c0-0.64,0.217-1.143,0.65-1.509
		c0.434-0.366,1.033-0.549,1.799-0.549c0.375,0,0.734,0.045,1.075,0.134c0.341,0.089,0.698,0.213,1.072,0.375l-0.495,1.192
		c-0.386-0.158-0.706-0.269-0.958-0.332c-0.251-0.062-0.5-0.094-0.744-0.094c-0.29,0-0.513,0.067-0.667,0.204
		c-0.155,0.134-0.232,0.312-0.232,0.529c0,0.135,0.032,0.253,0.094,0.354s0.162,0.198,0.299,0.292s0.461,0.263,0.972,0.507
		c0.676,0.323,1.139,0.647,1.39,0.972C92.56,69.008,92.686,69.406,92.686,69.877z"/>
	<path fill="#FF5000" d="M103.043,71.886h-1.948l-3.146-5.471h-0.044c0.062,0.966,0.094,1.655,0.094,2.067v3.403h-1.37v-7.231h1.934
		l3.141,5.416h0.034c-0.049-0.939-0.074-1.605-0.074-1.994v-3.422h1.38V71.886z"/>
	<path fill="#FF5000" d="M111.428,68.26c0,1.197-0.298,2.117-0.892,2.76c-0.593,0.644-1.443,0.965-2.552,0.965
		s-1.959-0.322-2.553-0.965c-0.593-0.643-0.89-1.566-0.89-2.77s0.298-2.123,0.892-2.758c0.596-0.634,1.449-0.952,2.561-0.952
		s1.961,0.319,2.55,0.959C111.133,66.139,111.428,67.06,111.428,68.26z M106.149,68.26c0,0.808,0.153,1.417,0.46,1.825
		c0.307,0.409,0.764,0.613,1.375,0.613c1.223,0,1.835-0.812,1.835-2.438c0-1.629-0.608-2.443-1.825-2.443
		c-0.61,0-1.07,0.204-1.38,0.615C106.305,66.842,106.149,67.452,106.149,68.26z"/>
	<path fill="#FF5000" d="M112.595,71.178c0-0.276,0.074-0.486,0.223-0.628s0.364-0.212,0.647-0.212c0.273,0,0.485,0.072,0.635,0.217
		c0.151,0.145,0.226,0.353,0.226,0.623c0,0.26-0.077,0.466-0.228,0.616c-0.152,0.15-0.362,0.226-0.633,0.226
		c-0.277,0-0.491-0.074-0.643-0.221C112.67,71.652,112.595,71.445,112.595,71.178z"/>
	<path fill="#FF5000" d="M119.089,71.886h-1.528v-4.185l0.015-0.688l0.023-0.752c-0.253,0.254-0.429,0.42-0.527,0.5l-0.831,0.667
		l-0.737-0.92l2.329-1.854h1.257V71.886z"/>
	<path fill="#55565A" d="M127.299,65.826c-0.577,0-1.023,0.217-1.34,0.65c-0.316,0.434-0.475,1.038-0.475,1.813
		c0,1.613,0.604,2.418,1.814,2.418c0.507,0,1.123-0.127,1.846-0.38v1.285c-0.594,0.248-1.257,0.372-1.988,0.372
		c-1.053,0-1.857-0.32-2.414-0.958c-0.558-0.639-0.836-1.554-0.836-2.747c0-0.752,0.136-1.411,0.41-1.977
		c0.274-0.565,0.667-0.999,1.18-1.3c0.513-0.302,1.114-0.453,1.803-0.453c0.702,0,1.407,0.17,2.117,0.509l-0.494,1.247
		c-0.271-0.129-0.543-0.241-0.815-0.337C127.832,65.874,127.562,65.826,127.299,65.826z"/>
	<path fill="#55565A" d="M135.108,71.886l-0.522-1.721h-2.637l-0.525,1.721h-1.651l2.552-7.261h1.874l2.564,7.261H135.108z
		 M134.219,68.878c-0.484-1.56-0.756-2.442-0.817-2.646c-0.062-0.205-0.105-0.366-0.131-0.484c-0.11,0.422-0.421,1.465-0.937,3.13
		H134.219z"/>
	<path fill="#55565A" d="M139.206,69.111v2.775h-1.533v-7.231h2.107c0.982,0,1.708,0.178,2.18,0.536
		c0.472,0.358,0.707,0.901,0.707,1.63c0,0.426-0.117,0.804-0.351,1.135c-0.233,0.332-0.567,0.591-0.995,0.779
		c1.09,1.625,1.797,2.676,2.128,3.151h-1.702l-1.726-2.775H139.206z M139.206,67.865h0.495c0.484,0,0.841-0.082,1.071-0.243
		c0.23-0.161,0.347-0.415,0.347-0.761c0-0.343-0.118-0.587-0.354-0.732c-0.235-0.146-0.6-0.218-1.095-0.218h-0.464V67.865z"/>
	<path fill="#55565A" d="M151.259,69.877c0,0.653-0.235,1.167-0.705,1.543c-0.469,0.375-1.123,0.564-1.961,0.564
		c-0.772,0-1.454-0.146-2.049-0.435v-1.425c0.489,0.218,0.902,0.371,1.241,0.46c0.338,0.088,0.646,0.133,0.926,0.133
		c0.338,0,0.595-0.064,0.773-0.193c0.18-0.129,0.27-0.32,0.27-0.574c0-0.142-0.038-0.268-0.118-0.379
		c-0.079-0.11-0.194-0.217-0.349-0.318c-0.153-0.103-0.467-0.266-0.936-0.49c-0.443-0.208-0.774-0.408-0.995-0.599
		c-0.221-0.192-0.397-0.414-0.53-0.668c-0.131-0.254-0.197-0.551-0.197-0.89c0-0.64,0.218-1.143,0.651-1.509
		c0.433-0.366,1.033-0.549,1.797-0.549c0.377,0,0.735,0.045,1.077,0.134c0.341,0.089,0.697,0.213,1.068,0.375l-0.492,1.192
		c-0.387-0.158-0.707-0.269-0.959-0.332c-0.251-0.062-0.5-0.094-0.743-0.094c-0.29,0-0.513,0.067-0.669,0.204
		c-0.154,0.134-0.23,0.312-0.23,0.529c0,0.135,0.03,0.253,0.092,0.354c0.064,0.101,0.164,0.198,0.3,0.292
		c0.139,0.094,0.462,0.263,0.972,0.507c0.677,0.323,1.139,0.647,1.39,0.972C151.134,69.008,151.259,69.406,151.259,69.877z"/>
	<path fill="#55565A" d="M152.569,71.886v-7.231h1.533v7.231H152.569z"/>
	<path fill="#55565A" d="M158.712,71.886h-1.533V65.93h-1.964v-1.275h5.462v1.275h-1.965V71.886z"/>
	<path fill="#55565A" d="M165.955,71.886h-4.166v-7.231h4.166v1.255h-2.633v1.588h2.448v1.257h-2.448v1.865h2.633V71.886z"/>
</g>
</svg>
